<?xml version="1.0" encoding="UTF-8"?>
<svg xmlns="http://www.w3.org/2000/svg" xmlns:xlink="http://www.w3.org/1999/xlink" width="69pt" height="53pt" viewBox="0 0 69 53" version="1.1">
<defs>
<filter id="alpha" filterUnits="objectBoundingBox" x="0%" y="0%" width="100%" height="100%">
  <feColorMatrix type="matrix" in="SourceGraphic" values="0 0 0 0 1 0 0 0 0 1 0 0 0 0 1 0 0 0 1 0"/>
</filter>
<mask id="mask0">
  <g filter="url(#alpha)">
<rect x="0" y="0" width="69" height="53" style="fill:rgb(0%,0%,0%);fill-opacity:0.101961;stroke:none;"/>
  </g>
</mask>
<clipPath id="clip1">
  <rect x="0" y="0" width="69" height="53"/>
</clipPath>
<g id="surface5" clip-path="url(#clip1)">
<path style=" stroke:none;fill-rule:nonzero;fill:rgb(0%,0%,0%);fill-opacity:1;" d="M 45.636719 32.558594 L 51.875 26.261719 L 45.636719 19.96875 L 47.539062 18.050781 L 55.683594 26.261719 L 47.539062 34.476562 Z M 45.636719 32.558594 "/>
</g>
<mask id="mask1">
  <g filter="url(#alpha)">
<rect x="0" y="0" width="69" height="53" style="fill:rgb(0%,0%,0%);fill-opacity:0.101961;stroke:none;"/>
  </g>
</mask>
<clipPath id="clip2">
  <rect x="0" y="0" width="69" height="53"/>
</clipPath>
<g id="surface8" clip-path="url(#clip2)">
<path style=" stroke:none;fill-rule:nonzero;fill:rgb(0%,0%,0%);fill-opacity:1;" d="M 27.816406 26.710938 L 30.351562 26.710938 L 30.351562 24.144531 L 27.816406 24.144531 Z M 40.550781 24.144531 L 38.011719 24.144531 L 38.011719 26.710938 L 40.550781 26.710938 Z M 32.914062 26.710938 L 35.453125 26.710938 L 35.453125 24.144531 L 32.914062 24.144531 Z M 32.914062 26.710938 "/>
</g>
<mask id="mask2">
  <g filter="url(#alpha)">
<rect x="0" y="0" width="69" height="53" style="fill:rgb(0%,0%,0%);fill-opacity:0.101961;stroke:none;"/>
  </g>
</mask>
<clipPath id="clip3">
  <rect x="0" y="0" width="69" height="53"/>
</clipPath>
<g id="surface11" clip-path="url(#clip3)">
<path style=" stroke:none;fill-rule:nonzero;fill:rgb(0%,0%,0%);fill-opacity:1;" d="M 24.378906 32.492188 L 18.132812 26.199219 L 24.371094 19.902344 L 22.46875 17.984375 L 14.332031 26.199219 L 22.476562 34.410156 Z M 24.378906 32.492188 "/>
</g>
<mask id="mask3">
  <g filter="url(#alpha)">
<rect x="0" y="0" width="69" height="53" style="fill:rgb(0%,0%,0%);fill-opacity:0.101961;stroke:none;"/>
  </g>
</mask>
<clipPath id="clip4">
  <rect x="0" y="0" width="69" height="53"/>
</clipPath>
<g id="surface14" clip-path="url(#clip4)">
<path style=" stroke:none;fill-rule:nonzero;fill:rgb(0%,0%,0%);fill-opacity:1;" d="M 69 48.269531 C 69 49.332031 53.554688 53.019531 34.5 53.019531 C 15.445312 53.019531 0 49.332031 0 48.269531 C 0 47.207031 15.445312 49.167969 34.5 49.167969 C 53.554688 49.167969 69 47.207031 69 48.269531 Z M 69 48.269531 "/>
</g>
<mask id="mask4">
  <g filter="url(#alpha)">
<rect x="0" y="0" width="69" height="53" style="fill:rgb(0%,0%,0%);fill-opacity:0.2;stroke:none;"/>
  </g>
</mask>
<clipPath id="clip5">
  <rect x="0" y="0" width="69" height="53"/>
</clipPath>
<g id="surface17" clip-path="url(#clip5)">
<path style=" stroke:none;fill-rule:nonzero;fill:rgb(0%,0%,0%);fill-opacity:1;" d="M 47.292969 47.496094 C 46.382812 47.503906 45.175781 47.351562 44.933594 47.203125 C 44.746094 47.089844 44.671875 46.679688 44.648438 46.492188 C 44.632812 46.492188 44.621094 46.492188 44.621094 46.492188 C 44.621094 46.492188 44.671875 47.152344 44.914062 47.300781 C 45.160156 47.453125 46.363281 47.601562 47.277344 47.59375 C 47.539062 47.59375 47.632812 47.496094 47.625 47.359375 C 47.589844 47.441406 47.488281 47.496094 47.292969 47.496094 Z M 47.292969 47.496094 "/>
</g>
<mask id="mask5">
  <g filter="url(#alpha)">
<rect x="0" y="0" width="69" height="53" style="fill:rgb(0%,0%,0%);fill-opacity:0.101961;stroke:none;"/>
  </g>
</mask>
<clipPath id="clip6">
  <rect x="0" y="0" width="69" height="53"/>
</clipPath>
<g id="surface20" clip-path="url(#clip6)">
<path style=" stroke:none;fill-rule:nonzero;fill:rgb(0%,0%,0%);fill-opacity:1;" d="M 54.890625 24.566406 C 54.890625 24.566406 52.9375 23.066406 52.789062 23.617188 C 52.640625 24.164062 54.222656 25.414062 54.222656 25.414062 Z M 54.890625 24.566406 "/>
</g>
<mask id="mask6">
  <g filter="url(#alpha)">
<rect x="0" y="0" width="69" height="53" style="fill:rgb(0%,0%,0%);fill-opacity:0.101961;stroke:none;"/>
  </g>
</mask>
<clipPath id="clip7">
  <rect x="0" y="0" width="69" height="53"/>
</clipPath>
<g id="surface23" clip-path="url(#clip7)">
<path style=" stroke:none;fill-rule:nonzero;fill:rgb(0%,0%,0%);fill-opacity:1;" d="M 61.335938 19.816406 C 61.335938 19.816406 59.015625 24.015625 58.964844 24.613281 C 58.917969 25.214844 58.917969 25.265625 58.71875 25.214844 C 58.519531 25.164062 55.804688 24.863281 55.558594 24.964844 C 55.308594 25.066406 54.816406 24.367188 54.816406 24.367188 C 54.816406 24.367188 53.878906 25.316406 54.074219 25.515625 C 54.273438 25.714844 54.867188 25.816406 54.964844 26.066406 C 55.0625 26.316406 55.210938 26.566406 55.65625 26.515625 C 56.101562 26.464844 59.113281 27.3125 59.507812 27.164062 C 59.90625 27.015625 60.003906 26.765625 60.199219 26.765625 C 60.398438 26.765625 60.792969 26.566406 60.792969 26.515625 C 60.792969 26.464844 62.175781 23.816406 62.175781 23.816406 C 62.175781 23.816406 63.808594 20.214844 61.335938 19.816406 Z M 61.335938 19.816406 "/>
</g>
<mask id="mask7">
  <g filter="url(#alpha)">
<rect x="0" y="0" width="69" height="53" style="fill:rgb(0%,0%,0%);fill-opacity:0.101961;stroke:none;"/>
  </g>
</mask>
<clipPath id="clip8">
  <rect x="0" y="0" width="69" height="53"/>
</clipPath>
<g id="surface26" clip-path="url(#clip8)">
<path style=" stroke:none;fill-rule:nonzero;fill:rgb(0%,0%,0%);fill-opacity:1;" d="M 59.410156 18.617188 C 59.410156 18.617188 59.953125 20.566406 59.507812 21.117188 C 59.066406 21.667969 62.175781 20.867188 62.175781 20.867188 C 62.175781 20.867188 60.644531 19.316406 61.386719 18.316406 Z M 59.410156 18.617188 "/>
</g>
<mask id="mask8">
  <g filter="url(#alpha)">
<rect x="0" y="0" width="69" height="53" style="fill:rgb(0%,0%,0%);fill-opacity:0.101961;stroke:none;"/>
  </g>
</mask>
<clipPath id="clip9">
  <rect x="0" y="0" width="69" height="53"/>
</clipPath>
<g id="surface29" clip-path="url(#clip9)">
<path style=" stroke:none;fill-rule:nonzero;fill:rgb(0%,0%,0%);fill-opacity:1;" d="M 58.273438 30.464844 C 58.273438 30.464844 56.839844 33.710938 57.039062 36.660156 C 57.039062 36.660156 56.546875 37.8125 56.839844 39.609375 C 57.136719 41.410156 57.535156 45.007812 57.535156 45.007812 C 57.535156 45.007812 58.867188 45.160156 58.964844 44.910156 C 58.964844 44.910156 59.066406 42.410156 59.164062 42.308594 C 59.261719 42.210938 59.113281 39.910156 58.964844 39.460938 C 58.816406 39.011719 60.347656 34.5625 60.347656 34.5625 L 59.953125 29.015625 Z M 58.273438 30.464844 "/>
</g>
<mask id="mask9">
  <g filter="url(#alpha)">
<rect x="0" y="0" width="69" height="53" style="fill:rgb(0%,0%,0%);fill-opacity:0.101961;stroke:none;"/>
  </g>
</mask>
<clipPath id="clip10">
  <rect x="0" y="0" width="69" height="53"/>
</clipPath>
<g id="surface32" clip-path="url(#clip10)">
<path style=" stroke:none;fill-rule:nonzero;fill:rgb(0%,0%,0%);fill-opacity:1;" d="M 9.484375 45.308594 C 9.484375 45.308594 8.589844 47.59375 9.054688 47.867188 C 9.523438 48.144531 14.429688 47.949219 14.429688 47.949219 C 14.429688 47.949219 15.246094 47.4375 14.3125 47.082031 C 14.3125 47.082031 13.53125 47.042969 13.027344 46.726562 C 12.519531 46.410156 11.9375 45.820312 11.9375 45.820312 C 11.9375 45.820312 11.898438 44.953125 11.585938 45.152344 C 11.398438 45.277344 11.269531 45.476562 11.234375 45.703125 Z M 9.484375 45.308594 "/>
</g>
<mask id="mask10">
  <g filter="url(#alpha)">
<rect x="0" y="0" width="69" height="53" style="fill:rgb(0%,0%,0%);fill-opacity:0.101961;stroke:none;"/>
  </g>
</mask>
<clipPath id="clip11">
  <rect x="0" y="0" width="69" height="53"/>
</clipPath>
<g id="surface35" clip-path="url(#clip11)">
<path style=" stroke:none;fill-rule:nonzero;fill:rgb(0%,0%,0%);fill-opacity:1;" d="M 13.140625 30.113281 L 12.542969 35.554688 C 12.542969 35.554688 12.332031 38.148438 11.691406 38.707031 C 11.691406 38.707031 11.691406 39.527344 11.476562 39.789062 L 11.175781 43.199219 C 11.175781 43.199219 11.605469 44.453125 11.5625 44.667969 C 11.519531 44.886719 11.734375 45.574219 11.691406 45.664062 C 11.648438 45.75 9.640625 45.664062 9.640625 45.664062 L 10.066406 38.707031 L 11.390625 29.035156 Z M 13.140625 30.113281 "/>
</g>
</defs>
<g id="surface1">
<path style=" stroke:none;fill-rule:nonzero;fill:rgb(94.901961%,94.901961%,94.901961%);fill-opacity:1;" d="M 59.296875 21.136719 C 56.261719 9.070312 45.785156 0.359375 33.484375 0.0117188 C 26.980469 -0.175781 20.140625 2.007812 15.15625 9.644531 C 6.25 23.292969 15.703125 32.726562 22.292969 37.207031 C 25.480469 39.375 28.347656 41.984375 30.820312 44.957031 C 35.269531 50.304688 43.832031 56.945312 54.03125 46.539062 C 61.425781 38.996094 61.316406 29.171875 59.296875 21.136719 Z M 59.296875 21.136719 "/>
<use xlink:href="#surface5" mask="url(#mask0)"/>
<use xlink:href="#surface8" mask="url(#mask1)"/>
<use xlink:href="#surface11" mask="url(#mask2)"/>
<path style=" stroke:none;fill-rule:nonzero;fill:rgb(24.705882%,23.921569%,33.72549%);fill-opacity:1;" d="M 69 48.269531 C 69 49.332031 53.554688 53.019531 34.5 53.019531 C 15.445312 53.019531 0 49.332031 0 48.269531 C 0 47.207031 15.445312 49.167969 34.5 49.167969 C 53.554688 49.167969 69 47.207031 69 48.269531 Z M 69 48.269531 "/>
<use xlink:href="#surface14" mask="url(#mask3)"/>
<path style=" stroke:none;fill-rule:nonzero;fill:rgb(24.705882%,23.921569%,33.72549%);fill-opacity:1;" d="M 69 48.269531 C 69 47.207031 53.554688 46.347656 34.5 46.347656 C 15.445312 46.347656 0 47.207031 0 48.269531 C 0 49.332031 15.445312 50.195312 34.5 50.195312 C 53.554688 50.195312 69 49.332031 69 48.269531 Z M 69 48.269531 "/>
<path style=" stroke:none;fill-rule:nonzero;fill:rgb(24.705882%,23.921569%,33.72549%);fill-opacity:1;" d="M 40.125 39.007812 C 40.125 43.117188 42.671875 46.441406 45.820312 46.441406 "/>
<path style=" stroke:none;fill-rule:nonzero;fill:rgb(45.882353%,21.176471%,84.313725%);fill-opacity:1;" d="M 45.820312 46.441406 C 45.820312 42.285156 48.660156 38.925781 52.175781 38.925781 "/>
<path style=" stroke:none;fill-rule:nonzero;fill:rgb(45.882353%,21.176471%,84.313725%);fill-opacity:1;" d="M 42.1875 39.382812 C 42.1875 43.285156 43.8125 46.441406 45.820312 46.441406 "/>
<path style=" stroke:none;fill-rule:nonzero;fill:rgb(24.705882%,23.921569%,33.72549%);fill-opacity:1;" d="M 45.820312 46.441406 C 45.820312 41.132812 49.105469 36.839844 53.164062 36.839844 "/>
<path style=" stroke:none;fill-rule:nonzero;fill:rgb(65.882353%,65.882353%,65.882353%);fill-opacity:1;" d="M 44.621094 46.492188 C 44.621094 46.492188 45.429688 46.46875 45.671875 46.292969 C 45.914062 46.117188 46.914062 45.90625 46.976562 46.1875 C 47.035156 46.46875 48.1875 47.585938 47.277344 47.59375 C 46.363281 47.601562 45.160156 47.453125 44.914062 47.300781 C 44.671875 47.152344 44.621094 46.492188 44.621094 46.492188 Z M 44.621094 46.492188 "/>
<use xlink:href="#surface17" mask="url(#mask4)"/>
<path style=" stroke:none;fill-rule:nonzero;fill:rgb(100%,72.54902%,72.54902%);fill-opacity:1;" d="M 54.890625 24.566406 C 54.890625 24.566406 52.9375 23.066406 52.789062 23.617188 C 52.640625 24.164062 54.222656 25.414062 54.222656 25.414062 Z M 54.890625 24.566406 "/>
<use xlink:href="#surface20" mask="url(#mask5)"/>
<path style=" stroke:none;fill-rule:nonzero;fill:rgb(81.568627%,80.392157%,88.235294%);fill-opacity:1;" d="M 61.335938 19.816406 C 61.335938 19.816406 59.015625 24.015625 58.964844 24.613281 C 58.917969 25.214844 58.917969 25.265625 58.71875 25.214844 C 58.519531 25.164062 55.804688 24.863281 55.558594 24.964844 C 55.308594 25.066406 54.816406 24.367188 54.816406 24.367188 C 54.816406 24.367188 53.878906 25.316406 54.074219 25.515625 C 54.273438 25.714844 54.867188 25.816406 54.964844 26.066406 C 55.0625 26.316406 55.210938 26.566406 55.65625 26.515625 C 56.101562 26.464844 59.113281 27.3125 59.507812 27.164062 C 59.90625 27.015625 60.003906 26.765625 60.199219 26.765625 C 60.398438 26.765625 60.792969 26.566406 60.792969 26.515625 C 60.792969 26.464844 62.175781 23.816406 62.175781 23.816406 C 62.175781 23.816406 63.808594 20.214844 61.335938 19.816406 Z M 61.335938 19.816406 "/>
<use xlink:href="#surface23" mask="url(#mask6)"/>
<path style=" stroke:none;fill-rule:nonzero;fill:rgb(18.431373%,18.039216%,25.490196%);fill-opacity:1;" d="M 57.96875 17.046875 C 57.949219 17.3125 57.953125 17.582031 57.980469 17.847656 C 58.054688 18.421875 58.316406 19.019531 58.070312 19.554688 C 57.980469 19.75 57.828125 19.917969 57.746094 20.117188 C 57.570312 20.53125 57.730469 20.996094 57.707031 21.4375 C 57.675781 22.011719 57.316406 22.5625 56.765625 22.878906 C 57.703125 22.90625 58.59375 22.4375 59.183594 21.800781 C 59.773438 21.164062 60.101562 20.371094 60.347656 19.578125 C 60.472656 19.207031 60.554688 18.820312 60.585938 18.429688 C 60.605469 18.203125 60.582031 17.976562 60.511719 17.761719 C 60.425781 17.554688 60.3125 17.355469 60.171875 17.175781 C 60.023438 16.96875 59.875 16.753906 59.65625 16.597656 C 59.386719 16.40625 58.871094 16.210938 58.515625 16.238281 C 58.078125 16.273438 57.988281 16.742188 57.96875 17.046875 Z M 57.96875 17.046875 "/>
<path style=" stroke:none;fill-rule:nonzero;fill:rgb(100%,72.54902%,72.54902%);fill-opacity:1;" d="M 59.410156 18.617188 C 59.410156 18.617188 59.953125 20.566406 59.507812 21.117188 C 59.066406 21.667969 62.175781 20.867188 62.175781 20.867188 C 62.175781 20.867188 60.644531 19.316406 61.386719 18.316406 Z M 59.410156 18.617188 "/>
<use xlink:href="#surface26" mask="url(#mask7)"/>
<path style=" stroke:none;fill-rule:nonzero;fill:rgb(45.882353%,21.176471%,84.313725%);fill-opacity:1;" d="M 45.636719 31.335938 L 51.875 25.042969 L 45.636719 18.75 L 47.539062 16.828125 L 55.683594 25.042969 L 47.539062 33.257812 Z M 45.636719 31.335938 "/>
<path style=" stroke:none;fill-rule:nonzero;fill:rgb(100%,72.54902%,72.54902%);fill-opacity:1;" d="M 57.632812 44.609375 L 57.632812 46.058594 L 58.375 46.957031 L 59.015625 46.65625 L 58.816406 44.558594 Z M 57.632812 44.609375 "/>
<path style=" stroke:none;fill-rule:nonzero;fill:rgb(18.431373%,18.039216%,25.490196%);fill-opacity:1;" d="M 57.929688 45.957031 C 57.929688 45.957031 57.730469 45.257812 57.386719 45.757812 C 57.039062 46.257812 56.695312 47.359375 56.496094 47.40625 C 56.296875 47.457031 54.914062 49.007812 56.296875 49.007812 C 57.679688 49.007812 58.125 48.355469 58.125 48.355469 C 58.125 48.355469 59.507812 47.808594 59.507812 47.707031 C 59.507812 47.609375 59.3125 45.757812 59.214844 45.757812 C 59.113281 45.757812 59.066406 46.109375 58.816406 46.109375 C 58.570312 46.109375 57.929688 45.957031 57.929688 45.957031 Z M 57.929688 45.957031 "/>
<path style=" stroke:none;fill-rule:nonzero;fill:rgb(100%,72.54902%,72.54902%);fill-opacity:1;" d="M 60.941406 44.859375 L 60.894531 46.207031 L 62.078125 46.707031 L 62.078125 44.757812 Z M 60.941406 44.859375 "/>
<path style=" stroke:none;fill-rule:nonzero;fill:rgb(18.431373%,18.039216%,25.490196%);fill-opacity:1;" d="M 62.226562 46.207031 C 62.226562 46.207031 61.585938 45.507812 61.238281 45.660156 C 61.066406 45.726562 60.902344 45.8125 60.746094 45.90625 C 60.746094 45.90625 60.546875 46.558594 60.449219 47.109375 C 60.347656 47.65625 60.300781 47.90625 60.199219 48.109375 C 60.101562 48.308594 60.003906 49.058594 60.992188 49.15625 C 61.980469 49.257812 62.277344 48.707031 62.277344 48.707031 L 62.523438 47.40625 C 62.523438 47.40625 62.425781 46.207031 62.226562 46.207031 Z M 62.226562 46.207031 "/>
<path style=" stroke:none;fill-rule:nonzero;fill:rgb(18.431373%,18.039216%,25.490196%);fill-opacity:1;" d="M 58.273438 30.464844 C 58.273438 30.464844 56.839844 33.710938 57.039062 36.660156 C 57.039062 36.660156 56.546875 37.8125 56.839844 39.609375 C 57.136719 41.410156 57.535156 45.007812 57.535156 45.007812 C 57.535156 45.007812 58.867188 45.160156 58.964844 44.910156 C 58.964844 44.910156 59.066406 42.410156 59.164062 42.308594 C 59.261719 42.210938 59.113281 39.910156 58.964844 39.460938 C 58.816406 39.011719 60.347656 34.5625 60.347656 34.5625 L 59.953125 29.015625 Z M 58.273438 30.464844 "/>
<use xlink:href="#surface29" mask="url(#mask8)"/>
<path style=" stroke:none;fill-rule:nonzero;fill:rgb(18.431373%,18.039216%,25.490196%);fill-opacity:1;" d="M 57.878906 30.261719 L 58.816406 32.3125 C 58.816406 32.3125 59.261719 36.960938 59.507812 37.5625 C 59.507812 37.5625 59.609375 39.261719 60.054688 39.808594 C 60.496094 40.359375 60.84375 45.207031 60.84375 45.207031 C 60.84375 45.207031 62.078125 45.558594 62.175781 45.207031 C 62.277344 44.859375 62.574219 42.460938 62.574219 42.460938 C 62.574219 42.460938 62.671875 40.410156 62.128906 39.058594 C 61.585938 37.710938 62.769531 32.863281 62.769531 32.863281 C 62.769531 32.863281 64.003906 30.511719 62.226562 28.613281 Z M 57.878906 30.261719 "/>
<path style=" stroke:none;fill-rule:nonzero;fill:rgb(100%,72.54902%,72.54902%);fill-opacity:1;" d="M 62.523438 17.167969 C 62.523438 18.300781 61.617188 19.21875 60.496094 19.21875 C 59.378906 19.21875 58.472656 18.300781 58.472656 17.167969 C 58.472656 16.035156 59.378906 15.117188 60.496094 15.117188 C 61.617188 15.117188 62.523438 16.035156 62.523438 17.167969 Z M 62.523438 17.167969 "/>
<path style=" stroke:none;fill-rule:nonzero;fill:rgb(81.568627%,80.392157%,88.235294%);fill-opacity:1;" d="M 62.375 20.265625 C 62.375 20.265625 60.25 20.265625 59.953125 20.515625 C 59.800781 20.664062 59.5625 20.664062 59.410156 20.515625 C 59.410156 20.515625 58.667969 20.566406 58.472656 21.167969 C 58.273438 21.765625 57.679688 22.566406 57.679688 22.566406 C 57.679688 22.566406 56.792969 23.214844 57.285156 24.914062 C 57.78125 26.613281 57.386719 29.363281 57.386719 29.363281 C 57.386719 29.363281 56.988281 29.964844 57.386719 30.214844 C 57.78125 30.464844 57.929688 30.5625 57.878906 30.761719 C 57.828125 30.964844 62.375 29.113281 62.375 28.765625 C 62.375 28.414062 62.277344 28.113281 62.375 27.964844 C 62.472656 27.8125 62.574219 27.5625 62.472656 27.3125 C 62.375 27.0625 62.574219 27.015625 62.523438 26.765625 C 62.472656 26.515625 62.769531 24.664062 62.96875 23.867188 C 63.164062 23.066406 63.117188 20.316406 62.375 20.265625 Z M 62.375 20.265625 "/>
<path style=" stroke:none;fill-rule:nonzero;fill:rgb(100%,72.54902%,72.54902%);fill-opacity:1;" d="M 54.890625 25.164062 C 54.890625 25.164062 52.9375 23.664062 52.789062 24.214844 C 52.640625 24.765625 54.222656 26.015625 54.222656 26.015625 Z M 54.890625 25.164062 "/>
<path style=" stroke:none;fill-rule:nonzero;fill:rgb(81.568627%,80.392157%,88.235294%);fill-opacity:1;" d="M 61.335938 20.515625 C 61.335938 20.515625 59.015625 24.714844 58.964844 25.316406 C 58.917969 25.914062 58.917969 25.964844 58.71875 25.914062 C 58.519531 25.863281 55.804688 25.566406 55.558594 25.664062 C 55.308594 25.765625 54.816406 25.066406 54.816406 25.066406 C 54.816406 25.066406 53.878906 26.015625 54.074219 26.214844 C 54.273438 26.414062 54.867188 26.515625 54.964844 26.765625 C 55.0625 27.015625 55.210938 27.265625 55.65625 27.214844 C 56.101562 27.164062 59.113281 28.015625 59.507812 27.863281 C 59.90625 27.714844 60.003906 27.464844 60.199219 27.464844 C 60.398438 27.464844 60.792969 27.265625 60.792969 27.214844 C 60.792969 27.164062 62.175781 24.515625 62.175781 24.515625 C 62.175781 24.515625 63.808594 20.917969 61.335938 20.515625 Z M 61.335938 20.515625 "/>
<path style=" stroke:none;fill-rule:nonzero;fill:rgb(18.431373%,18.039216%,25.490196%);fill-opacity:1;" d="M 59.496094 18.476562 C 59.464844 18.273438 59.363281 18.089844 59.3125 17.890625 C 59.226562 17.570312 59.277344 17.230469 59.449219 16.949219 C 59.738281 16.472656 60.308594 16.265625 60.707031 15.875 C 60.714844 16.074219 60.851562 16.242188 61 16.371094 C 61.148438 16.496094 61.320312 16.597656 61.445312 16.75 C 61.566406 16.90625 61.65625 17.089844 61.707031 17.285156 C 61.785156 17.507812 61.820312 17.746094 61.808594 17.984375 C 61.796875 18.222656 61.691406 18.449219 61.511719 18.605469 C 61.363281 18.726562 61.15625 18.792969 61.082031 18.96875 C 61.054688 19.058594 61.046875 19.152344 61.058594 19.242188 C 61.09375 19.792969 61.125 20.351562 60.996094 20.886719 C 60.871094 21.425781 60.554688 21.941406 60.0625 22.179688 C 60.46875 22.207031 60.878906 22.234375 61.273438 22.132812 C 61.664062 22.03125 62.039062 21.769531 62.175781 21.382812 C 62.242188 21.191406 62.246094 20.980469 62.339844 20.804688 C 62.582031 20.351562 63.242188 20.332031 63.566406 19.941406 C 63.699219 19.785156 63.761719 19.582031 63.808594 19.382812 C 64.082031 18.210938 63.890625 16.964844 63.472656 15.839844 C 63.328125 15.449219 63.148438 15.058594 62.839844 14.785156 C 62.578125 14.554688 62.242188 14.425781 61.910156 14.316406 C 61.425781 14.15625 60.925781 14.023438 60.414062 14.007812 C 60.195312 13.996094 59.972656 14.019531 59.761719 14.085938 C 59.550781 14.164062 59.355469 14.273438 59.183594 14.417969 C 58.386719 15.046875 57.84375 16.050781 57.914062 17.070312 C 57.957031 17.6875 58.21875 18.269531 58.550781 18.792969 C 58.664062 18.972656 58.941406 19.359375 59.195312 19.246094 C 59.425781 19.140625 59.523438 18.695312 59.496094 18.476562 Z M 59.496094 18.476562 "/>
<path style=" stroke:none;fill-rule:nonzero;fill:rgb(45.882353%,21.176471%,84.313725%);fill-opacity:1;" d="M 27.816406 25.492188 L 30.351562 25.492188 L 30.351562 22.925781 L 27.816406 22.925781 Z M 40.550781 22.925781 L 38.011719 22.925781 L 38.011719 25.492188 L 40.550781 25.492188 Z M 32.914062 25.492188 L 35.453125 25.492188 L 35.453125 22.925781 L 32.914062 22.925781 Z M 32.914062 25.492188 "/>
<path style=" stroke:none;fill-rule:nonzero;fill:rgb(18.431373%,18.039216%,25.490196%);fill-opacity:1;" d="M 15.210938 13.59375 C 15.210938 12.664062 14.257812 11.90625 13.078125 11.90625 C 11.898438 11.90625 10.941406 12.664062 10.941406 13.59375 C 10.941406 14.523438 11.898438 15.277344 13.078125 15.277344 C 14.257812 15.277344 15.210938 14.523438 15.210938 13.59375 Z M 15.210938 13.59375 "/>
<path style=" stroke:none;fill-rule:nonzero;fill:rgb(62.745098%,38.039216%,41.568627%);fill-opacity:1;" d="M 13.441406 25.191406 C 13.441406 25.191406 15.359375 25.320312 15.703125 25.058594 C 16.042969 24.800781 17.496094 25.40625 17.625 25.75 C 17.75 26.097656 15.574219 26.140625 15.234375 26.140625 C 14.890625 26.140625 13.269531 26.65625 13.269531 26.65625 Z M 13.441406 25.191406 "/>
<path style=" stroke:none;fill-rule:nonzero;fill:rgb(18.431373%,18.039216%,25.490196%);fill-opacity:1;" d="M 9.484375 45.308594 C 9.484375 45.308594 8.589844 47.59375 9.054688 47.867188 C 9.523438 48.144531 14.429688 47.949219 14.429688 47.949219 C 14.429688 47.949219 15.246094 47.4375 14.3125 47.082031 C 14.3125 47.082031 13.53125 47.042969 13.027344 46.726562 C 12.519531 46.410156 11.9375 45.820312 11.9375 45.820312 C 11.9375 45.820312 11.898438 44.953125 11.585938 45.152344 C 11.398438 45.277344 11.269531 45.476562 11.234375 45.703125 Z M 9.484375 45.308594 "/>
<use xlink:href="#surface32" mask="url(#mask9)"/>
<path style=" stroke:none;fill-rule:nonzero;fill:rgb(45.882353%,21.176471%,84.313725%);fill-opacity:1;" d="M 24.378906 31.273438 L 18.132812 24.980469 L 24.371094 18.683594 L 22.46875 16.765625 L 14.332031 24.980469 L 22.476562 33.191406 Z M 24.378906 31.273438 "/>
<path style=" stroke:none;fill-rule:nonzero;fill:rgb(18.431373%,18.039216%,25.490196%);fill-opacity:1;" d="M 8.105469 46.007812 C 8.105469 46.007812 7.121094 48.511719 7.632812 48.816406 C 8.148438 49.117188 13.527344 48.902344 13.527344 48.902344 C 13.527344 48.902344 14.421875 48.339844 13.398438 47.953125 C 13.398438 47.953125 12.542969 47.910156 11.988281 47.5625 C 11.433594 47.21875 10.792969 46.570312 10.792969 46.570312 C 10.792969 46.570312 10.75 45.621094 10.410156 45.835938 C 10.203125 45.972656 10.0625 46.191406 10.023438 46.441406 Z M 8.105469 46.007812 "/>
<path style=" stroke:none;fill-rule:nonzero;fill:rgb(18.431373%,18.039216%,25.490196%);fill-opacity:1;" d="M 13.140625 30.113281 L 12.542969 35.554688 C 12.542969 35.554688 12.332031 38.148438 11.691406 38.707031 C 11.691406 38.707031 11.691406 39.527344 11.476562 39.789062 L 11.175781 43.199219 C 11.175781 43.199219 11.605469 44.453125 11.5625 44.667969 C 11.519531 44.886719 11.734375 45.574219 11.691406 45.664062 C 11.648438 45.75 9.640625 45.664062 9.640625 45.664062 L 10.066406 38.707031 L 11.390625 29.035156 Z M 13.140625 30.113281 "/>
<use xlink:href="#surface35" mask="url(#mask10)"/>
<path style=" stroke:none;fill-rule:nonzero;fill:rgb(18.431373%,18.039216%,25.490196%);fill-opacity:1;" d="M 12.074219 29.941406 C 12.074219 29.941406 11.605469 34.390625 11.390625 35.339844 C 11.257812 35.964844 11.171875 36.601562 11.136719 37.238281 C 11.136719 37.238281 11.09375 38.621094 10.707031 39.011719 C 10.480469 39.238281 10.355469 39.550781 10.367188 39.875 C 10.367188 39.875 9.980469 44.238281 10.195312 44.753906 C 10.410156 45.273438 10.621094 45.707031 10.410156 46.050781 C 10.195312 46.398438 7.847656 46.398438 7.847656 46.136719 C 7.847656 45.878906 7.847656 45.664062 7.71875 45.53125 C 7.589844 45.402344 7.71875 44.582031 7.71875 44.582031 C 7.71875 44.582031 7.207031 40.738281 7.675781 39.617188 C 8.148438 38.492188 8.359375 35.425781 8.359375 35.425781 C 8.359375 35.425781 8.019531 31.925781 7.589844 31.367188 C 7.164062 30.804688 7.675781 28.816406 7.675781 28.816406 Z M 12.074219 29.941406 "/>
<path style=" stroke:none;fill-rule:nonzero;fill:rgb(62.745098%,38.039216%,41.568627%);fill-opacity:1;" d="M 10.871094 16.125 C 10.921875 16.238281 11.039062 16.304688 11.148438 16.363281 C 11.777344 16.714844 12.300781 17.21875 12.816406 17.71875 C 12.6875 17.277344 12.714844 16.804688 12.894531 16.378906 C 12.957031 16.234375 13.039062 16.082031 12.992188 15.929688 C 12.960938 15.816406 12.867188 15.738281 12.777344 15.667969 C 12.566406 15.503906 12.34375 15.351562 12.117188 15.210938 C 11.957031 15.113281 11.628906 14.855469 11.445312 14.886719 C 11.433594 15.136719 11.429688 15.359375 11.320312 15.59375 C 11.296875 15.648438 10.890625 16.167969 10.871094 16.125 Z M 10.871094 16.125 "/>
<path style=" stroke:none;fill-rule:nonzero;fill:rgb(62.745098%,38.039216%,41.568627%);fill-opacity:1;" d="M 14.804688 14.910156 C 14.804688 15.886719 14.023438 16.679688 13.054688 16.679688 C 12.089844 16.679688 11.304688 15.886719 11.304688 14.910156 C 11.304688 13.933594 12.089844 13.140625 13.054688 13.140625 C 14.023438 13.140625 14.804688 13.933594 14.804688 14.910156 Z M 14.804688 14.910156 "/>
<path style=" stroke:none;fill-rule:nonzero;fill:rgb(34.117647%,35.294118%,53.72549%);fill-opacity:1;" d="M 13.140625 19.097656 C 13.140625 19.097656 13.441406 17.585938 12.585938 17.070312 C 11.734375 16.550781 10.75 15.945312 10.75 15.945312 C 10.75 15.945312 10.453125 15.902344 10.324219 16.550781 C 10.324219 16.550781 7.890625 17.027344 7.632812 19.359375 C 7.378906 21.691406 7.804688 25.101562 7.804688 25.101562 C 7.804688 25.101562 7.421875 28.082031 6.953125 29.679688 C 6.953125 29.679688 6.566406 30.027344 8.273438 29.507812 C 9.980469 28.992188 12.96875 30.976562 12.96875 30.976562 C 12.96875 30.976562 13.269531 30.675781 13.269531 30.457031 C 13.269531 30.242188 13.609375 28.992188 13.609375 28.992188 C 13.609375 28.992188 13.910156 23.679688 14.039062 23.074219 C 14.164062 22.46875 13.527344 19.1875 13.140625 19.097656 Z M 13.140625 19.097656 "/>
<path style=" stroke:none;fill-rule:nonzero;fill:rgb(18.431373%,18.039216%,25.490196%);fill-opacity:1;" d="M 12.644531 15.09375 C 12.75 15.035156 12.867188 15 12.988281 15 C 13.105469 14.996094 13.226562 14.960938 13.328125 14.898438 C 13.492188 14.769531 13.503906 14.519531 13.625 14.347656 C 13.800781 14.101562 14.148438 14.070312 14.449219 14.082031 C 14.636719 14.089844 14.832031 14.101562 14.988281 14 C 15.148438 13.898438 15.222656 13.703125 15.273438 13.519531 C 15.339844 13.300781 15.378906 13.035156 15.222656 12.875 C 15.113281 12.761719 14.941406 12.738281 14.816406 12.640625 C 14.691406 12.539062 14.640625 12.375 14.570312 12.226562 C 14.492188 12.046875 14.371094 11.890625 14.214844 11.773438 C 13.984375 11.613281 13.691406 11.574219 13.414062 11.578125 C 13.132812 11.582031 12.855469 11.617188 12.578125 11.582031 C 12.351562 11.554688 12.125 11.480469 11.898438 11.511719 C 11.609375 11.554688 11.371094 11.777344 11.226562 12.035156 C 11.085938 12.289062 11.023438 12.585938 10.964844 12.875 L 10.804688 13.660156 C 10.753906 13.902344 10.707031 14.152344 10.742188 14.398438 C 10.824219 14.90625 11.269531 15.3125 11.300781 15.828125 C 11.359375 15.539062 11.558594 15.300781 11.828125 15.191406 C 11.863281 15.171875 11.898438 15.167969 11.9375 15.175781 C 11.980469 15.191406 12.007812 15.234375 12.035156 15.273438 C 12.109375 15.371094 12.335938 15.519531 12.46875 15.453125 C 12.585938 15.390625 12.496094 15.191406 12.644531 15.09375 Z M 12.644531 15.09375 "/>
<path style=" stroke:none;fill-rule:nonzero;fill:rgb(62.745098%,38.039216%,41.568627%);fill-opacity:1;" d="M 8.230469 23.160156 C 8.230469 23.160156 7.933594 25.058594 9.171875 24.886719 C 9.171875 24.886719 9.8125 24.800781 9.898438 24.886719 C 9.980469 24.972656 13.140625 24.410156 13.566406 23.9375 C 13.566406 23.9375 14.082031 23.765625 14.335938 24.023438 C 14.59375 24.28125 17.152344 24.542969 16.386719 23.765625 C 15.617188 22.988281 14.421875 22.8125 14.421875 22.8125 L 12.800781 22.898438 C 12.800781 22.898438 11.945312 23.160156 11.433594 22.898438 C 10.921875 22.640625 9.46875 22.726562 9.46875 22.726562 Z M 8.230469 23.160156 "/>
<path style=" stroke:none;fill-rule:nonzero;fill:rgb(34.117647%,35.294118%,53.72549%);fill-opacity:1;" d="M 9.980469 17.15625 C 9.980469 17.15625 8.0625 17.371094 8.0625 20.179688 L 8.0625 23.765625 C 8.0625 23.765625 9.128906 23.289062 9.34375 23.332031 C 9.554688 23.375 10.410156 22.769531 10.410156 22.769531 C 10.410156 22.769531 11.390625 20.4375 11.304688 19.789062 C 11.21875 19.144531 11.261719 17.242188 9.980469 17.15625 Z M 9.980469 17.15625 "/>
<path style=" stroke:none;fill-rule:nonzero;fill:rgb(18.431373%,18.039216%,25.490196%);fill-opacity:1;" d="M 14.699219 13.808594 C 14.699219 13.332031 13.964844 12.945312 13.054688 12.945312 C 12.148438 12.945312 11.414062 13.332031 11.414062 13.808594 C 11.414062 14.285156 12.148438 14.671875 13.054688 14.671875 C 13.964844 14.671875 14.699219 14.285156 14.699219 13.808594 Z M 14.699219 13.808594 "/>
<path style=" stroke:none;fill-rule:nonzero;fill:rgb(18.431373%,18.039216%,25.490196%);fill-opacity:1;" d="M 12.09375 13.960938 C 12.09375 13.160156 11.835938 12.511719 11.519531 12.511719 C 11.199219 12.511719 10.941406 13.160156 10.941406 13.960938 C 10.941406 14.757812 11.199219 15.40625 11.519531 15.40625 C 11.835938 15.40625 12.09375 14.757812 12.09375 13.960938 Z M 12.09375 13.960938 "/>
</g>
</svg>
