<?xml version="1.0" encoding="UTF-8"?>
<svg xmlns="http://www.w3.org/2000/svg" xmlns:xlink="http://www.w3.org/1999/xlink" width="130pt" height="130pt" viewBox="0 0 130 130" version="1.1">
<defs>
<filter id="alpha" filterUnits="objectBoundingBox" x="0%" y="0%" width="100%" height="100%">
  <feColorMatrix type="matrix" in="SourceGraphic" values="0 0 0 0 1 0 0 0 0 1 0 0 0 0 1 0 0 0 1 0"/>
</filter>
<mask id="mask0">
  <g filter="url(#alpha)">
<rect x="0" y="0" width="130" height="130" style="fill:rgb(0%,0%,0%);fill-opacity:0.101961;stroke:none;"/>
  </g>
</mask>
<clipPath id="clip1">
  <rect x="0" y="0" width="130" height="130"/>
</clipPath>
<g id="surface5" clip-path="url(#clip1)">
<path style=" stroke:none;fill-rule:nonzero;fill:rgb(45.882353%,21.176471%,84.313725%);fill-opacity:1;" d="M 126.824219 75.363281 C 126.824219 75.460938 126.824219 75.558594 126.824219 75.65625 C 126.8125 77.359375 126.726562 79.058594 126.578125 80.753906 C 126.578125 80.765625 126.578125 80.773438 126.578125 80.785156 C 126.566406 80.925781 126.550781 81.066406 126.539062 81.207031 C 126.515625 81.445312 126.492188 81.679688 126.464844 81.917969 C 126.15625 84.816406 125.648438 87.671875 124.941406 90.464844 C 123.996094 94.234375 122.65625 97.839844 120.960938 101.195312 C 120.4375 102.21875 119.882812 103.210938 119.292969 104.171875 C 118.976562 104.679688 118.65625 105.175781 118.324219 105.664062 C 118.09375 106.007812 117.855469 106.34375 117.613281 106.675781 L 117.460938 106.878906 C 116.191406 108.589844 114.820312 110.183594 113.363281 111.648438 C 110.984375 114.066406 108.417969 116.167969 105.816406 118.117188 C 105.667969 118.226562 105.519531 118.335938 105.367188 118.4375 C 105.359375 118.449219 105.347656 118.457031 105.335938 118.464844 C 101.796875 121.082031 98.125 123.445312 94.347656 125.339844 C 90.207031 127.417969 85.933594 128.925781 81.546875 129.585938 C 75.433594 130.507812 69.246094 129.757812 63.171875 128.472656 C 58.121094 127.410156 53.128906 125.949219 48.226562 124.101562 L 47.421875 123.792969 C 47.003906 123.628906 46.585938 123.464844 46.167969 123.292969 C 43.648438 122.273438 41.160156 121.140625 38.695312 119.894531 C 32.511719 116.777344 26.605469 112.894531 21.066406 108.304688 C 20.359375 107.722656 19.664062 107.128906 18.980469 106.523438 C 18.019531 105.679688 17.074219 104.8125 16.140625 103.917969 L 15.5625 103.371094 C 13.117188 101.027344 10.828125 98.449219 8.710938 95.664062 C 5.863281 91.875 3.433594 87.597656 1.835938 82.714844 C 1.582031 81.945312 1.351562 81.164062 1.140625 80.367188 L 1.121094 80.289062 C 1.015625 79.882812 0.917969 79.480469 0.828125 79.058594 C 0.695312 78.457031 0.578125 77.847656 0.480469 77.230469 C 0.457031 77.109375 0.441406 76.992188 0.421875 76.875 C 0.105469 74.796875 -0.03125 72.683594 0.0078125 70.570312 C 0.0390625 68.71875 0.21875 66.875 0.535156 65.066406 C 0.863281 63.191406 1.363281 61.367188 2.035156 59.632812 C 2.640625 58.070312 3.410156 56.617188 4.324219 55.304688 C 4.96875 54.386719 5.695312 53.558594 6.484375 52.832031 C 7.921875 51.527344 9.511719 50.613281 11.160156 49.894531 C 11.933594 49.554688 12.722656 49.257812 13.511719 48.980469 C 14.070312 48.78125 14.632812 48.59375 15.191406 48.410156 L 16.84375 47.863281 C 17.898438 47.511719 18.957031 47.148438 20 46.757812 C 22.839844 45.695312 25.625 44.410156 28.199219 42.492188 C 28.605469 42.1875 29.023438 41.855469 29.4375 41.5 C 29.964844 41.050781 30.488281 40.5625 31.003906 40.035156 C 31.523438 39.5 32.035156 38.929688 32.519531 38.324219 C 32.597656 38.230469 32.671875 38.136719 32.746094 38.039062 C 33.140625 37.527344 33.527344 36.992188 33.882812 36.4375 C 34.058594 36.164062 34.226562 35.886719 34.386719 35.605469 C 34.613281 35.214844 34.824219 34.816406 35.019531 34.410156 C 36 32.371094 36.605469 30.121094 36.535156 27.75 C 36.523438 27.359375 36.496094 26.96875 36.449219 26.582031 C 36.277344 25.152344 36.113281 23.757812 35.988281 22.390625 C 35.480469 16.746094 35.695312 11.628906 39.15625 6.816406 C 43.460938 0.839844 50.214844 -0.378906 56.363281 0.0976562 C 74.136719 1.472656 90.320312 13.898438 104.539062 28.6875 C 105.769531 29.964844 106.984375 31.261719 108.183594 32.574219 C 108.488281 32.902344 108.789062 33.234375 109.09375 33.570312 C 111.339844 36.046875 113.554688 38.621094 115.617188 41.375 C 115.785156 41.597656 115.949219 41.820312 116.113281 42.046875 C 116.214844 42.183594 116.316406 42.320312 116.414062 42.460938 C 117.058594 43.351562 117.683594 44.265625 118.285156 45.199219 C 119.90625 47.675781 121.335938 50.332031 122.5625 53.132812 C 124.433594 57.523438 125.703125 62.265625 126.3125 67.164062 C 126.542969 68.941406 126.695312 70.734375 126.769531 72.53125 C 126.789062 73.0625 126.804688 73.59375 126.8125 74.121094 C 126.8125 74.292969 126.8125 74.460938 126.8125 74.632812 C 126.824219 74.878906 126.824219 75.117188 126.824219 75.363281 Z M 126.824219 75.363281 "/>
</g>
<mask id="mask1">
  <g filter="url(#alpha)">
<rect x="0" y="0" width="130" height="130" style="fill:rgb(0%,0%,0%);fill-opacity:0.101961;stroke:none;"/>
  </g>
</mask>
<clipPath id="clip2">
  <rect x="0" y="0" width="130" height="130"/>
</clipPath>
<g id="surface8" clip-path="url(#clip2)">
<path style=" stroke:none;fill-rule:nonzero;fill:rgb(0%,0%,0%);fill-opacity:1;" d="M 42.648438 44.121094 C 42.648438 38.578125 39.921875 34.082031 36.5625 34.082031 C 33.203125 34.082031 30.480469 38.578125 30.480469 44.121094 C 30.480469 49.664062 33.203125 54.15625 36.5625 54.15625 C 39.921875 54.15625 42.648438 49.664062 42.648438 44.121094 Z M 42.648438 44.121094 "/>
</g>
<mask id="mask2">
  <g filter="url(#alpha)">
<rect x="0" y="0" width="130" height="130" style="fill:rgb(0%,0%,0%);fill-opacity:0.0392157;stroke:none;"/>
  </g>
</mask>
<clipPath id="clip3">
  <rect x="0" y="0" width="130" height="130"/>
</clipPath>
<g id="surface11" clip-path="url(#clip3)">
<path style=" stroke:none;fill-rule:nonzero;fill:rgb(0%,0%,0%);fill-opacity:1;" d="M 9.714844 48.769531 C 9.398438 49.179688 9.109375 49.617188 8.773438 50 C 8.480469 50.324219 8.171875 50.625 7.847656 50.90625 C 7.332031 51.382812 6.824219 51.875 6.328125 52.382812 C 5.8125 52.882812 5.34375 53.453125 4.933594 54.085938 C 4.226562 55.246094 3.894531 56.691406 3.230469 57.890625 C 2.648438 58.953125 1.824219 59.796875 1.230469 60.851562 C 0.96875 61.292969 0.777344 61.792969 0.660156 62.320312 C 0.570312 62.828125 0.53125 63.351562 0.539062 63.871094 C 0.527344 64.726562 0.519531 65.589844 0.660156 66.429688 C 0.804688 67.265625 1.117188 68.085938 1.65625 68.636719 C 2.152344 69.144531 2.796875 69.378906 3.429688 69.574219 C 3.753906 69.675781 4.105469 69.765625 4.414062 69.609375 C 4.640625 69.46875 4.835938 69.265625 4.988281 69.015625 L 6.597656 66.75 C 7.675781 65.226562 8.792969 63.675781 10.269531 62.785156 C 10.734375 62.507812 11.222656 62.296875 11.683594 62.027344 C 13.652344 60.867188 15.042969 58.492188 15.585938 55.902344 C 15.714844 55.269531 15.800781 54.621094 15.886719 53.976562 L 16.121094 52.207031 C 16.136719 52.117188 16.136719 52.023438 16.121094 51.933594 C 16.082031 51.835938 16.023438 51.75 15.949219 51.6875 C 14.828125 50.582031 13.78125 49.367188 12.8125 48.0625 C 12.582031 47.75 12.363281 47.324219 12.097656 47.066406 C 11.765625 46.742188 11.792969 46.765625 11.390625 47.066406 C 10.773438 47.542969 10.210938 48.117188 9.714844 48.769531 Z M 9.714844 48.769531 "/>
</g>
<mask id="mask3">
  <g filter="url(#alpha)">
<rect x="0" y="0" width="130" height="130" style="fill:rgb(0%,0%,0%);fill-opacity:0.0392157;stroke:none;"/>
  </g>
</mask>
<clipPath id="clip4">
  <rect x="0" y="0" width="130" height="130"/>
</clipPath>
<g id="surface14" clip-path="url(#clip4)">
<path style=" stroke:none;fill-rule:nonzero;fill:rgb(0%,0%,0%);fill-opacity:1;" d="M 7.960938 59.898438 C 8.242188 60.171875 8.488281 60.496094 8.777344 60.761719 C 9.085938 61.019531 9.410156 61.246094 9.753906 61.429688 L 11.054688 62.195312 C 11.460938 62.453125 11.882812 62.664062 12.320312 62.824219 C 12.878906 63.007812 13.460938 63.023438 14.023438 63.195312 C 14.730469 63.410156 15.378906 63.855469 16.074219 64.109375 C 16.773438 64.367188 17.585938 64.410156 18.167969 63.875 C 18.535156 63.539062 18.808594 62.984375 19.257812 62.902344 C 19.550781 62.855469 19.832031 63.027344 20.089844 63.195312 L 23.484375 65.378906 C 23.941406 65.671875 24.425781 66 24.664062 66.5625 C 24.902344 67.125 24.742188 67.976562 24.238281 68.121094 C 24.0625 68.148438 23.886719 68.160156 23.710938 68.160156 C 23.535156 68.1875 23.34375 68.3125 23.320312 68.527344 C 23.320312 68.660156 23.347656 68.792969 23.402344 68.90625 C 23.554688 69.335938 23.601562 69.847656 23.421875 70.261719 C 23.246094 70.675781 22.8125 70.933594 22.464844 70.746094 C 22.523438 71.375 21.964844 71.8125 21.46875 71.980469 C 20.21875 72.398438 18.894531 72.140625 17.613281 71.875 C 17.113281 71.773438 16.601562 71.664062 16.144531 71.390625 C 15.925781 71.257812 15.71875 71.089844 15.5 70.96875 C 14.886719 70.636719 14.195312 70.679688 13.527344 70.695312 C 10.445312 70.761719 7.390625 70.0625 4.359375 69.367188 C 3.796875 69.238281 3.21875 69.097656 2.738281 68.71875 C 1.8125 67.980469 1.46875 66.464844 1.621094 65.125 C 1.773438 63.785156 2.328125 62.570312 2.875 61.390625 L 3.582031 59.863281 C 3.675781 59.632812 3.804688 59.421875 3.964844 59.25 C 5.003906 58.277344 7.070312 59.019531 7.960938 59.898438 Z M 7.960938 59.898438 "/>
</g>
<mask id="mask4">
  <g filter="url(#alpha)">
<rect x="0" y="0" width="130" height="130" style="fill:rgb(0%,0%,0%);fill-opacity:0.101961;stroke:none;"/>
  </g>
</mask>
<clipPath id="clip5">
  <rect x="0" y="0" width="130" height="130"/>
</clipPath>
<g id="surface17" clip-path="url(#clip5)">
<path style=" stroke:none;fill-rule:nonzero;fill:rgb(0%,0%,0%);fill-opacity:1;" d="M 44.464844 42.011719 C 44.246094 41.773438 44.191406 41.410156 44 41.144531 C 43.605469 40.582031 42.800781 40.65625 42.148438 40.769531 C 41.011719 40.96875 39.636719 41.011719 38.929688 40.042969 C 38.625 39.625 38.488281 39.070312 38.117188 38.722656 C 37.246094 37.914062 35.75 38.742188 34.789062 38.058594 C 33.953125 37.460938 34.007812 36.074219 33.308594 35.304688 C 32.609375 34.535156 31.402344 34.636719 30.453125 35.019531 C 30.292969 35.109375 30.113281 35.136719 29.941406 35.09375 C 29.640625 34.960938 29.660156 34.503906 29.734375 34.167969 C 30.097656 32.542969 30.464844 30.898438 31.164062 29.402344 C 31.421875 28.855469 31.722656 28.332031 31.886719 27.746094 C 32.171875 26.71875 32.027344 25.558594 32.402344 24.585938 C 32 24.910156 31.609375 25.261719 31.359375 25.71875 C 30.796875 26.746094 31.015625 28.054688 30.699219 29.199219 C 30.535156 29.785156 30.234375 30.308594 29.976562 30.855469 C 29.277344 32.351562 28.90625 33.996094 28.546875 35.621094 C 28.472656 35.957031 28.453125 36.414062 28.753906 36.542969 C 28.925781 36.589844 29.105469 36.5625 29.265625 36.472656 C 30.214844 36.089844 31.417969 35.980469 32.121094 36.757812 C 32.824219 37.535156 32.765625 38.917969 33.601562 39.511719 C 34.5625 40.195312 36.058594 39.367188 36.929688 40.175781 C 37.300781 40.523438 37.4375 41.078125 37.742188 41.496094 C 38.453125 42.464844 39.824219 42.417969 40.960938 42.222656 C 41.613281 42.109375 42.414062 42.035156 42.8125 42.59375 C 43.003906 42.859375 43.058594 43.226562 43.277344 43.464844 C 43.675781 43.898438 44.402344 43.679688 44.789062 43.234375 C 45.035156 42.917969 45.25 42.5625 45.421875 42.175781 C 45.078125 42.300781 44.710938 42.28125 44.464844 42.011719 Z M 44.464844 42.011719 "/>
<path style=" stroke:none;fill-rule:nonzero;fill:rgb(0%,0%,0%);fill-opacity:1;" d="M 46.875 40.230469 C 46.789062 40.367188 46.710938 40.507812 46.636719 40.652344 C 47.148438 40.207031 47.683594 39.792969 48.0625 39.226562 C 48.164062 39.082031 48.25 38.925781 48.328125 38.761719 C 47.800781 39.226562 47.25 39.652344 46.875 40.230469 Z M 46.875 40.230469 "/>
</g>
<mask id="mask5">
  <g filter="url(#alpha)">
<rect x="0" y="0" width="130" height="130" style="fill:rgb(0%,0%,0%);fill-opacity:0.0509804;stroke:none;"/>
  </g>
</mask>
<clipPath id="clip6">
  <rect x="0" y="0" width="130" height="130"/>
</clipPath>
<g id="surface20" clip-path="url(#clip6)">
<path style=" stroke:none;fill-rule:nonzero;fill:rgb(0%,0%,0%);fill-opacity:1;" d="M 100.214844 41.96875 C 98.941406 42.679688 97.976562 44.054688 97.328125 45.578125 C 96.679688 47.101562 96.316406 48.773438 95.960938 50.4375 C 95.582031 52.1875 95.203125 53.945312 95.003906 55.738281 C 94.65625 58.933594 94.917969 62.289062 96.117188 65.15625 C 97.316406 68.023438 99.527344 70.335938 102.121094 70.886719 C 103.121094 71.101562 104.152344 71.058594 105.164062 70.933594 C 106.992188 70.695312 108.792969 70.207031 110.53125 69.484375 C 112.351562 68.730469 114.242188 67.570312 115.054688 65.433594 C 115.523438 64.195312 115.5625 62.785156 115.539062 61.421875 C 115.476562 57.707031 115.019531 54.015625 114.175781 50.449219 C 113.933594 49.410156 113.648438 48.367188 113.128906 47.496094 C 112.609375 46.621094 111.902344 45.984375 111.179688 45.390625 C 108.085938 42.839844 104.019531 39.851562 100.214844 41.96875 Z M 100.214844 41.96875 "/>
</g>
<mask id="mask6">
  <g filter="url(#alpha)">
<rect x="0" y="0" width="130" height="130" style="fill:rgb(0%,0%,0%);fill-opacity:0.101961;stroke:none;"/>
  </g>
</mask>
<clipPath id="clip7">
  <rect x="0" y="0" width="130" height="130"/>
</clipPath>
<g id="surface23" clip-path="url(#clip7)">
<path style=" stroke:none;fill-rule:nonzero;fill:rgb(0%,0%,0%);fill-opacity:1;" d="M 117.523438 91.417969 C 117.523438 91.566406 117.515625 91.710938 117.507812 91.859375 C 117.484375 92.570312 117.433594 93.277344 117.347656 93.980469 C 117.238281 94.941406 117.046875 95.882812 116.777344 96.796875 C 116.597656 97.394531 116.367188 97.96875 116.09375 98.511719 C 115.851562 98.996094 115.566406 99.445312 115.246094 99.851562 C 114.453125 100.863281 113.308594 101.183594 112.203125 101.609375 C 111.695312 101.789062 111.203125 102.035156 110.738281 102.34375 C 110.652344 102.402344 110.570312 102.460938 110.492188 102.527344 L 109.109375 103.648438 C 108.675781 103.996094 108.238281 104.359375 107.941406 104.875 C 107.890625 104.960938 107.847656 105.054688 107.808594 105.148438 C 107.621094 105.625 107.484375 106.125 107.402344 106.644531 C 106.683594 110.3125 105.960938 113.984375 105.46875 117.707031 C 105.433594 117.953125 105.402344 118.203125 105.367188 118.449219 L 105.355469 118.527344 C 105.351562 118.507812 105.34375 118.492188 105.335938 118.472656 C 101.796875 121.09375 98.125 123.457031 94.347656 125.347656 L 93.523438 116.929688 C 93.4375 116.246094 93.410156 115.554688 93.441406 114.863281 C 93.519531 113.773438 93.878906 112.738281 93.976562 111.652344 C 94.070312 110.589844 93.90625 109.515625 93.507812 108.566406 C 93.351562 108.195312 93.15625 107.832031 93.117188 107.421875 C 93.082031 107.007812 93.277344 106.628906 93.617188 106.589844 C 93.878906 106.230469 93.902344 105.738281 93.824219 105.253906 C 93.78125 105 93.71875 104.75 93.636719 104.511719 C 93.414062 103.835938 93.128906 103.101562 93.324219 102.410156 C 93.375 102.285156 93.394531 102.144531 93.386719 102.003906 C 93.390625 101.996094 93.390625 101.988281 93.386719 101.976562 C 93.34375 101.796875 93.167969 101.71875 93.078125 101.5625 C 92.90625 101.277344 93.078125 100.886719 93.183594 100.554688 C 93.285156 100.203125 93.34375 99.832031 93.359375 99.453125 C 93.375 99.246094 93.382812 99.035156 93.402344 98.828125 C 93.429688 98.546875 93.46875 98.269531 93.527344 97.996094 C 93.847656 96.445312 94.621094 95.089844 95.699219 94.1875 C 96.214844 93.761719 96.785156 93.453125 97.3125 93.054688 C 97.847656 92.609375 98.363281 92.125 98.847656 91.597656 C 100.011719 90.410156 101.222656 89.289062 102.480469 88.238281 C 103.832031 87.109375 105.234375 86.070312 106.675781 85.121094 C 106.984375 84.917969 107.292969 84.71875 107.601562 84.527344 C 107.9375 84.308594 108.273438 84.105469 108.617188 83.914062 C 109.707031 83.277344 110.941406 83.515625 112.148438 83.9375 C 112.652344 84.113281 113.148438 84.324219 113.632812 84.515625 C 114.101562 84.703125 114.554688 84.953125 114.980469 85.257812 C 116.046875 86.023438 116.929688 87.160156 117.296875 88.589844 C 117.296875 88.597656 117.296875 88.609375 117.296875 88.617188 C 117.527344 89.515625 117.542969 90.476562 117.523438 91.417969 Z M 117.523438 91.417969 "/>
</g>
<mask id="mask7">
  <g filter="url(#alpha)">
<rect x="0" y="0" width="130" height="130" style="fill:rgb(0%,0%,0%);fill-opacity:0.101961;stroke:none;"/>
  </g>
</mask>
<clipPath id="clip8">
  <rect x="0" y="0" width="130" height="130"/>
</clipPath>
<g id="surface26" clip-path="url(#clip8)">
<path style=" stroke:none;fill-rule:nonzero;fill:rgb(0%,0%,0%);fill-opacity:1;" d="M 114.828125 67.335938 C 110.042969 67.449219 105.160156 67.542969 100.597656 65.789062 C 101.03125 67.859375 101 70.035156 100.507812 72.082031 L 122.875 74.347656 C 123.824219 74.445312 127.753906 74.988281 128.679688 74.714844 C 129.601562 74.441406 120.921875 70.941406 121.273438 69.859375 C 122.238281 66.875 125.464844 65.125 123.140625 65.015625 C 120.203125 64.871094 117.785156 67.269531 114.828125 67.335938 Z M 114.828125 67.335938 "/>
</g>
<mask id="mask8">
  <g filter="url(#alpha)">
<rect x="0" y="0" width="130" height="130" style="fill:rgb(0%,0%,0%);fill-opacity:0.0705882;stroke:none;"/>
  </g>
</mask>
<clipPath id="clip9">
  <rect x="0" y="0" width="130" height="130"/>
</clipPath>
<g id="surface29" clip-path="url(#clip9)">
<path style=" stroke:none;fill-rule:nonzero;fill:rgb(0%,0%,0%);fill-opacity:1;" d="M 102.339844 62.542969 C 102.675781 62.847656 102.972656 63.207031 103.222656 63.617188 C 103.476562 64.03125 103.578125 64.554688 103.5 65.0625 C 103.414062 64.097656 103.867188 63.183594 104.601562 62.824219 Z M 102.339844 62.542969 "/>
</g>
<mask id="mask9">
  <g filter="url(#alpha)">
<rect x="0" y="0" width="130" height="130" style="fill:rgb(0%,0%,0%);fill-opacity:0.101961;stroke:none;"/>
  </g>
</mask>
<clipPath id="clip10">
  <rect x="0" y="0" width="130" height="130"/>
</clipPath>
<g id="surface32" clip-path="url(#clip10)">
<path style=" stroke:none;fill-rule:nonzero;fill:rgb(0%,0%,0%);fill-opacity:1;" d="M 109.671875 20.085938 C 109.519531 19.582031 109.339844 19.085938 109.136719 18.605469 C 109.007812 18.636719 108.875 18.675781 108.75 18.726562 C 108.976562 19.1875 109.183594 19.667969 109.363281 20.15625 C 109.464844 20.125 109.566406 20.101562 109.671875 20.085938 Z M 109.671875 20.085938 "/>
<path style=" stroke:none;fill-rule:nonzero;fill:rgb(0%,0%,0%);fill-opacity:1;" d="M 117.347656 26.472656 C 117.382812 26.507812 117.417969 26.546875 117.449219 26.585938 C 117.449219 26.574219 117.445312 26.5625 117.441406 26.554688 C 117.410156 26.527344 117.378906 26.5 117.347656 26.472656 Z M 117.347656 26.472656 "/>
<path style=" stroke:none;fill-rule:nonzero;fill:rgb(0%,0%,0%);fill-opacity:1;" d="M 105.050781 27.183594 C 105.121094 27.117188 105.183594 27.046875 105.257812 26.984375 L 105.238281 26.214844 L 103.824219 26.195312 C 103.597656 26.453125 103.351562 26.824219 103.488281 27.167969 Z M 105.050781 27.183594 "/>
<path style=" stroke:none;fill-rule:nonzero;fill:rgb(0%,0%,0%);fill-opacity:1;" d="M 120.492188 40.128906 C 120.242188 40.703125 119.878906 41.238281 119.382812 41.46875 C 119.003906 41.648438 118.582031 41.632812 118.171875 41.609375 C 116.777344 41.539062 115.363281 41.464844 114.042969 40.898438 C 113.429688 40.632812 112.839844 40.261719 112.191406 40.097656 C 111.4375 39.910156 110.65625 40.015625 109.890625 40.125 L 106.515625 40.613281 C 105.519531 40.753906 104.410156 40.863281 103.613281 40.113281 C 103.160156 39.6875 102.867188 39.019531 102.367188 38.679688 C 102.15625 38.53125 101.90625 38.4375 101.773438 38.191406 C 101.6875 38.007812 101.640625 37.800781 101.640625 37.589844 C 101.628906 37.421875 101.621094 37.25 101.617188 37.082031 C 101.601562 37.574219 101.609375 38.070312 101.640625 38.5625 C 101.640625 38.773438 101.6875 38.980469 101.773438 39.164062 C 101.902344 39.40625 102.15625 39.5 102.367188 39.648438 C 102.867188 39.992188 103.160156 40.65625 103.613281 41.085938 C 104.410156 41.832031 105.519531 41.734375 106.515625 41.582031 L 109.890625 41.097656 C 110.65625 40.988281 111.4375 40.878906 112.191406 41.070312 C 112.832031 41.234375 113.421875 41.605469 114.042969 41.871094 C 115.367188 42.433594 116.777344 42.519531 118.171875 42.582031 C 118.582031 42.601562 119.003906 42.621094 119.382812 42.441406 C 119.878906 42.210938 120.242188 41.671875 120.492188 41.101562 C 120.980469 39.992188 121.117188 38.734375 121.066406 37.464844 C 121.035156 38.394531 120.84375 39.304688 120.492188 40.128906 Z M 120.492188 40.128906 "/>
</g>
<mask id="mask10">
  <g filter="url(#alpha)">
<rect x="0" y="0" width="130" height="130" style="fill:rgb(0%,0%,0%);fill-opacity:0.101961;stroke:none;"/>
  </g>
</mask>
<clipPath id="clip11">
  <rect x="0" y="0" width="130" height="130"/>
</clipPath>
<g id="surface35" clip-path="url(#clip11)">
<path style=" stroke:none;fill-rule:nonzero;fill:rgb(0%,0%,0%);fill-opacity:1;" d="M 109.636719 21.128906 L 111.488281 23.234375 C 111.488281 23.234375 109.898438 22.421875 109.636719 21.128906 Z M 109.636719 21.128906 "/>
</g>
</defs>
<g id="surface1">
<use xlink:href="#surface5" mask="url(#mask0)"/>
<path style=" stroke:none;fill-rule:nonzero;fill:rgb(24.705882%,23.921569%,33.72549%);fill-opacity:1;" d="M 52.101562 72.648438 L 49.988281 118.753906 L 52.101562 118.789062 L 53.824219 72 Z M 52.101562 72.648438 "/>
<path style=" stroke:none;fill-rule:nonzero;fill:rgb(45.882353%,21.176471%,84.313725%);fill-opacity:1;" d="M 18.117188 96.007812 L 44.300781 96.007812 L 44.300781 102.96875 L 18.117188 102.96875 Z M 18.117188 96.007812 "/>
<path style=" stroke:none;fill-rule:nonzero;fill:rgb(24.705882%,23.921569%,33.72549%);fill-opacity:1;" d="M 46.019531 102.15625 L 46.019531 106.527344 L 18.972656 106.527344 C 18.011719 105.683594 17.066406 104.816406 16.132812 103.921875 L 16.132812 102.15625 Z M 46.019531 102.15625 "/>
<path style=" stroke:none;fill-rule:nonzero;fill:rgb(20.784314%,19.607843%,24.313725%);fill-opacity:1;" d="M 51.421875 92.210938 C 51.347656 92.628906 51.25 93.042969 51.148438 93.457031 C 50.847656 94.648438 50.488281 95.824219 50.417969 97.066406 C 50.324219 98.703125 50.679688 100.609375 49.753906 101.800781 C 49.519531 102.109375 49.207031 102.335938 48.992188 102.664062 C 48.960938 102.71875 48.929688 102.773438 48.902344 102.828125 C 48.714844 103.214844 48.691406 103.683594 48.6875 104.121094 C 48.691406 105.0625 48.742188 106 48.839844 106.933594 C 49.152344 110.136719 49.769531 113.347656 48.957031 116.375 C 48.808594 116.898438 48.636719 117.414062 48.441406 117.914062 C 48.046875 118.984375 47.613281 120.039062 47.484375 121.195312 C 47.386719 122.050781 47.417969 122.9375 47.414062 123.808594 C 46.996094 123.644531 46.578125 123.480469 46.160156 123.3125 C 43.640625 122.289062 41.148438 121.15625 38.6875 119.910156 C 38.695312 119.867188 38.699219 119.820312 38.707031 119.777344 C 38.894531 118.335938 38.636719 116.863281 38.320312 115.457031 C 37.660156 112.480469 36.722656 109.535156 36.167969 106.535156 C 35.945312 105.363281 35.800781 104.171875 35.730469 102.972656 C 35.714844 102.703125 35.707031 102.433594 35.707031 102.164062 C 35.699219 101.8125 35.707031 101.457031 35.71875 101.101562 C 35.746094 100.390625 35.769531 99.546875 35.304688 99.117188 C 35.050781 98.882812 34.714844 98.839844 34.417969 98.699219 C 33.84375 98.425781 33.449219 97.789062 32.996094 97.28125 C 32.554688 96.757812 31.929688 96.535156 31.328125 96.683594 C 28.355469 97.515625 26.171875 100.601562 23.40625 102.164062 C 23.296875 102.226562 23.191406 102.285156 23.082031 102.339844 C 22.726562 102.5 22.382812 102.710938 22.066406 102.972656 C 21.847656 103.164062 21.683594 103.441406 21.613281 103.757812 C 21.542969 104.101562 21.605469 104.460938 21.636719 104.8125 C 21.695312 105.386719 21.675781 105.96875 21.578125 106.535156 C 21.542969 106.753906 21.496094 106.972656 21.4375 107.183594 C 21.332031 107.566406 21.191406 107.941406 21.054688 108.316406 C 20.351562 107.734375 19.65625 107.140625 18.96875 106.535156 C 18.011719 105.691406 17.066406 104.824219 16.132812 103.929688 L 15.5625 103.371094 C 13.117188 101.027344 10.828125 98.449219 8.710938 95.664062 C 8.992188 94.695312 9.398438 93.792969 9.597656 92.796875 C 9.707031 92.222656 9.746094 91.628906 9.902344 91.074219 C 10.078125 90.5 10.324219 89.957031 10.632812 89.472656 C 11.757812 87.550781 13.128906 85.871094 14.695312 84.492188 C 16.335938 83.054688 18.226562 81.902344 19.703125 80.269531 C 20.300781 79.628906 20.816406 78.878906 21.234375 78.050781 C 21.257812 78 21.28125 77.945312 21.300781 77.886719 C 21.417969 77.59375 21.496094 77.285156 21.539062 76.960938 C 21.644531 76.238281 21.628906 75.441406 21.683594 74.746094 C 23.476562 75.125 25.308594 75.191406 27.121094 74.945312 C 29.230469 74.65625 31.292969 73.9375 33.402344 73.660156 C 33.5625 73.636719 33.722656 73.621094 33.882812 73.601562 C 34.558594 73.535156 35.234375 73.523438 35.914062 73.53125 C 36.480469 73.53125 37.046875 73.5625 37.617188 73.585938 L 43.863281 73.84375 C 44.554688 73.875 45.257812 73.90625 45.902344 74.214844 C 46.667969 74.582031 47.28125 75.3125 47.769531 76.117188 C 47.832031 76.222656 47.894531 76.324219 47.953125 76.433594 C 48.355469 77.152344 48.679688 77.9375 48.914062 78.761719 C 48.941406 78.847656 48.964844 78.925781 48.988281 79.015625 C 49.046875 79.242188 49.097656 79.46875 49.144531 79.699219 C 49.179688 79.878906 49.210938 80.058594 49.242188 80.238281 C 49.386719 81.136719 49.472656 82.050781 49.703125 82.917969 C 49.71875 82.980469 49.734375 83.042969 49.753906 83.105469 C 50.03125 84.054688 50.488281 84.90625 50.835938 85.816406 C 51.085938 86.476562 51.277344 87.167969 51.40625 87.878906 C 51.664062 89.304688 51.667969 90.78125 51.421875 92.210938 Z M 51.421875 92.210938 "/>
<path style=" stroke:none;fill-rule:nonzero;fill:rgb(45.882353%,21.176471%,84.313725%);fill-opacity:1;" d="M 32.433594 34.273438 C 31.878906 33.730469 31.066406 34.128906 30.414062 34.476562 C 29.867188 34.773438 29.304688 35.023438 28.726562 35.226562 C 28.609375 35.28125 28.480469 35.296875 28.355469 35.273438 C 28.09375 35.195312 27.980469 34.808594 27.785156 34.578125 C 27.441406 34.175781 26.878906 34.269531 26.4375 34.488281 C 25.996094 34.707031 25.5625 35.023438 25.085938 34.972656 C 24.582031 34.925781 24.144531 34.46875 23.632812 34.453125 C 22.734375 34.429688 21.976562 35.785156 21.128906 35.425781 C 20.609375 35.207031 20.203125 34.382812 19.691406 34.617188 C 19.296875 34.800781 19.257812 35.472656 19.019531 35.910156 C 18.738281 36.421875 18.1875 36.566406 17.71875 36.792969 C 16.238281 37.507812 15.261719 39.527344 15.453125 41.460938 C 15.558594 42.527344 15.980469 43.503906 16.261719 44.523438 C 17.089844 47.484375 16.804688 50.824219 17.847656 53.679688 C 17.980469 53.527344 18.054688 53.472656 18.183594 53.320312 C 17.851562 54.160156 17.789062 55.117188 18.003906 56.007812 C 18.113281 56.457031 18.292969 56.875 18.425781 57.3125 C 18.566406 57.804688 18.679688 58.308594 18.765625 58.820312 L 19.917969 65.03125 C 20.367188 67.460938 20.816406 69.890625 20.894531 72.375 C 20.945312 73.992188 20.84375 75.609375 20.59375 77.199219 C 22.679688 76.777344 24.585938 75.644531 26.695312 75.660156 C 27.472656 75.660156 28.242188 75.824219 29.007812 75.953125 C 31.25 76.335938 33.507812 76.523438 35.769531 76.515625 C 36.121094 76.539062 36.476562 76.476562 36.808594 76.335938 C 37.097656 76.183594 37.335938 75.914062 37.613281 75.71875 C 38.148438 75.328125 38.800781 75.230469 39.421875 75.230469 C 42.25 75.167969 44.976562 76.4375 47.785156 76.882812 C 48.894531 74.03125 48.960938 70.617188 48.109375 67.636719 C 47.859375 66.75 47.519531 65.886719 47.417969 64.957031 C 47.378906 64.382812 47.367188 63.808594 47.386719 63.234375 C 47.382812 61.765625 47.164062 60.308594 46.746094 58.933594 C 46.582031 58.394531 46.386719 57.84375 46.402344 57.269531 C 46.421875 56.695312 46.652344 56.160156 46.878906 55.652344 C 47.339844 54.613281 47.804688 53.570312 48.457031 52.695312 C 49.125 51.792969 49.960938 51.101562 50.789062 50.429688 L 52.828125 48.75 C 52.550781 46.59375 52.1875 44.320312 51.441406 42.335938 C 50.695312 40.351562 49.578125 38.527344 48.066406 37.363281 C 47.554688 36.988281 47.023438 36.664062 46.46875 36.394531 C 45.699219 35.996094 44.894531 35.644531 44.058594 35.585938 C 43.105469 35.519531 42.167969 35.832031 41.226562 36.023438 C 38.265625 36.632812 34.785156 36.558594 32.433594 34.273438 Z M 32.433594 34.273438 "/>
<path style=" stroke:none;fill-rule:nonzero;fill:rgb(24.705882%,23.921569%,33.72549%);fill-opacity:1;" d="M 54.75 71.722656 L 53.777344 73.222656 L 51.945312 76.050781 L 49.832031 79.320312 L 49.238281 80.234375 L 48.09375 80.234375 L 19.699219 80.273438 L 1.921875 80.296875 L 1.125 80.296875 C 1.019531 79.890625 0.921875 79.488281 0.832031 79.066406 C 0.699219 78.464844 0.585938 77.855469 0.484375 77.238281 C 0.464844 77.121094 0.445312 77 0.429688 76.882812 L 6.878906 71.71875 L 9.304688 71.703125 L 16.722656 71.652344 L 20.867188 71.621094 L 22.097656 71.621094 L 24.859375 71.605469 L 45.90625 71.457031 L 46.984375 71.449219 L 47.449219 71.449219 L 48.6875 71.441406 L 53.285156 71.40625 L 54.171875 70.996094 L 54.234375 71.082031 Z M 54.75 71.722656 "/>
<path style=" stroke:none;fill-rule:nonzero;fill:rgb(31.372549%,30.980392%,37.647059%);fill-opacity:1;" d="M 54.351562 70.914062 L 54.242188 71.074219 L 53.519531 72.113281 L 52.03125 74.261719 L 48.914062 78.761719 L 21.300781 77.898438 L 0.480469 77.253906 C 0.457031 77.132812 0.441406 77.015625 0.421875 76.894531 C 0.105469 74.816406 -0.03125 72.707031 0.0078125 70.59375 L 2.316406 69.144531 L 2.84375 68.8125 L 6.960938 66.222656 L 10.574219 63.957031 L 20 65.453125 L 22.085938 65.785156 L 23.03125 65.9375 L 24.410156 66.15625 L 24.527344 66.175781 L 46.199219 69.617188 L 48.59375 69.996094 L 50 70.21875 L 54.332031 70.910156 Z M 54.351562 70.914062 "/>
<path style=" stroke:none;fill-rule:nonzero;fill:rgb(24.705882%,23.921569%,33.72549%);fill-opacity:1;" d="M 49.855469 78.683594 L 49.832031 79.320312 L 49.699219 82.910156 L 48.988281 102.664062 L 48.839844 106.933594 L 48.441406 117.914062 L 48.21875 124.117188 L 47.410156 123.808594 C 46.992188 123.644531 46.574219 123.480469 46.160156 123.3125 L 48.09375 80.246094 L 48.132812 79.34375 L 48.984375 79.019531 Z M 49.855469 78.683594 "/>
<path style=" stroke:none;fill-rule:nonzero;fill:rgb(24.705882%,23.921569%,33.72549%);fill-opacity:1;" d="M 1.980469 78.636719 L 1.921875 80.300781 L 1.835938 82.726562 C 1.582031 81.960938 1.351562 81.179688 1.140625 80.382812 L 1.121094 80.300781 C 1.015625 79.898438 0.917969 79.492188 0.828125 79.070312 Z M 1.980469 78.636719 "/>
<path style=" stroke:none;fill-rule:nonzero;fill:rgb(63.137255%,38.039216%,41.568627%);fill-opacity:1;" d="M 42.648438 44.121094 C 42.648438 38.578125 39.921875 34.082031 36.5625 34.082031 C 33.203125 34.082031 30.480469 38.578125 30.480469 44.121094 C 30.480469 49.664062 33.203125 54.15625 36.5625 54.15625 C 39.921875 54.15625 42.648438 49.664062 42.648438 44.121094 Z M 42.648438 44.121094 "/>
<use xlink:href="#surface8" mask="url(#mask1)"/>
<path style=" stroke:none;fill-rule:nonzero;fill:rgb(63.137255%,38.039216%,41.568627%);fill-opacity:1;" d="M 45.886719 38.050781 C 45.886719 43.773438 42.097656 48.410156 37.421875 48.410156 C 32.75 48.410156 28.960938 43.773438 28.960938 38.050781 C 28.960938 32.328125 32.75 27.6875 37.421875 27.6875 C 42.097656 27.6875 45.886719 32.328125 45.886719 38.050781 Z M 45.886719 38.050781 "/>
<path style=" stroke:none;fill-rule:nonzero;fill:rgb(27.45098%,26.27451%,32.54902%);fill-opacity:1;" d="M 37.589844 22.082031 C 37.074219 22.132812 36.5625 22.226562 36.054688 22.367188 C 34.71875 22.765625 33.5625 23.648438 32.433594 24.515625 C 31.929688 24.90625 31.410156 25.3125 31.09375 25.886719 C 30.53125 26.914062 30.75 28.222656 30.433594 29.363281 C 30.269531 29.949219 29.96875 30.476562 29.714844 31.023438 C 29.011719 32.519531 28.644531 34.160156 28.28125 35.789062 C 28.207031 36.125 28.1875 36.582031 28.488281 36.710938 C 28.660156 36.753906 28.839844 36.730469 29 36.640625 C 29.949219 36.257812 31.152344 36.144531 31.855469 36.925781 C 32.5625 37.703125 32.5 39.085938 33.339844 39.675781 C 34.296875 40.363281 35.792969 39.535156 36.664062 40.34375 C 37.039062 40.6875 37.171875 41.242188 37.476562 41.660156 C 38.1875 42.632812 39.558594 42.585938 40.695312 42.390625 C 41.351562 42.277344 42.152344 42.199219 42.546875 42.761719 C 42.738281 43.027344 42.792969 43.390625 43.015625 43.632812 C 43.410156 44.066406 44.136719 43.84375 44.523438 43.398438 C 44.910156 42.953125 45.097656 42.351562 45.417969 41.851562 C 46.046875 40.882812 47.152344 40.351562 47.800781 39.390625 C 48.34375 38.582031 48.507812 37.570312 48.652344 36.589844 L 49.207031 32.964844 C 49.429688 31.496094 49.632812 29.890625 48.957031 28.59375 C 48.714844 28.128906 48.371094 27.726562 48.164062 27.246094 C 48.023438 26.921875 47.945312 26.578125 47.785156 26.273438 C 47.59375 25.953125 47.367188 25.671875 47.105469 25.433594 L 45.800781 24.113281 C 45.355469 23.632812 44.878906 23.199219 44.375 22.816406 C 42.511719 21.488281 39.722656 21.835938 37.589844 22.082031 Z M 37.589844 22.082031 "/>
<path style=" stroke:none;fill-rule:nonzero;fill:rgb(63.137255%,38.039216%,41.568627%);fill-opacity:1;" d="M 9.714844 48.769531 C 9.398438 49.179688 9.109375 49.617188 8.773438 50 C 8.480469 50.324219 8.171875 50.625 7.847656 50.90625 C 7.332031 51.382812 6.824219 51.875 6.328125 52.382812 C 5.8125 52.882812 5.34375 53.453125 4.933594 54.085938 C 4.226562 55.246094 3.894531 56.691406 3.230469 57.890625 C 2.648438 58.953125 1.824219 59.796875 1.230469 60.851562 C 0.96875 61.292969 0.777344 61.792969 0.660156 62.320312 C 0.570312 62.828125 0.53125 63.351562 0.539062 63.871094 C 0.527344 64.726562 0.519531 65.589844 0.660156 66.429688 C 0.804688 67.265625 1.117188 68.085938 1.65625 68.636719 C 2.152344 69.144531 2.796875 69.378906 3.429688 69.574219 C 3.753906 69.675781 4.105469 69.765625 4.414062 69.609375 C 4.640625 69.46875 4.835938 69.265625 4.988281 69.015625 L 6.597656 66.75 C 7.675781 65.226562 8.792969 63.675781 10.269531 62.785156 C 10.734375 62.507812 11.222656 62.296875 11.683594 62.027344 C 13.652344 60.867188 15.042969 58.492188 15.585938 55.902344 C 15.714844 55.269531 15.800781 54.621094 15.886719 53.976562 L 16.121094 52.207031 C 16.136719 52.117188 16.136719 52.023438 16.121094 51.933594 C 16.082031 51.835938 16.023438 51.75 15.949219 51.6875 C 14.828125 50.582031 13.78125 49.367188 12.8125 48.0625 C 12.582031 47.75 12.363281 47.324219 12.097656 47.066406 C 11.765625 46.742188 11.792969 46.765625 11.390625 47.066406 C 10.773438 47.542969 10.210938 48.117188 9.714844 48.769531 Z M 9.714844 48.769531 "/>
<path style=" stroke:none;fill-rule:nonzero;fill:rgb(24.705882%,23.921569%,33.72549%);fill-opacity:1;" d="M 20.722656 60.554688 C 20.6875 60.453125 20.609375 60.382812 20.515625 60.375 C 20.425781 60.363281 20.335938 60.417969 20.289062 60.511719 C 20.238281 60.605469 20.234375 60.722656 20.277344 60.820312 L 20.144531 60.902344 L 24.085938 70.796875 L 24.800781 70.371094 L 20.855469 60.46875 Z M 20.722656 60.554688 "/>
<use xlink:href="#surface11" mask="url(#mask2)"/>
<path style=" stroke:none;fill-rule:nonzero;fill:rgb(63.137255%,38.039216%,41.568627%);fill-opacity:1;" d="M 55.304688 67.003906 C 55.292969 68.039062 55.257812 69.101562 54.90625 70.042969 C 54.757812 70.453125 54.523438 70.855469 54.171875 70.988281 C 53.960938 71.046875 53.742188 71.058594 53.527344 71.015625 C 50.929688 70.738281 48.316406 70.992188 45.789062 71.769531 C 46.464844 70.117188 46.078125 68.136719 46.265625 66.304688 C 46.316406 65.804688 46.410156 65.3125 46.445312 64.8125 C 46.578125 63.03125 45.953125 61.300781 45.667969 59.542969 C 45.421875 58.019531 45.421875 56.453125 45.667969 54.933594 C 45.71875 54.539062 45.828125 54.164062 45.992188 53.824219 C 46.1875 53.492188 46.441406 53.21875 46.738281 53.03125 C 47.808594 52.285156 49.070312 52.199219 50.273438 52.296875 C 51.085938 52.363281 52.710938 52.269531 53.386719 52.878906 C 54.125 53.550781 54.359375 55.792969 54.558594 56.832031 C 54.859375 58.425781 55.0625 60.039062 55.167969 61.667969 C 55.296875 63.441406 55.324219 65.226562 55.304688 67.003906 Z M 55.304688 67.003906 "/>
<path style=" stroke:none;fill-rule:nonzero;fill:rgb(100%,100%,100%);fill-opacity:1;" d="M 7.933594 70.589844 L 12.691406 74.476562 L 34.117188 73.503906 L 19.96875 70.589844 Z M 7.933594 70.589844 "/>
<path style=" stroke:none;fill-rule:nonzero;fill:rgb(45.882353%,21.176471%,84.313725%);fill-opacity:1;" d="M 14.210938 39.71875 C 13.429688 40.5625 12.765625 41.554688 12.023438 42.453125 C 11.007812 43.6875 9.855469 44.738281 8.707031 45.78125 C 9.542969 46.070312 10.195312 46.875 10.425781 47.902344 C 10.476562 48.140625 10.5 48.386719 10.558594 48.621094 C 10.691406 49.171875 10.980469 49.648438 11.292969 50.078125 C 12.632812 51.929688 14.511719 53.296875 15.300781 55.582031 C 15.328125 55.695312 15.382812 55.789062 15.460938 55.859375 C 15.523438 55.894531 15.59375 55.902344 15.664062 55.886719 C 16.378906 55.792969 16.929688 55.089844 17.382812 54.402344 C 18.335938 52.945312 19.164062 51.335938 19.632812 49.558594 C 20.101562 47.78125 20.175781 45.816406 19.664062 44.054688 C 19.410156 43.175781 19.015625 42.371094 18.625 41.574219 C 18.28125 40.875 17.941406 40.175781 17.597656 39.480469 C 17.417969 39.113281 17.191406 38.367188 16.84375 38.1875 C 16.085938 37.789062 14.695312 39.125 14.210938 39.71875 Z M 14.210938 39.71875 "/>
<path style=" stroke:none;fill-rule:nonzero;fill:rgb(45.882353%,21.176471%,84.313725%);fill-opacity:1;" d="M 53.164062 50.183594 L 54.289062 53.417969 C 51.800781 52.355469 49.050781 52.824219 46.894531 54.675781 C 46.253906 55.234375 45.664062 55.941406 45.375 56.839844 C 45.082031 56.90625 44.785156 56.765625 44.609375 56.472656 C 44.441406 56.179688 44.34375 55.835938 44.328125 55.480469 C 44.222656 54.238281 44.605469 53.019531 44.988281 51.855469 C 45.164062 51.3125 45.347656 50.757812 45.664062 50.316406 C 45.976562 49.871094 46.394531 49.582031 46.8125 49.304688 C 48.144531 48.402344 49.542969 47.648438 50.984375 47.050781 C 51.59375 46.808594 52.230469 46.8125 52.574219 47.507812 C 52.96875 48.339844 52.851562 49.296875 53.164062 50.183594 Z M 53.164062 50.183594 "/>
<path style=" stroke:none;fill-rule:nonzero;fill:rgb(63.137255%,38.039216%,41.568627%);fill-opacity:1;" d="M 7.960938 59.898438 C 8.242188 60.171875 8.488281 60.496094 8.777344 60.761719 C 9.085938 61.019531 9.410156 61.246094 9.753906 61.429688 L 11.054688 62.195312 C 11.460938 62.453125 11.882812 62.664062 12.320312 62.824219 C 12.878906 63.007812 13.460938 63.023438 14.023438 63.195312 C 14.730469 63.410156 15.378906 63.855469 16.074219 64.109375 C 16.773438 64.367188 17.585938 64.410156 18.167969 63.875 C 18.535156 63.539062 18.808594 62.984375 19.257812 62.902344 C 19.550781 62.855469 19.832031 63.027344 20.089844 63.195312 L 23.484375 65.378906 C 23.941406 65.671875 24.425781 66 24.664062 66.5625 C 24.902344 67.125 24.742188 67.976562 24.238281 68.121094 C 24.0625 68.148438 23.886719 68.160156 23.710938 68.160156 C 23.535156 68.1875 23.34375 68.3125 23.320312 68.527344 C 23.320312 68.660156 23.347656 68.792969 23.402344 68.90625 C 23.554688 69.335938 23.601562 69.847656 23.421875 70.261719 C 23.246094 70.675781 22.8125 70.933594 22.464844 70.746094 C 22.523438 71.375 21.964844 71.8125 21.46875 71.980469 C 20.21875 72.398438 18.894531 72.140625 17.613281 71.875 C 17.113281 71.773438 16.601562 71.664062 16.144531 71.390625 C 15.925781 71.257812 15.71875 71.089844 15.5 70.96875 C 14.886719 70.636719 14.195312 70.679688 13.527344 70.695312 C 10.445312 70.761719 7.390625 70.0625 4.359375 69.367188 C 3.796875 69.238281 3.21875 69.097656 2.738281 68.71875 C 1.8125 67.980469 1.46875 66.464844 1.621094 65.125 C 1.773438 63.785156 2.328125 62.570312 2.875 61.390625 L 3.582031 59.863281 C 3.675781 59.632812 3.804688 59.421875 3.964844 59.25 C 5.003906 58.277344 7.070312 59.019531 7.960938 59.898438 Z M 7.960938 59.898438 "/>
<use xlink:href="#surface14" mask="url(#mask3)"/>
<path style=" stroke:none;fill-rule:nonzero;fill:rgb(63.137255%,38.039216%,41.568627%);fill-opacity:1;" d="M 48.332031 62.695312 C 47.640625 63.09375 46.851562 63.132812 46.128906 63.4375 C 45.410156 63.742188 44.800781 64.292969 44.140625 64.742188 C 42.421875 65.917969 40.4375 66.363281 38.488281 66.785156 C 37.308594 67.042969 36.109375 67.300781 34.917969 67.242188 C 33.308594 67.15625 31.761719 66.5 30.199219 66.003906 C 28.640625 65.507812 26.976562 65.175781 25.429688 65.730469 C 23.792969 66.34375 22.488281 67.871094 21.925781 69.847656 C 21.601562 71.011719 21.554688 72.265625 21.617188 73.496094 C 21.941406 73.789062 22.398438 73.382812 22.574219 72.9375 C 22.753906 72.492188 22.847656 71.945312 23.191406 71.6875 C 23.789062 71.933594 23.933594 72.90625 24.425781 73.386719 C 24.734375 73.6875 25.144531 73.769531 25.53125 73.835938 L 27.542969 74.1875 C 28.027344 74.269531 28.589844 74.328125 28.941406 73.910156 C 29.109375 73.707031 29.203125 73.421875 29.359375 73.207031 C 29.679688 72.773438 30.214844 72.699219 30.691406 72.757812 C 32.175781 72.9375 33.570312 74.117188 35.046875 73.835938 C 35.554688 73.742188 36.027344 73.476562 36.511719 73.269531 C 39.378906 72.027344 42.566406 72.78125 45.550781 72.070312 C 46.691406 71.800781 47.785156 71.320312 48.871094 70.816406 C 49.457031 70.542969 50.054688 70.257812 50.554688 69.792969 C 51.523438 68.882812 52.042969 67.425781 51.925781 65.9375 C 51.816406 64.824219 51.359375 63.800781 50.65625 63.082031 C 50.421875 62.839844 50.117188 62.375 49.835938 62.222656 C 49.304688 61.9375 48.78125 62.433594 48.332031 62.695312 Z M 48.332031 62.695312 "/>
<use xlink:href="#surface17" mask="url(#mask4)"/>
<path style=" stroke:none;fill-rule:nonzero;fill:rgb(24.705882%,23.921569%,33.72549%);fill-opacity:1;" d="M 73.59375 72.289062 L 73.988281 118.753906 L 75.839844 118.429688 L 75.445312 72.289062 Z M 73.59375 72.289062 "/>
<path style=" stroke:none;fill-rule:nonzero;fill:rgb(24.705882%,23.921569%,33.72549%);fill-opacity:1;" d="M 84.703125 80.707031 L 85.097656 127.171875 L 86.949219 126.847656 L 86.554688 80.707031 Z M 84.703125 80.707031 "/>
<path style=" stroke:none;fill-rule:nonzero;fill:rgb(24.705882%,23.921569%,33.72549%);fill-opacity:1;" d="M 119.289062 104.179688 L 119.28125 103.289062 L 119.28125 102.757812 L 119.210938 94.585938 L 119.101562 81.808594 L 119.082031 80.707031 L 117.230469 80.707031 L 117.242188 81.765625 L 117.300781 88.609375 L 117.324219 91.574219 L 117.34375 93.972656 L 117.378906 98.121094 L 117.402344 100.566406 L 117.402344 100.824219 L 117.429688 104.039062 L 117.453125 106.875 L 117.601562 106.671875 C 117.84375 106.339844 118.082031 106.003906 118.316406 105.660156 Z M 119.289062 104.179688 "/>
<path style=" stroke:none;fill-rule:nonzero;fill:rgb(45.882353%,21.176471%,84.313725%);fill-opacity:1;" d="M 82.652344 88.238281 L 81.59375 90.171875 L 82.652344 98.996094 L 91.644531 102.007812 L 106.191406 102.007812 L 114.921875 102.652344 L 119.078125 99.167969 L 118.359375 93.1875 L 115.1875 88.238281 Z M 82.652344 88.238281 "/>
<path style=" stroke:none;fill-rule:nonzero;fill:rgb(24.705882%,23.921569%,33.72549%);fill-opacity:1;" d="M 81.59375 90.171875 L 81.066406 95.550781 C 81.066406 95.550781 78.289062 106.09375 100.636719 105.449219 C 122.988281 104.804688 119.152344 102.652344 119.152344 102.652344 L 119.019531 96.410156 C 119.019531 96.410156 119.800781 99.363281 108.441406 98.964844 C 97.082031 98.566406 86.488281 97.273438 86.488281 97.273438 C 86.488281 97.273438 82.519531 98.132812 81.59375 90.171875 Z M 81.59375 90.171875 "/>
<path style=" stroke:none;fill-rule:nonzero;fill:rgb(98.431373%,74.509804%,74.509804%);fill-opacity:1;" d="M 100.214844 41.96875 C 98.941406 42.679688 97.976562 44.054688 97.328125 45.578125 C 96.679688 47.101562 96.316406 48.773438 95.960938 50.4375 C 95.582031 52.1875 95.203125 53.945312 95.003906 55.738281 C 94.65625 58.933594 94.917969 62.289062 96.117188 65.15625 C 97.316406 68.023438 99.527344 70.335938 102.121094 70.886719 C 103.121094 71.101562 104.152344 71.058594 105.164062 70.933594 C 106.992188 70.695312 108.792969 70.207031 110.53125 69.484375 C 112.351562 68.730469 114.242188 67.570312 115.054688 65.433594 C 115.523438 64.195312 115.5625 62.785156 115.539062 61.421875 C 115.476562 57.707031 115.019531 54.015625 114.175781 50.449219 C 113.933594 49.410156 113.648438 48.367188 113.128906 47.496094 C 112.609375 46.621094 111.902344 45.984375 111.179688 45.390625 C 108.085938 42.839844 104.019531 39.851562 100.214844 41.96875 Z M 100.214844 41.96875 "/>
<use xlink:href="#surface20" mask="url(#mask5)"/>
<path style=" stroke:none;fill-rule:nonzero;fill:rgb(45.882353%,21.176471%,84.313725%);fill-opacity:1;" d="M 98.78125 62.34375 C 99.152344 62.964844 99.597656 63.511719 100.105469 63.964844 C 101.363281 65.027344 102.980469 65.171875 104.507812 65.230469 C 105.738281 65.277344 107.144531 65.191406 107.914062 64.019531 C 108.257812 63.492188 108.414062 62.816406 108.554688 62.160156 C 109.421875 58.136719 110.035156 54.035156 110.394531 49.894531 L 113.894531 49.910156 C 115.410156 57.855469 115.289062 66.113281 115.15625 74.269531 L 114.964844 86.164062 L 112.707031 85.871094 C 107.351562 85.179688 101.984375 84.484375 96.597656 84.363281 C 93.441406 84.292969 90.285156 84.421875 87.140625 84.746094 L 92.050781 66.863281 C 92.691406 64.539062 93.335938 62.183594 93.484375 59.738281 C 93.699219 56.195312 92.886719 52.453125 94.011719 49.175781 C 94.101562 48.914062 94.214844 48.640625 94.421875 48.5 C 94.625 48.363281 94.886719 48.398438 95.121094 48.433594 C 95.566406 48.507812 96.921875 48.433594 97.246094 48.78125 C 97.722656 49.289062 97.40625 49.363281 97.238281 50.179688 C 96.9375 51.636719 96.65625 52.984375 96.660156 54.503906 C 96.664062 57.261719 97.359375 60.171875 98.78125 62.34375 Z M 98.78125 62.34375 "/>
<path style=" stroke:none;fill-rule:nonzero;fill:rgb(27.45098%,26.27451%,32.54902%);fill-opacity:1;" d="M 119.289062 104.179688 C 119.878906 103.222656 120.433594 102.230469 120.957031 101.203125 C 120.691406 100.507812 120.402344 99.832031 120.171875 99.125 C 119.816406 98.039062 119.613281 96.890625 119.410156 95.75 C 119.34375 95.363281 119.273438 94.972656 119.207031 94.585938 C 118.464844 90.355469 117.769531 86.070312 117.625 81.785156 C 117.613281 81.429688 117.605469 81.074219 117.601562 80.714844 C 117.601562 80.664062 117.601562 80.613281 117.601562 80.554688 C 117.601562 80.164062 117.601562 79.773438 117.601562 79.386719 C 117.617188 78.414062 117.667969 77.433594 117.757812 76.460938 C 117.773438 76.269531 117.792969 76.078125 117.816406 75.886719 C 117.816406 75.84375 117.824219 75.804688 117.828125 75.761719 L 126.820312 75.359375 L 127.578125 75.328125 C 128.097656 75.304688 128.648438 75.269531 129.078125 74.90625 C 129.796875 74.300781 129.882812 73.0625 129.871094 71.992188 C 129.828125 69.296875 129.578125 66.613281 129.125 63.972656 C 128.785156 61.988281 128.296875 59.957031 127.203125 58.433594 C 126.308594 57.179688 125.007812 56.269531 124.542969 54.710938 C 124.367188 54.128906 124.324219 53.496094 124.101562 52.941406 C 123.875 52.386719 123.503906 51.980469 123.152344 51.554688 C 121.921875 50.058594 120.898438 48.320312 120.125 46.417969 C 119.589844 45.097656 119.007812 43.640625 118.308594 42.726562 C 118.273438 42.679688 118.242188 42.636719 118.203125 42.59375 C 117.609375 41.875 116.929688 41.558594 116.121094 42.046875 C 115.976562 42.136719 115.839844 42.242188 115.710938 42.363281 C 115.421875 42.632812 115.160156 42.9375 114.925781 43.277344 C 114.109375 44.421875 113.394531 45.671875 112.792969 47 C 112.367188 47.933594 112.003906 48.910156 111.703125 49.914062 C 111.464844 50.707031 111.269531 51.519531 111.113281 52.339844 C 111 52.953125 110.910156 53.570312 110.839844 54.1875 C 110.574219 56.511719 110.574219 58.882812 110.609375 61.234375 C 110.652344 63.398438 110.730469 65.566406 110.890625 67.722656 C 110.929688 68.242188 110.972656 68.761719 111.019531 69.285156 C 111.117188 70.3125 111.238281 71.335938 111.378906 72.359375 C 111.4375 72.75 111.496094 73.140625 111.5625 73.527344 C 111.578125 73.632812 111.59375 73.734375 111.609375 73.835938 L 111.617188 73.882812 C 111.792969 74.785156 111.929688 75.699219 112.023438 76.617188 C 112.035156 76.734375 112.042969 76.847656 112.046875 76.964844 C 112.070312 77.492188 112.066406 78.023438 112.039062 78.550781 C 112.007812 79.175781 111.960938 79.800781 111.9375 80.425781 C 111.9375 80.535156 111.9375 80.644531 111.925781 80.75 C 111.921875 81.066406 111.925781 81.378906 111.925781 81.695312 C 111.953125 82.453125 112.027344 83.203125 112.148438 83.945312 C 112.371094 85.324219 112.753906 86.65625 113.289062 87.902344 C 113.339844 88.019531 113.390625 88.132812 113.445312 88.246094 C 114.113281 89.714844 114.960938 91.058594 115.582031 92.558594 C 116.117188 93.910156 116.515625 95.335938 116.769531 96.800781 C 116.859375 97.285156 116.941406 97.773438 117.023438 98.257812 C 117.144531 99.035156 117.253906 99.820312 117.367188 100.601562 C 117.378906 100.679688 117.390625 100.765625 117.402344 100.835938 C 117.550781 101.875 117.707031 102.910156 117.910156 103.925781 C 118.027344 104.515625 118.160156 105.097656 118.316406 105.671875 Z M 119.289062 104.179688 "/>
<path style=" stroke:none;fill-rule:nonzero;fill:rgb(97.254902%,42.745098%,43.921569%);fill-opacity:1;" d="M 117.523438 91.417969 C 117.523438 91.566406 117.515625 91.710938 117.507812 91.859375 C 117.484375 92.570312 117.433594 93.277344 117.347656 93.980469 C 117.238281 94.941406 117.046875 95.882812 116.777344 96.796875 C 116.597656 97.394531 116.367188 97.96875 116.09375 98.511719 C 115.851562 98.996094 115.566406 99.445312 115.246094 99.851562 C 114.453125 100.863281 113.308594 101.183594 112.203125 101.609375 C 111.695312 101.789062 111.203125 102.035156 110.738281 102.34375 C 110.652344 102.402344 110.570312 102.460938 110.492188 102.527344 L 109.109375 103.648438 C 108.675781 103.996094 108.238281 104.359375 107.941406 104.875 C 107.890625 104.960938 107.847656 105.054688 107.808594 105.148438 C 107.621094 105.625 107.484375 106.125 107.402344 106.644531 C 106.683594 110.3125 105.960938 113.984375 105.46875 117.707031 C 105.433594 117.953125 105.402344 118.203125 105.367188 118.449219 L 105.355469 118.527344 C 105.351562 118.507812 105.34375 118.492188 105.335938 118.472656 C 101.796875 121.09375 98.125 123.457031 94.347656 125.347656 L 93.523438 116.929688 C 93.4375 116.246094 93.410156 115.554688 93.441406 114.863281 C 93.519531 113.773438 93.878906 112.738281 93.976562 111.652344 C 94.070312 110.589844 93.90625 109.515625 93.507812 108.566406 C 93.351562 108.195312 93.15625 107.832031 93.117188 107.421875 C 93.082031 107.007812 93.277344 106.628906 93.617188 106.589844 C 93.878906 106.230469 93.902344 105.738281 93.824219 105.253906 C 93.78125 105 93.71875 104.75 93.636719 104.511719 C 93.414062 103.835938 93.128906 103.101562 93.324219 102.410156 C 93.375 102.285156 93.394531 102.144531 93.386719 102.003906 C 93.390625 101.996094 93.390625 101.988281 93.386719 101.976562 C 93.34375 101.796875 93.167969 101.71875 93.078125 101.5625 C 92.90625 101.277344 93.078125 100.886719 93.183594 100.554688 C 93.285156 100.203125 93.34375 99.832031 93.359375 99.453125 C 93.375 99.246094 93.382812 99.035156 93.402344 98.828125 C 93.429688 98.546875 93.46875 98.269531 93.527344 97.996094 C 93.847656 96.445312 94.621094 95.089844 95.699219 94.1875 C 96.214844 93.761719 96.785156 93.453125 97.3125 93.054688 C 97.847656 92.609375 98.363281 92.125 98.847656 91.597656 C 100.011719 90.410156 101.222656 89.289062 102.480469 88.238281 C 103.832031 87.109375 105.234375 86.070312 106.675781 85.121094 C 106.984375 84.917969 107.292969 84.71875 107.601562 84.527344 C 107.9375 84.308594 108.273438 84.105469 108.617188 83.914062 C 109.707031 83.277344 110.941406 83.515625 112.148438 83.9375 C 112.652344 84.113281 113.148438 84.324219 113.632812 84.515625 C 114.101562 84.703125 114.554688 84.953125 114.980469 85.257812 C 116.046875 86.023438 116.929688 87.160156 117.296875 88.589844 C 117.296875 88.597656 117.296875 88.609375 117.296875 88.617188 C 117.527344 89.515625 117.542969 90.476562 117.523438 91.417969 Z M 117.523438 91.417969 "/>
<use xlink:href="#surface23" mask="url(#mask6)"/>
<path style=" stroke:none;fill-rule:nonzero;fill:rgb(24.705882%,23.921569%,33.72549%);fill-opacity:1;" d="M 104.964844 64.601562 C 104.929688 64.5 104.851562 64.429688 104.757812 64.421875 C 104.667969 64.414062 104.578125 64.464844 104.53125 64.558594 C 104.480469 64.652344 104.476562 64.769531 104.519531 64.867188 L 104.386719 64.949219 L 108.328125 74.84375 L 109.042969 74.417969 L 105.097656 64.515625 Z M 104.964844 64.601562 "/>
<path style=" stroke:none;fill-rule:nonzero;fill:rgb(98.431373%,74.509804%,74.509804%);fill-opacity:1;" d="M 118.359375 43.878906 C 118.359375 49.601562 114.570312 54.238281 109.894531 54.238281 C 105.222656 54.238281 101.433594 49.601562 101.433594 43.878906 C 101.433594 38.15625 105.222656 33.515625 109.894531 33.515625 C 114.570312 33.515625 118.359375 38.15625 118.359375 43.878906 Z M 118.359375 43.878906 "/>
<path style=" stroke:none;fill-rule:nonzero;fill:rgb(27.45098%,26.27451%,32.54902%);fill-opacity:1;" d="M 121.066406 37.464844 C 121.027344 36.640625 120.925781 35.824219 120.769531 35.019531 C 120.269531 32.402344 119.363281 29.824219 117.796875 27.945312 C 117.699219 27.488281 117.585938 27.03125 117.453125 26.585938 C 117.449219 26.578125 117.445312 26.566406 117.441406 26.554688 C 116.976562 24.984375 116.300781 23.523438 115.445312 22.222656 C 114.949219 21.46875 114.308594 20.722656 113.515625 20.691406 C 113.292969 20.683594 113.058594 20.730469 112.855469 20.605469 C 112.707031 20.488281 112.578125 20.328125 112.488281 20.144531 C 111.6875 18.90625 110.398438 18.316406 109.132812 18.605469 L 109.050781 18.628906 C 109.003906 18.640625 108.957031 18.652344 108.917969 18.667969 C 108.878906 18.679688 108.808594 18.707031 108.75 18.726562 C 108.8125 18.847656 108.871094 18.972656 108.929688 19.101562 C 109.085938 19.441406 109.234375 19.792969 109.367188 20.148438 C 109.476562 20.445312 109.582031 20.75 109.675781 21.058594 C 108.320312 21.246094 107.21875 22.421875 106.210938 23.542969 L 103.835938 26.179688 C 103.832031 26.183594 103.828125 26.1875 103.824219 26.195312 L 103.757812 26.273438 C 103.738281 26.296875 103.722656 26.316406 103.707031 26.339844 C 103.699219 26.347656 103.695312 26.355469 103.6875 26.363281 C 103.667969 26.386719 103.652344 26.417969 103.632812 26.445312 C 103.597656 26.496094 103.570312 26.546875 103.542969 26.605469 C 103.53125 26.628906 103.519531 26.65625 103.507812 26.679688 C 103.503906 26.6875 103.503906 26.699219 103.5 26.707031 C 103.492188 26.726562 103.484375 26.75 103.476562 26.773438 C 103.476562 26.777344 103.476562 26.78125 103.476562 26.785156 C 103.472656 26.796875 103.472656 26.808594 103.46875 26.824219 C 103.441406 26.9375 103.449219 27.058594 103.492188 27.167969 L 105.054688 27.1875 L 105.238281 27.1875 C 105.246094 27.445312 105.253906 27.703125 105.261719 27.957031 C 105.011719 28.183594 104.773438 28.429688 104.546875 28.6875 C 104.300781 28.96875 104.066406 29.269531 103.851562 29.585938 C 102.441406 31.671875 101.703125 34.367188 101.628906 37.082031 C 101.628906 37.164062 101.628906 37.242188 101.628906 37.332031 C 101.628906 37.578125 101.628906 37.828125 101.628906 38.074219 C 101.628906 38.234375 101.640625 38.394531 101.652344 38.558594 C 101.652344 38.769531 101.699219 38.976562 101.785156 39.160156 C 101.792969 39.179688 101.808594 39.199219 101.820312 39.21875 C 101.898438 39.324219 101.996094 39.40625 102.101562 39.46875 L 102.214844 39.539062 C 102.273438 39.570312 102.324219 39.605469 102.378906 39.640625 C 102.878906 39.984375 103.171875 40.652344 103.625 41.078125 C 103.652344 41.101562 103.679688 41.128906 103.707031 41.148438 L 103.765625 41.195312 L 103.800781 41.226562 L 103.851562 41.261719 C 103.886719 41.285156 103.917969 41.308594 103.953125 41.328125 L 104.015625 41.367188 L 104.027344 41.367188 C 104.082031 41.394531 104.132812 41.421875 104.1875 41.449219 L 104.261719 41.480469 L 104.285156 41.488281 C 104.308594 41.496094 104.328125 41.507812 104.351562 41.515625 C 104.398438 41.53125 104.441406 41.546875 104.484375 41.558594 L 104.617188 41.59375 C 104.667969 41.605469 104.722656 41.617188 104.773438 41.625 L 104.929688 41.648438 C 105.058594 41.660156 105.183594 41.667969 105.3125 41.671875 C 105.714844 41.667969 106.113281 41.632812 106.511719 41.570312 L 109.886719 41.082031 C 110.652344 40.976562 111.433594 40.867188 112.1875 41.058594 C 112.828125 41.21875 113.417969 41.59375 114.039062 41.855469 C 114.179688 41.914062 114.320312 41.972656 114.460938 42.019531 C 114.515625 42.035156 114.566406 42.054688 114.621094 42.070312 L 114.691406 42.09375 L 114.863281 42.144531 C 114.921875 42.160156 114.984375 42.179688 115.042969 42.195312 C 115.128906 42.21875 115.214844 42.234375 115.300781 42.253906 C 115.359375 42.269531 115.417969 42.28125 115.476562 42.292969 L 115.488281 42.292969 L 115.660156 42.328125 L 115.699219 42.328125 L 115.824219 42.347656 C 115.886719 42.359375 115.949219 42.367188 116.007812 42.378906 C 116.144531 42.398438 116.277344 42.414062 116.414062 42.429688 C 116.632812 42.457031 116.851562 42.476562 117.074219 42.492188 L 117.292969 42.507812 L 117.515625 42.519531 L 118.175781 42.558594 L 118.296875 42.558594 C 118.570312 42.582031 118.847656 42.5625 119.121094 42.503906 C 119.167969 42.492188 119.214844 42.480469 119.261719 42.464844 C 119.304688 42.449219 119.34375 42.433594 119.390625 42.414062 C 119.886719 42.179688 120.25 41.644531 120.5 41.070312 C 120.554688 40.949219 120.605469 40.828125 120.648438 40.703125 C 120.695312 40.578125 120.734375 40.453125 120.773438 40.324219 C 120.816406 40.164062 120.859375 40.011719 120.890625 39.847656 C 120.902344 39.804688 120.910156 39.761719 120.917969 39.714844 C 120.929688 39.671875 120.945312 39.582031 120.957031 39.511719 C 120.988281 39.328125 121.015625 39.140625 121.035156 38.949219 C 121.035156 38.890625 121.046875 38.828125 121.050781 38.769531 C 121.0625 38.605469 121.070312 38.457031 121.078125 38.296875 C 121.078125 38.175781 121.078125 38.054688 121.078125 37.933594 C 121.074219 37.804688 121.066406 37.628906 121.066406 37.464844 Z M 117.675781 27.796875 C 117.570312 27.675781 117.457031 27.558594 117.347656 27.445312 C 117.472656 27.542969 117.582031 27.660156 117.675781 27.796875 Z M 117.675781 27.796875 "/>
<path style=" stroke:none;fill-rule:nonzero;fill:rgb(27.45098%,26.27451%,32.54902%);fill-opacity:1;" d="M 93.652344 43.308594 C 92.65625 43.15625 91.667969 42.625 90.683594 42.886719 C 90.070312 43.046875 89.542969 43.515625 89.050781 43.996094 C 87.21875 45.792969 85.660156 47.972656 84.449219 50.429688 C 84.246094 50.800781 84.101562 51.210938 84.027344 51.648438 C 83.964844 52.152344 84.074219 52.667969 84.210938 53.152344 C 85.113281 56.421875 87.046875 59.15625 87.929688 62.4375 C 88.855469 65.890625 88.535156 69.660156 87.851562 73.195312 C 87.003906 77.5625 85.628906 81.746094 83.773438 85.613281 C 83.519531 86.1875 83.203125 86.71875 82.832031 87.1875 C 82.351562 87.753906 81.707031 88.160156 81.421875 88.898438 C 81.289062 89.222656 81.25 89.59375 81.15625 89.941406 C 80.890625 90.910156 80.25 91.742188 80.1875 92.769531 C 80.140625 93.550781 80.445312 94.289062 80.628906 95.035156 C 80.9375 96.3125 80.90625 97.679688 80.535156 98.9375 C 79.863281 101.1875 78.109375 103.234375 78.621094 105.546875 C 79.757812 105.144531 81.015625 104.625 81.550781 103.335938 C 81.738281 102.878906 81.832031 102.335938 82.152344 102.003906 C 82.789062 101.339844 83.871094 101.9375 84.546875 101.332031 C 85.058594 100.867188 85.078125 99.917969 84.847656 99.191406 C 84.621094 98.460938 84.230469 97.820312 84.054688 97.070312 C 83.75 95.71875 84.238281 94.289062 84.148438 92.890625 C 84.105469 92.246094 83.941406 91.625 83.929688 90.980469 C 83.910156 89.730469 84.476562 88.550781 85.226562 87.703125 C 85.980469 86.851562 86.910156 86.289062 87.824219 85.734375 L 91.285156 83.628906 C 92.539062 82.867188 93.914062 81.941406 94.324219 80.300781 C 94.480469 79.6875 94.484375 79.035156 94.492188 78.394531 C 94.609375 68.597656 96.613281 59 98.605469 49.511719 C 98.917969 48.039062 99.230469 46.5625 99.691406 45.152344 C 100.152344 43.738281 101.050781 42.605469 101.511719 41.296875 C 98.847656 40.914062 96.417969 43.730469 93.652344 43.308594 Z M 93.652344 43.308594 "/>
<path style=" stroke:none;fill-rule:nonzero;fill:rgb(97.254902%,42.745098%,43.921569%);fill-opacity:1;" d="M 112.722656 104.765625 C 113.027344 107.03125 113.214844 109.347656 113.359375 111.648438 C 110.980469 114.066406 108.417969 116.167969 105.8125 118.117188 C 105.664062 118.226562 105.515625 118.335938 105.367188 118.4375 L 105.355469 118.515625 C 105.347656 118.5 105.339844 118.480469 105.332031 118.464844 C 105.132812 117.929688 104.777344 117.503906 104.339844 117.261719 C 103.363281 114.753906 102.386719 112.242188 101.414062 109.734375 C 100.882812 108.378906 100.355469 107.011719 100.089844 105.550781 C 100.089844 105.519531 100.078125 105.484375 100.074219 105.457031 C 99.875 104.320312 99.828125 103.144531 99.695312 101.996094 C 99.625 101.339844 99.503906 100.691406 99.332031 100.0625 C 99.175781 99.503906 98.957031 98.964844 98.761719 98.417969 C 98.523438 97.746094 98.324219 97.0625 98.316406 96.335938 C 98.316406 96.105469 98.328125 95.851562 98.234375 95.65625 C 98.136719 95.488281 98.015625 95.34375 97.875 95.230469 C 97.519531 94.84375 97.351562 94.261719 97.429688 93.6875 C 96.636719 93.738281 96.1875 94.785156 95.871094 95.667969 C 95.582031 96.535156 95.199219 97.351562 94.738281 98.097656 C 94.402344 98.628906 93.972656 99.066406 93.484375 99.375 C 93.441406 99.402344 93.398438 99.425781 93.351562 99.449219 C 92.25 100.046875 90.960938 99.835938 89.761719 99.566406 C 88.714844 99.332031 87.632812 99.039062 86.792969 98.242188 L 86.703125 98.15625 C 86.453125 97.902344 86.230469 97.613281 86.042969 97.292969 C 85.335938 96.113281 85.023438 94.558594 84.851562 93.082031 C 84.835938 92.941406 84.820312 92.804688 84.804688 92.664062 C 84.683594 91.621094 84.652344 90.5625 84.707031 89.511719 C 84.722656 89.25 84.746094 88.992188 84.773438 88.734375 C 84.789062 88.574219 84.8125 88.398438 84.832031 88.230469 C 84.832031 88.226562 84.832031 88.21875 84.832031 88.214844 C 84.867188 87.949219 84.90625 87.679688 84.941406 87.40625 C 85.074219 86.488281 85.207031 85.546875 85.601562 84.753906 C 85.863281 84.265625 86.195312 83.832031 86.578125 83.480469 C 86.71875 83.34375 86.867188 83.210938 87.015625 83.085938 C 87.253906 82.882812 87.503906 82.6875 87.753906 82.503906 C 88.386719 82.039062 89.050781 81.644531 89.738281 81.320312 C 89.902344 81.246094 90.066406 81.171875 90.234375 81.101562 C 90.882812 80.820312 91.578125 80.753906 92.253906 80.90625 C 92.855469 81.011719 93.460938 81.054688 94.0625 81.035156 C 95.617188 81 97.171875 80.636719 98.722656 80.402344 C 100.871094 80.078125 103.183594 80.039062 105.058594 81.371094 C 105.148438 81.433594 105.234375 81.5 105.324219 81.570312 C 106.25 82.3125 106.992188 83.351562 107.597656 84.511719 C 107.726562 84.757812 107.84375 85.007812 107.957031 85.261719 C 108.21875 85.847656 108.457031 86.445312 108.667969 87.058594 C 108.792969 87.359375 108.859375 87.691406 108.863281 88.03125 C 108.859375 88.09375 108.855469 88.160156 108.84375 88.222656 C 108.808594 88.453125 108.734375 88.675781 108.710938 88.910156 C 108.628906 89.789062 109.238281 90.527344 109.46875 91.367188 C 109.617188 91.914062 109.601562 92.5 109.683594 93.078125 C 109.804688 93.886719 110.128906 94.613281 110.417969 95.34375 C 110.878906 96.515625 111.273438 97.726562 111.597656 98.964844 C 111.828125 99.828125 112.023438 100.703125 112.195312 101.585938 C 112.253906 101.871094 112.304688 102.15625 112.355469 102.441406 C 112.5 103.222656 112.617188 103.992188 112.722656 104.765625 Z M 112.722656 104.765625 "/>
<path style=" stroke:none;fill-rule:nonzero;fill:rgb(24.705882%,23.921569%,33.72549%);fill-opacity:1;" d="M 126.824219 80.789062 L 126.824219 81.921875 L 126.652344 81.917969 L 126.460938 81.917969 L 124.335938 81.882812 L 119.097656 81.800781 L 117.625 81.777344 L 117.246094 81.769531 L 115.039062 81.738281 L 111.925781 81.6875 L 105.328125 81.582031 L 93.875 81.398438 L 89.742188 81.335938 L 88.085938 81.308594 L 86.558594 81.285156 L 85.609375 81.269531 L 84.707031 81.253906 L 78.03125 81.148438 L 76.179688 81.121094 L 75.777344 81.113281 L 75.515625 80.285156 L 73.609375 74.277344 L 73.261719 73.179688 L 73.527344 71.886719 L 74.71875 72.855469 L 75.449219 72.96875 L 87.511719 74.804688 L 89.777344 75.148438 L 94.578125 75.878906 L 99.28125 76.597656 L 101.125 76.875 L 112.03125 78.539062 L 115.082031 79.003906 L 117.605469 79.386719 L 126.574219 80.753906 Z M 126.824219 80.789062 "/>
<path style=" stroke:none;fill-rule:nonzero;fill:rgb(31.372549%,30.980392%,37.647059%);fill-opacity:1;" d="M 73.527344 71.886719 L 75.90625 79.496094 L 126.824219 80.789062 L 126.824219 72.53125 Z M 73.527344 71.886719 "/>
<path style=" stroke:none;fill-rule:nonzero;fill:rgb(24.705882%,23.921569%,33.72549%);fill-opacity:1;" d="M 76.171875 80.304688 L 76.570312 126.765625 L 78.421875 126.441406 L 78.023438 80.304688 Z M 76.171875 80.304688 "/>
<path style=" stroke:none;fill-rule:nonzero;fill:rgb(24.705882%,23.921569%,33.72549%);fill-opacity:1;" d="M 126.652344 81.917969 L 126.460938 81.917969 C 126.152344 84.816406 125.644531 87.671875 124.9375 90.464844 L 124.335938 81.882812 L 124.3125 81.519531 L 126.535156 81.203125 L 126.609375 81.195312 Z M 126.652344 81.917969 "/>
<path style=" stroke:none;fill-rule:nonzero;fill:rgb(100%,100%,100%);fill-opacity:1;" d="M 119.417969 76.417969 L 100.042969 76.902344 L 94.027344 74.476562 L 110.160156 73.34375 Z M 119.417969 76.417969 "/>
<path style=" stroke:none;fill-rule:nonzero;fill:rgb(98.431373%,74.509804%,74.509804%);fill-opacity:1;" d="M 95.113281 66.976562 C 94.910156 67.074219 94.726562 67.230469 94.585938 67.4375 C 94.472656 67.660156 94.40625 67.914062 94.386719 68.171875 L 94.0625 70.546875 C 94.011719 70.765625 94.023438 70.996094 94.089844 71.207031 C 94.171875 71.40625 94.417969 71.507812 94.542969 71.34375 C 94.527344 71.808594 94.558594 72.304688 94.78125 72.683594 C 95 73.0625 95.464844 73.261719 95.777344 72.996094 C 95.875 73.195312 96.039062 73.328125 96.226562 73.363281 C 96.414062 73.402344 96.605469 73.332031 96.746094 73.183594 C 96.558594 73.261719 96.546875 73.609375 96.679688 73.789062 C 96.828125 73.949219 97.019531 74.042969 97.21875 74.054688 C 99.542969 74.453125 101.914062 74.089844 104.082031 72.996094 C 104.289062 72.890625 103.75 69.796875 103.695312 69.480469 C 103.5625 68.734375 103.496094 67.824219 102.980469 67.320312 C 101.75 66.121094 99.566406 65.882812 98.070312 66.027344 C 97.046875 66.121094 96.042969 66.441406 95.113281 66.976562 Z M 95.113281 66.976562 "/>
<use xlink:href="#surface26" mask="url(#mask7)"/>
<path style=" stroke:none;fill-rule:nonzero;fill:rgb(27.45098%,26.27451%,32.54902%);fill-opacity:1;" d="M 114.960938 67.660156 C 110.175781 67.773438 105.292969 67.867188 100.726562 66.113281 C 101.164062 68.183594 101.132812 70.355469 100.640625 72.40625 L 123.007812 74.671875 C 123.953125 74.769531 127.886719 75.320312 128.8125 75.039062 C 129.734375 74.757812 129.519531 73.371094 129.867188 72.285156 C 130.832031 69.304688 125.597656 65.449219 123.273438 65.339844 C 120.335938 65.195312 117.917969 67.59375 114.960938 67.660156 Z M 114.960938 67.660156 "/>
<path style=" stroke:none;fill-rule:nonzero;fill:rgb(98.431373%,74.509804%,74.509804%);fill-opacity:1;" d="M 107.355469 68.109375 C 107.558594 68.207031 107.742188 68.363281 107.882812 68.570312 C 107.992188 68.796875 108.0625 69.046875 108.082031 69.304688 L 108.40625 71.679688 C 108.457031 71.898438 108.445312 72.128906 108.382812 72.339844 C 108.296875 72.539062 108.050781 72.644531 107.929688 72.476562 C 107.941406 72.941406 107.910156 73.4375 107.691406 73.816406 C 107.46875 74.195312 107.007812 74.394531 106.691406 74.128906 C 106.59375 74.328125 106.429688 74.460938 106.242188 74.5 C 106.054688 74.535156 105.863281 74.46875 105.71875 74.316406 C 105.910156 74.394531 105.921875 74.746094 105.789062 74.921875 C 105.640625 75.085938 105.449219 75.175781 105.25 75.1875 C 102.925781 75.585938 100.554688 75.222656 98.386719 74.128906 C 98.179688 74.027344 98.71875 70.933594 98.773438 70.613281 C 98.90625 69.867188 98.972656 68.957031 99.488281 68.453125 C 100.714844 67.253906 102.902344 67.015625 104.402344 67.160156 C 105.425781 67.253906 106.425781 67.578125 107.355469 68.109375 Z M 107.355469 68.109375 "/>
<path style=" stroke:none;fill-rule:nonzero;fill:rgb(27.45098%,26.27451%,32.54902%);fill-opacity:1;" d="M 75.746094 62.953125 C 75.308594 63.648438 74.867188 64.355469 74.585938 65.160156 C 74.042969 66.703125 74.121094 68.449219 74.210938 70.121094 C 74.238281 70.609375 74.269531 71.101562 74.476562 71.507812 C 74.65625 71.8125 74.894531 72.058594 75.167969 72.226562 C 76.3125 73.023438 77.652344 73.261719 78.960938 73.441406 C 80.96875 73.710938 82.980469 73.878906 85 73.9375 C 90 74.085938 95.078125 73.585938 99.949219 74.972656 C 99.347656 73.851562 99.347656 72.367188 99.6875 71.085938 C 100.023438 69.808594 100.671875 68.695312 101.308594 67.597656 C 99.078125 66.734375 96.6875 68.085938 94.351562 67.949219 C 91.953125 67.8125 89.734375 66.117188 87.335938 66.117188 C 86.820312 66.117188 86.292969 66.195312 85.792969 66.042969 C 85.292969 65.890625 84.808594 65.429688 84.761719 64.800781 C 85.402344 64.976562 86.007812 64.304688 86.273438 63.570312 C 86.535156 62.835938 86.585938 62.003906 86.839844 61.265625 C 87.480469 59.425781 89.207031 58.570312 90.277344 57.054688 C 90.449219 56.816406 90.609375 56.53125 90.601562 56.214844 C 90.578125 55.945312 90.484375 55.695312 90.339844 55.492188 C 89.445312 54.035156 88.101562 53.226562 86.984375 52.09375 C 86.59375 51.695312 85.8125 50.207031 85.375 50.070312 C 84.566406 49.816406 83.878906 51.246094 83.351562 51.945312 C 80.695312 55.480469 78.160156 59.148438 75.746094 62.953125 Z M 75.746094 62.953125 "/>
<use xlink:href="#surface29" mask="url(#mask8)"/>
<use xlink:href="#surface32" mask="url(#mask9)"/>
<use xlink:href="#surface35" mask="url(#mask10)"/>
</g>
</svg>
