<?xml version="1.0" encoding="UTF-8"?>
<svg xmlns="http://www.w3.org/2000/svg" xmlns:xlink="http://www.w3.org/1999/xlink" width="130pt" height="130pt" viewBox="0 0 130 130" version="1.1">
<defs>
<filter id="alpha" filterUnits="objectBoundingBox" x="0%" y="0%" width="100%" height="100%">
  <feColorMatrix type="matrix" in="SourceGraphic" values="0 0 0 0 1 0 0 0 0 1 0 0 0 0 1 0 0 0 1 0"/>
</filter>
<mask id="mask0">
  <g filter="url(#alpha)">
<rect x="0" y="0" width="130" height="130" style="fill:rgb(0%,0%,0%);fill-opacity:0.101961;stroke:none;"/>
  </g>
</mask>
<clipPath id="clip1">
  <rect width="130" height="130"/>
</clipPath>
<g id="surface6" clip-path="url(#clip1)">
<path style=" stroke:none;fill-rule:nonzero;fill:rgb(45.882353%,21.176471%,84.313725%);fill-opacity:1;" d="M 27.605469 22.296875 L 37.359375 22.296875 C 37.921875 22.296875 38.378906 22.867188 38.378906 23.570312 L 38.378906 25.480469 C 38.378906 26.183594 37.921875 26.753906 37.359375 26.753906 L 27.605469 26.753906 C 27.042969 26.753906 26.585938 26.183594 26.585938 25.480469 L 26.585938 23.570312 C 26.585938 22.867188 27.042969 22.296875 27.605469 22.296875 Z M 27.605469 22.296875 "/>
</g>
<mask id="mask1">
  <g filter="url(#alpha)">
<rect x="0" y="0" width="130" height="130" style="fill:rgb(0%,0%,0%);fill-opacity:0.101961;stroke:none;"/>
  </g>
</mask>
<clipPath id="clip2">
  <rect width="130" height="130"/>
</clipPath>
<g id="surface9" clip-path="url(#clip2)">
<path style=" stroke:none;fill-rule:nonzero;fill:rgb(45.882353%,21.176471%,84.313725%);fill-opacity:1;" d="M 39.945312 26.753906 L 49.703125 26.753906 C 50.265625 26.753906 50.71875 27.324219 50.71875 28.027344 L 50.71875 29.9375 C 50.71875 30.644531 50.265625 31.214844 49.703125 31.214844 L 39.945312 31.214844 C 39.382812 31.214844 38.925781 30.644531 38.925781 29.9375 L 38.925781 28.027344 C 38.925781 27.324219 39.382812 26.753906 39.945312 26.753906 Z M 39.945312 26.753906 "/>
</g>
<mask id="mask2">
  <g filter="url(#alpha)">
<rect x="0" y="0" width="130" height="130" style="fill:rgb(0%,0%,0%);fill-opacity:0.101961;stroke:none;"/>
  </g>
</mask>
<clipPath id="clip3">
  <rect width="130" height="130"/>
</clipPath>
<g id="surface12" clip-path="url(#clip3)">
<path style=" stroke:none;fill-rule:nonzero;fill:rgb(45.882353%,21.176471%,84.313725%);fill-opacity:1;" d="M 52.289062 31.214844 L 62.042969 31.214844 C 62.605469 31.214844 63.0625 31.785156 63.0625 32.488281 L 63.0625 34.398438 C 63.0625 35.101562 62.605469 35.671875 62.042969 35.671875 L 52.289062 35.671875 C 51.726562 35.671875 51.269531 35.101562 51.269531 34.398438 L 51.269531 32.488281 C 51.269531 31.785156 51.726562 31.214844 52.289062 31.214844 Z M 52.289062 31.214844 "/>
</g>
<mask id="mask3">
  <g filter="url(#alpha)">
<rect x="0" y="0" width="130" height="130" style="fill:rgb(0%,0%,0%);fill-opacity:0.101961;stroke:none;"/>
  </g>
</mask>
<clipPath id="clip4">
  <rect width="130" height="130"/>
</clipPath>
<g id="surface15" clip-path="url(#clip4)">
<path style=" stroke:none;fill-rule:nonzero;fill:rgb(45.882353%,21.176471%,84.313725%);fill-opacity:1;" d="M 27.605469 15.605469 L 37.359375 15.605469 C 37.921875 15.605469 38.378906 16.175781 38.378906 16.882812 L 38.378906 18.792969 C 38.378906 19.496094 37.921875 20.066406 37.359375 20.066406 L 27.605469 20.066406 C 27.042969 20.066406 26.585938 19.496094 26.585938 18.792969 L 26.585938 16.882812 C 26.585938 16.175781 27.042969 15.605469 27.605469 15.605469 Z M 27.605469 15.605469 "/>
</g>
<mask id="mask4">
  <g filter="url(#alpha)">
<rect x="0" y="0" width="130" height="130" style="fill:rgb(0%,0%,0%);fill-opacity:0.101961;stroke:none;"/>
  </g>
</mask>
<clipPath id="clip5">
  <rect width="130" height="130"/>
</clipPath>
<g id="surface18" clip-path="url(#clip5)">
<path style=" stroke:none;fill-rule:nonzero;fill:rgb(45.882353%,21.176471%,84.313725%);fill-opacity:1;" d="M 39.945312 20.066406 L 49.703125 20.066406 C 50.265625 20.066406 50.71875 20.636719 50.71875 21.339844 L 50.71875 23.25 C 50.71875 23.953125 50.265625 24.523438 49.703125 24.523438 L 39.945312 24.523438 C 39.382812 24.523438 38.925781 23.953125 38.925781 23.25 L 38.925781 21.339844 C 38.925781 20.636719 39.382812 20.066406 39.945312 20.066406 Z M 39.945312 20.066406 "/>
</g>
<mask id="mask5">
  <g filter="url(#alpha)">
<rect x="0" y="0" width="130" height="130" style="fill:rgb(0%,0%,0%);fill-opacity:0.101961;stroke:none;"/>
  </g>
</mask>
<clipPath id="clip6">
  <rect width="130" height="130"/>
</clipPath>
<g id="surface21" clip-path="url(#clip6)">
<path style=" stroke:none;fill-rule:nonzero;fill:rgb(45.882353%,21.176471%,84.313725%);fill-opacity:1;" d="M 52.289062 24.523438 L 62.042969 24.523438 C 62.605469 24.523438 63.0625 25.09375 63.0625 25.800781 L 63.0625 27.710938 C 63.0625 28.414062 62.605469 28.984375 62.042969 28.984375 L 52.289062 28.984375 C 51.726562 28.984375 51.269531 28.414062 51.269531 27.710938 L 51.269531 25.800781 C 51.269531 25.09375 51.726562 24.523438 52.289062 24.523438 Z M 52.289062 24.523438 "/>
</g>
<mask id="mask6">
  <g filter="url(#alpha)">
<rect x="0" y="0" width="130" height="130" style="fill:rgb(0%,0%,0%);fill-opacity:0.101961;stroke:none;"/>
  </g>
</mask>
<clipPath id="clip7">
  <rect width="130" height="130"/>
</clipPath>
<g id="surface24" clip-path="url(#clip7)">
<path style=" stroke:none;fill-rule:nonzero;fill:rgb(45.882353%,21.176471%,84.313725%);fill-opacity:1;" d="M 66 22.296875 L 75.757812 22.296875 C 76.320312 22.296875 76.777344 22.867188 76.777344 23.570312 L 76.777344 25.480469 C 76.777344 26.183594 76.320312 26.753906 75.757812 26.753906 L 66 26.753906 C 65.4375 26.753906 64.980469 26.183594 64.980469 25.480469 L 64.980469 23.570312 C 64.980469 22.867188 65.4375 22.296875 66 22.296875 Z M 66 22.296875 "/>
</g>
<mask id="mask7">
  <g filter="url(#alpha)">
<rect x="0" y="0" width="130" height="130" style="fill:rgb(0%,0%,0%);fill-opacity:0.101961;stroke:none;"/>
  </g>
</mask>
<clipPath id="clip8">
  <rect width="130" height="130"/>
</clipPath>
<g id="surface27" clip-path="url(#clip8)">
<path style=" stroke:none;fill-rule:nonzero;fill:rgb(45.882353%,21.176471%,84.313725%);fill-opacity:1;" d="M 78.34375 26.753906 L 88.097656 26.753906 C 88.660156 26.753906 89.117188 27.324219 89.117188 28.027344 L 89.117188 29.9375 C 89.117188 30.644531 88.660156 31.214844 88.097656 31.214844 L 78.34375 31.214844 C 77.78125 31.214844 77.324219 30.644531 77.324219 29.9375 L 77.324219 28.027344 C 77.324219 27.324219 77.78125 26.753906 78.34375 26.753906 Z M 78.34375 26.753906 "/>
</g>
<mask id="mask8">
  <g filter="url(#alpha)">
<rect x="0" y="0" width="130" height="130" style="fill:rgb(0%,0%,0%);fill-opacity:0.101961;stroke:none;"/>
  </g>
</mask>
<clipPath id="clip9">
  <rect width="130" height="130"/>
</clipPath>
<g id="surface30" clip-path="url(#clip9)">
<path style=" stroke:none;fill-rule:nonzero;fill:rgb(45.882353%,21.176471%,84.313725%);fill-opacity:1;" d="M 90.683594 31.214844 L 100.441406 31.214844 C 101.003906 31.214844 101.457031 31.785156 101.457031 32.488281 L 101.457031 34.398438 C 101.457031 35.101562 101.003906 35.671875 100.441406 35.671875 L 90.683594 35.671875 C 90.121094 35.671875 89.664062 35.101562 89.664062 34.398438 L 89.664062 32.488281 C 89.664062 31.785156 90.121094 31.214844 90.683594 31.214844 Z M 90.683594 31.214844 "/>
</g>
<mask id="mask9">
  <g filter="url(#alpha)">
<rect x="0" y="0" width="130" height="130" style="fill:rgb(0%,0%,0%);fill-opacity:0.101961;stroke:none;"/>
  </g>
</mask>
<clipPath id="clip10">
  <rect width="130" height="130"/>
</clipPath>
<g id="surface33" clip-path="url(#clip10)">
<path style=" stroke:none;fill-rule:nonzero;fill:rgb(45.882353%,21.176471%,84.313725%);fill-opacity:1;" d="M 66 15.605469 L 75.757812 15.605469 C 76.320312 15.605469 76.777344 16.175781 76.777344 16.882812 L 76.777344 18.792969 C 76.777344 19.496094 76.320312 20.066406 75.757812 20.066406 L 66 20.066406 C 65.4375 20.066406 64.980469 19.496094 64.980469 18.792969 L 64.980469 16.882812 C 64.980469 16.175781 65.4375 15.605469 66 15.605469 Z M 66 15.605469 "/>
</g>
<mask id="mask10">
  <g filter="url(#alpha)">
<rect x="0" y="0" width="130" height="130" style="fill:rgb(0%,0%,0%);fill-opacity:0.101961;stroke:none;"/>
  </g>
</mask>
<clipPath id="clip11">
  <rect width="130" height="130"/>
</clipPath>
<g id="surface36" clip-path="url(#clip11)">
<path style=" stroke:none;fill-rule:nonzero;fill:rgb(45.882353%,21.176471%,84.313725%);fill-opacity:1;" d="M 78.34375 20.066406 L 88.097656 20.066406 C 88.660156 20.066406 89.117188 20.636719 89.117188 21.339844 L 89.117188 23.25 C 89.117188 23.953125 88.660156 24.523438 88.097656 24.523438 L 78.34375 24.523438 C 77.78125 24.523438 77.324219 23.953125 77.324219 23.25 L 77.324219 21.339844 C 77.324219 20.636719 77.78125 20.066406 78.34375 20.066406 Z M 78.34375 20.066406 "/>
</g>
<mask id="mask11">
  <g filter="url(#alpha)">
<rect x="0" y="0" width="130" height="130" style="fill:rgb(0%,0%,0%);fill-opacity:0.101961;stroke:none;"/>
  </g>
</mask>
<clipPath id="clip12">
  <rect width="130" height="130"/>
</clipPath>
<g id="surface39" clip-path="url(#clip12)">
<path style=" stroke:none;fill-rule:nonzero;fill:rgb(45.882353%,21.176471%,84.313725%);fill-opacity:1;" d="M 90.683594 24.523438 L 100.441406 24.523438 C 101.003906 24.523438 101.457031 25.09375 101.457031 25.800781 L 101.457031 27.710938 C 101.457031 28.414062 101.003906 28.984375 100.441406 28.984375 L 90.683594 28.984375 C 90.121094 28.984375 89.664062 28.414062 89.664062 27.710938 L 89.664062 25.800781 C 89.664062 25.09375 90.121094 24.523438 90.683594 24.523438 Z M 90.683594 24.523438 "/>
</g>
<mask id="mask12">
  <g filter="url(#alpha)">
<rect x="0" y="0" width="130" height="130" style="fill:rgb(0%,0%,0%);fill-opacity:0.101961;stroke:none;"/>
  </g>
</mask>
<clipPath id="clip13">
  <rect width="130" height="130"/>
</clipPath>
<g id="surface42" clip-path="url(#clip13)">
<path style=" stroke:none;fill-rule:nonzero;fill:rgb(45.882353%,21.176471%,84.313725%);fill-opacity:1;" d="M 27.605469 6.6875 L 37.359375 6.6875 C 37.921875 6.6875 38.378906 7.257812 38.378906 7.964844 L 38.378906 9.875 C 38.378906 10.578125 37.921875 11.148438 37.359375 11.148438 L 27.605469 11.148438 C 27.042969 11.148438 26.585938 10.578125 26.585938 9.875 L 26.585938 7.964844 C 26.585938 7.257812 27.042969 6.6875 27.605469 6.6875 Z M 27.605469 6.6875 "/>
</g>
<mask id="mask13">
  <g filter="url(#alpha)">
<rect x="0" y="0" width="130" height="130" style="fill:rgb(0%,0%,0%);fill-opacity:0.101961;stroke:none;"/>
  </g>
</mask>
<clipPath id="clip14">
  <rect width="130" height="130"/>
</clipPath>
<g id="surface45" clip-path="url(#clip14)">
<path style=" stroke:none;fill-rule:nonzero;fill:rgb(45.882353%,21.176471%,84.313725%);fill-opacity:1;" d="M 39.945312 11.148438 L 49.703125 11.148438 C 50.265625 11.148438 50.71875 11.71875 50.71875 12.421875 L 50.71875 14.332031 C 50.71875 15.035156 50.265625 15.605469 49.703125 15.605469 L 39.945312 15.605469 C 39.382812 15.605469 38.925781 15.035156 38.925781 14.332031 L 38.925781 12.421875 C 38.925781 11.71875 39.382812 11.148438 39.945312 11.148438 Z M 39.945312 11.148438 "/>
</g>
<mask id="mask14">
  <g filter="url(#alpha)">
<rect x="0" y="0" width="130" height="130" style="fill:rgb(0%,0%,0%);fill-opacity:0.101961;stroke:none;"/>
  </g>
</mask>
<clipPath id="clip15">
  <rect width="130" height="130"/>
</clipPath>
<g id="surface48" clip-path="url(#clip15)">
<path style=" stroke:none;fill-rule:nonzero;fill:rgb(45.882353%,21.176471%,84.313725%);fill-opacity:1;" d="M 52.289062 15.605469 L 62.042969 15.605469 C 62.605469 15.605469 63.0625 16.175781 63.0625 16.882812 L 63.0625 18.792969 C 63.0625 19.496094 62.605469 20.066406 62.042969 20.066406 L 52.289062 20.066406 C 51.726562 20.066406 51.269531 19.496094 51.269531 18.792969 L 51.269531 16.882812 C 51.269531 16.175781 51.726562 15.605469 52.289062 15.605469 Z M 52.289062 15.605469 "/>
</g>
<mask id="mask15">
  <g filter="url(#alpha)">
<rect x="0" y="0" width="130" height="130" style="fill:rgb(0%,0%,0%);fill-opacity:0.101961;stroke:none;"/>
  </g>
</mask>
<clipPath id="clip16">
  <rect width="130" height="130"/>
</clipPath>
<g id="surface51" clip-path="url(#clip16)">
<path style=" stroke:none;fill-rule:nonzero;fill:rgb(45.882353%,21.176471%,84.313725%);fill-opacity:1;" d="M 27.605469 0 L 37.359375 0 C 37.921875 0 38.378906 0.570312 38.378906 1.273438 L 38.378906 3.183594 C 38.378906 3.886719 37.921875 4.460938 37.359375 4.460938 L 27.605469 4.460938 C 27.042969 4.460938 26.585938 3.886719 26.585938 3.183594 L 26.585938 1.273438 C 26.585938 0.570312 27.042969 0 27.605469 0 Z M 27.605469 0 "/>
</g>
<mask id="mask16">
  <g filter="url(#alpha)">
<rect x="0" y="0" width="130" height="130" style="fill:rgb(0%,0%,0%);fill-opacity:0.101961;stroke:none;"/>
  </g>
</mask>
<clipPath id="clip17">
  <rect width="130" height="130"/>
</clipPath>
<g id="surface54" clip-path="url(#clip17)">
<path style=" stroke:none;fill-rule:nonzero;fill:rgb(45.882353%,21.176471%,84.313725%);fill-opacity:1;" d="M 39.945312 4.460938 L 49.703125 4.460938 C 50.265625 4.460938 50.71875 5.03125 50.71875 5.734375 L 50.71875 7.644531 C 50.71875 8.347656 50.265625 8.917969 49.703125 8.917969 L 39.945312 8.917969 C 39.382812 8.917969 38.925781 8.347656 38.925781 7.644531 L 38.925781 5.734375 C 38.925781 5.03125 39.382812 4.460938 39.945312 4.460938 Z M 39.945312 4.460938 "/>
</g>
<mask id="mask17">
  <g filter="url(#alpha)">
<rect x="0" y="0" width="130" height="130" style="fill:rgb(0%,0%,0%);fill-opacity:0.101961;stroke:none;"/>
  </g>
</mask>
<clipPath id="clip18">
  <rect width="130" height="130"/>
</clipPath>
<g id="surface57" clip-path="url(#clip18)">
<path style=" stroke:none;fill-rule:nonzero;fill:rgb(45.882353%,21.176471%,84.313725%);fill-opacity:1;" d="M 52.289062 8.917969 L 62.042969 8.917969 C 62.605469 8.917969 63.0625 9.488281 63.0625 10.191406 L 63.0625 12.101562 C 63.0625 12.808594 62.605469 13.378906 62.042969 13.378906 L 52.289062 13.378906 C 51.726562 13.378906 51.269531 12.808594 51.269531 12.101562 L 51.269531 10.191406 C 51.269531 9.488281 51.726562 8.917969 52.289062 8.917969 Z M 52.289062 8.917969 "/>
</g>
<mask id="mask18">
  <g filter="url(#alpha)">
<rect x="0" y="0" width="130" height="130" style="fill:rgb(0%,0%,0%);fill-opacity:0.101961;stroke:none;"/>
  </g>
</mask>
<clipPath id="clip19">
  <rect width="130" height="130"/>
</clipPath>
<g id="surface60" clip-path="url(#clip19)">
<path style=" stroke:none;fill-rule:nonzero;fill:rgb(45.882353%,21.176471%,84.313725%);fill-opacity:1;" d="M 66 6.6875 L 75.757812 6.6875 C 76.320312 6.6875 76.777344 7.257812 76.777344 7.964844 L 76.777344 9.875 C 76.777344 10.578125 76.320312 11.148438 75.757812 11.148438 L 66 11.148438 C 65.4375 11.148438 64.980469 10.578125 64.980469 9.875 L 64.980469 7.964844 C 64.980469 7.257812 65.4375 6.6875 66 6.6875 Z M 66 6.6875 "/>
</g>
<mask id="mask19">
  <g filter="url(#alpha)">
<rect x="0" y="0" width="130" height="130" style="fill:rgb(0%,0%,0%);fill-opacity:0.101961;stroke:none;"/>
  </g>
</mask>
<clipPath id="clip20">
  <rect width="130" height="130"/>
</clipPath>
<g id="surface63" clip-path="url(#clip20)">
<path style=" stroke:none;fill-rule:nonzero;fill:rgb(45.882353%,21.176471%,84.313725%);fill-opacity:1;" d="M 78.34375 11.148438 L 88.097656 11.148438 C 88.660156 11.148438 89.117188 11.71875 89.117188 12.421875 L 89.117188 14.332031 C 89.117188 15.035156 88.660156 15.605469 88.097656 15.605469 L 78.34375 15.605469 C 77.78125 15.605469 77.324219 15.035156 77.324219 14.332031 L 77.324219 12.421875 C 77.324219 11.71875 77.78125 11.148438 78.34375 11.148438 Z M 78.34375 11.148438 "/>
</g>
<mask id="mask20">
  <g filter="url(#alpha)">
<rect x="0" y="0" width="130" height="130" style="fill:rgb(0%,0%,0%);fill-opacity:0.101961;stroke:none;"/>
  </g>
</mask>
<clipPath id="clip21">
  <rect width="130" height="130"/>
</clipPath>
<g id="surface66" clip-path="url(#clip21)">
<path style=" stroke:none;fill-rule:nonzero;fill:rgb(45.882353%,21.176471%,84.313725%);fill-opacity:1;" d="M 90.683594 15.605469 L 100.441406 15.605469 C 101.003906 15.605469 101.457031 16.175781 101.457031 16.882812 L 101.457031 18.792969 C 101.457031 19.496094 101.003906 20.066406 100.441406 20.066406 L 90.683594 20.066406 C 90.121094 20.066406 89.664062 19.496094 89.664062 18.792969 L 89.664062 16.882812 C 89.664062 16.175781 90.121094 15.605469 90.683594 15.605469 Z M 90.683594 15.605469 "/>
</g>
<mask id="mask21">
  <g filter="url(#alpha)">
<rect x="0" y="0" width="130" height="130" style="fill:rgb(0%,0%,0%);fill-opacity:0.101961;stroke:none;"/>
  </g>
</mask>
<clipPath id="clip22">
  <rect width="130" height="130"/>
</clipPath>
<g id="surface69" clip-path="url(#clip22)">
<path style=" stroke:none;fill-rule:nonzero;fill:rgb(45.882353%,21.176471%,84.313725%);fill-opacity:1;" d="M 66 0 L 75.757812 0 C 76.320312 0 76.777344 0.570312 76.777344 1.273438 L 76.777344 3.183594 C 76.777344 3.886719 76.320312 4.460938 75.757812 4.460938 L 66 4.460938 C 65.4375 4.460938 64.980469 3.886719 64.980469 3.183594 L 64.980469 1.273438 C 64.980469 0.570312 65.4375 0 66 0 Z M 66 0 "/>
</g>
<mask id="mask22">
  <g filter="url(#alpha)">
<rect x="0" y="0" width="130" height="130" style="fill:rgb(0%,0%,0%);fill-opacity:0.101961;stroke:none;"/>
  </g>
</mask>
<clipPath id="clip23">
  <rect width="130" height="130"/>
</clipPath>
<g id="surface72" clip-path="url(#clip23)">
<path style=" stroke:none;fill-rule:nonzero;fill:rgb(45.882353%,21.176471%,84.313725%);fill-opacity:1;" d="M 78.34375 4.460938 L 88.097656 4.460938 C 88.660156 4.460938 89.117188 5.03125 89.117188 5.734375 L 89.117188 7.644531 C 89.117188 8.347656 88.660156 8.917969 88.097656 8.917969 L 78.34375 8.917969 C 77.78125 8.917969 77.324219 8.347656 77.324219 7.644531 L 77.324219 5.734375 C 77.324219 5.03125 77.78125 4.460938 78.34375 4.460938 Z M 78.34375 4.460938 "/>
</g>
<mask id="mask23">
  <g filter="url(#alpha)">
<rect x="0" y="0" width="130" height="130" style="fill:rgb(0%,0%,0%);fill-opacity:0.101961;stroke:none;"/>
  </g>
</mask>
<clipPath id="clip24">
  <rect width="130" height="130"/>
</clipPath>
<g id="surface75" clip-path="url(#clip24)">
<path style=" stroke:none;fill-rule:nonzero;fill:rgb(45.882353%,21.176471%,84.313725%);fill-opacity:1;" d="M 90.683594 8.917969 L 100.441406 8.917969 C 101.003906 8.917969 101.457031 9.488281 101.457031 10.191406 L 101.457031 12.101562 C 101.457031 12.808594 101.003906 13.378906 100.441406 13.378906 L 90.683594 13.378906 C 90.121094 13.378906 89.664062 12.808594 89.664062 12.101562 L 89.664062 10.191406 C 89.664062 9.488281 90.121094 8.917969 90.683594 8.917969 Z M 90.683594 8.917969 "/>
</g>
<mask id="mask24">
  <g filter="url(#alpha)">
<rect x="0" y="0" width="130" height="130" style="fill:rgb(0%,0%,0%);fill-opacity:0.101961;stroke:none;"/>
  </g>
</mask>
<clipPath id="clip25">
  <rect width="130" height="130"/>
</clipPath>
<g id="surface78" clip-path="url(#clip25)">
<path style=" stroke:none;fill-rule:nonzero;fill:rgb(45.882353%,21.176471%,84.313725%);fill-opacity:1;" d="M 27.605469 101.703125 L 37.359375 101.703125 C 37.921875 101.703125 38.378906 102.273438 38.378906 102.976562 L 38.378906 104.886719 C 38.378906 105.589844 37.921875 106.160156 37.359375 106.160156 L 27.605469 106.160156 C 27.042969 106.160156 26.585938 105.589844 26.585938 104.886719 L 26.585938 102.976562 C 26.585938 102.273438 27.042969 101.703125 27.605469 101.703125 Z M 27.605469 101.703125 "/>
</g>
<mask id="mask25">
  <g filter="url(#alpha)">
<rect x="0" y="0" width="130" height="130" style="fill:rgb(0%,0%,0%);fill-opacity:0.101961;stroke:none;"/>
  </g>
</mask>
<clipPath id="clip26">
  <rect width="130" height="130"/>
</clipPath>
<g id="surface81" clip-path="url(#clip26)">
<path style=" stroke:none;fill-rule:nonzero;fill:rgb(45.882353%,21.176471%,84.313725%);fill-opacity:1;" d="M 39.945312 106.160156 L 49.703125 106.160156 C 50.265625 106.160156 50.71875 106.730469 50.71875 107.433594 L 50.71875 109.347656 C 50.71875 110.050781 50.265625 110.621094 49.703125 110.621094 L 39.945312 110.621094 C 39.382812 110.621094 38.925781 110.050781 38.925781 109.347656 L 38.925781 107.433594 C 38.925781 106.730469 39.382812 106.160156 39.945312 106.160156 Z M 39.945312 106.160156 "/>
</g>
<mask id="mask26">
  <g filter="url(#alpha)">
<rect x="0" y="0" width="130" height="130" style="fill:rgb(0%,0%,0%);fill-opacity:0.101961;stroke:none;"/>
  </g>
</mask>
<clipPath id="clip27">
  <rect width="130" height="130"/>
</clipPath>
<g id="surface84" clip-path="url(#clip27)">
<path style=" stroke:none;fill-rule:nonzero;fill:rgb(45.882353%,21.176471%,84.313725%);fill-opacity:1;" d="M 52.289062 110.621094 L 62.042969 110.621094 C 62.605469 110.621094 63.0625 111.191406 63.0625 111.894531 L 63.0625 113.804688 C 63.0625 114.507812 62.605469 115.078125 62.042969 115.078125 L 52.289062 115.078125 C 51.726562 115.078125 51.269531 114.507812 51.269531 113.804688 L 51.269531 111.894531 C 51.269531 111.191406 51.726562 110.621094 52.289062 110.621094 Z M 52.289062 110.621094 "/>
</g>
<mask id="mask27">
  <g filter="url(#alpha)">
<rect x="0" y="0" width="130" height="130" style="fill:rgb(0%,0%,0%);fill-opacity:0.101961;stroke:none;"/>
  </g>
</mask>
<clipPath id="clip28">
  <rect width="130" height="130"/>
</clipPath>
<g id="surface87" clip-path="url(#clip28)">
<path style=" stroke:none;fill-rule:nonzero;fill:rgb(45.882353%,21.176471%,84.313725%);fill-opacity:1;" d="M 27.605469 95.011719 L 37.359375 95.011719 C 37.921875 95.011719 38.378906 95.582031 38.378906 96.289062 L 38.378906 98.199219 C 38.378906 98.902344 37.921875 99.472656 37.359375 99.472656 L 27.605469 99.472656 C 27.042969 99.472656 26.585938 98.902344 26.585938 98.199219 L 26.585938 96.289062 C 26.585938 95.582031 27.042969 95.011719 27.605469 95.011719 Z M 27.605469 95.011719 "/>
</g>
<mask id="mask28">
  <g filter="url(#alpha)">
<rect x="0" y="0" width="130" height="130" style="fill:rgb(0%,0%,0%);fill-opacity:0.101961;stroke:none;"/>
  </g>
</mask>
<clipPath id="clip29">
  <rect width="130" height="130"/>
</clipPath>
<g id="surface90" clip-path="url(#clip29)">
<path style=" stroke:none;fill-rule:nonzero;fill:rgb(45.882353%,21.176471%,84.313725%);fill-opacity:1;" d="M 39.945312 99.472656 L 49.703125 99.472656 C 50.265625 99.472656 50.71875 100.042969 50.71875 100.746094 L 50.71875 102.65625 C 50.71875 103.359375 50.265625 103.929688 49.703125 103.929688 L 39.945312 103.929688 C 39.382812 103.929688 38.925781 103.359375 38.925781 102.65625 L 38.925781 100.746094 C 38.925781 100.042969 39.382812 99.472656 39.945312 99.472656 Z M 39.945312 99.472656 "/>
</g>
<mask id="mask29">
  <g filter="url(#alpha)">
<rect x="0" y="0" width="130" height="130" style="fill:rgb(0%,0%,0%);fill-opacity:0.101961;stroke:none;"/>
  </g>
</mask>
<clipPath id="clip30">
  <rect width="130" height="130"/>
</clipPath>
<g id="surface93" clip-path="url(#clip30)">
<path style=" stroke:none;fill-rule:nonzero;fill:rgb(45.882353%,21.176471%,84.313725%);fill-opacity:1;" d="M 52.289062 103.929688 L 62.042969 103.929688 C 62.605469 103.929688 63.0625 104.5 63.0625 105.207031 L 63.0625 107.117188 C 63.0625 107.820312 62.605469 108.390625 62.042969 108.390625 L 52.289062 108.390625 C 51.726562 108.390625 51.269531 107.820312 51.269531 107.117188 L 51.269531 105.207031 C 51.269531 104.5 51.726562 103.929688 52.289062 103.929688 Z M 52.289062 103.929688 "/>
</g>
<mask id="mask30">
  <g filter="url(#alpha)">
<rect x="0" y="0" width="130" height="130" style="fill:rgb(0%,0%,0%);fill-opacity:0.101961;stroke:none;"/>
  </g>
</mask>
<clipPath id="clip31">
  <rect width="130" height="130"/>
</clipPath>
<g id="surface96" clip-path="url(#clip31)">
<path style=" stroke:none;fill-rule:nonzero;fill:rgb(45.882353%,21.176471%,84.313725%);fill-opacity:1;" d="M 66 101.703125 L 75.757812 101.703125 C 76.320312 101.703125 76.777344 102.273438 76.777344 102.976562 L 76.777344 104.886719 C 76.777344 105.589844 76.320312 106.160156 75.757812 106.160156 L 66 106.160156 C 65.4375 106.160156 64.980469 105.589844 64.980469 104.886719 L 64.980469 102.976562 C 64.980469 102.273438 65.4375 101.703125 66 101.703125 Z M 66 101.703125 "/>
</g>
<mask id="mask31">
  <g filter="url(#alpha)">
<rect x="0" y="0" width="130" height="130" style="fill:rgb(0%,0%,0%);fill-opacity:0.101961;stroke:none;"/>
  </g>
</mask>
<clipPath id="clip32">
  <rect width="130" height="130"/>
</clipPath>
<g id="surface99" clip-path="url(#clip32)">
<path style=" stroke:none;fill-rule:nonzero;fill:rgb(45.882353%,21.176471%,84.313725%);fill-opacity:1;" d="M 78.34375 106.160156 L 88.097656 106.160156 C 88.660156 106.160156 89.117188 106.730469 89.117188 107.433594 L 89.117188 109.347656 C 89.117188 110.050781 88.660156 110.621094 88.097656 110.621094 L 78.34375 110.621094 C 77.78125 110.621094 77.324219 110.050781 77.324219 109.347656 L 77.324219 107.433594 C 77.324219 106.730469 77.78125 106.160156 78.34375 106.160156 Z M 78.34375 106.160156 "/>
</g>
<mask id="mask32">
  <g filter="url(#alpha)">
<rect x="0" y="0" width="130" height="130" style="fill:rgb(0%,0%,0%);fill-opacity:0.101961;stroke:none;"/>
  </g>
</mask>
<clipPath id="clip33">
  <rect width="130" height="130"/>
</clipPath>
<g id="surface102" clip-path="url(#clip33)">
<path style=" stroke:none;fill-rule:nonzero;fill:rgb(45.882353%,21.176471%,84.313725%);fill-opacity:1;" d="M 90.683594 110.621094 L 100.441406 110.621094 C 101.003906 110.621094 101.457031 111.191406 101.457031 111.894531 L 101.457031 113.804688 C 101.457031 114.507812 101.003906 115.078125 100.441406 115.078125 L 90.683594 115.078125 C 90.121094 115.078125 89.664062 114.507812 89.664062 113.804688 L 89.664062 111.894531 C 89.664062 111.191406 90.121094 110.621094 90.683594 110.621094 Z M 90.683594 110.621094 "/>
</g>
<mask id="mask33">
  <g filter="url(#alpha)">
<rect x="0" y="0" width="130" height="130" style="fill:rgb(0%,0%,0%);fill-opacity:0.101961;stroke:none;"/>
  </g>
</mask>
<clipPath id="clip34">
  <rect width="130" height="130"/>
</clipPath>
<g id="surface105" clip-path="url(#clip34)">
<path style=" stroke:none;fill-rule:nonzero;fill:rgb(45.882353%,21.176471%,84.313725%);fill-opacity:1;" d="M 66 95.011719 L 75.757812 95.011719 C 76.320312 95.011719 76.777344 95.582031 76.777344 96.289062 L 76.777344 98.199219 C 76.777344 98.902344 76.320312 99.472656 75.757812 99.472656 L 66 99.472656 C 65.4375 99.472656 64.980469 98.902344 64.980469 98.199219 L 64.980469 96.289062 C 64.980469 95.582031 65.4375 95.011719 66 95.011719 Z M 66 95.011719 "/>
</g>
<mask id="mask34">
  <g filter="url(#alpha)">
<rect x="0" y="0" width="130" height="130" style="fill:rgb(0%,0%,0%);fill-opacity:0.101961;stroke:none;"/>
  </g>
</mask>
<clipPath id="clip35">
  <rect width="130" height="130"/>
</clipPath>
<g id="surface108" clip-path="url(#clip35)">
<path style=" stroke:none;fill-rule:nonzero;fill:rgb(45.882353%,21.176471%,84.313725%);fill-opacity:1;" d="M 78.34375 99.472656 L 88.097656 99.472656 C 88.660156 99.472656 89.117188 100.042969 89.117188 100.746094 L 89.117188 102.65625 C 89.117188 103.359375 88.660156 103.929688 88.097656 103.929688 L 78.34375 103.929688 C 77.78125 103.929688 77.324219 103.359375 77.324219 102.65625 L 77.324219 100.746094 C 77.324219 100.042969 77.78125 99.472656 78.34375 99.472656 Z M 78.34375 99.472656 "/>
</g>
<mask id="mask35">
  <g filter="url(#alpha)">
<rect x="0" y="0" width="130" height="130" style="fill:rgb(0%,0%,0%);fill-opacity:0.101961;stroke:none;"/>
  </g>
</mask>
<clipPath id="clip36">
  <rect width="130" height="130"/>
</clipPath>
<g id="surface111" clip-path="url(#clip36)">
<path style=" stroke:none;fill-rule:nonzero;fill:rgb(45.882353%,21.176471%,84.313725%);fill-opacity:1;" d="M 90.683594 103.929688 L 100.441406 103.929688 C 101.003906 103.929688 101.457031 104.5 101.457031 105.207031 L 101.457031 107.117188 C 101.457031 107.820312 101.003906 108.390625 100.441406 108.390625 L 90.683594 108.390625 C 90.121094 108.390625 89.664062 107.820312 89.664062 107.117188 L 89.664062 105.207031 C 89.664062 104.5 90.121094 103.929688 90.683594 103.929688 Z M 90.683594 103.929688 "/>
</g>
<mask id="mask36">
  <g filter="url(#alpha)">
<rect x="0" y="0" width="130" height="130" style="fill:rgb(0%,0%,0%);fill-opacity:0.101961;stroke:none;"/>
  </g>
</mask>
<clipPath id="clip37">
  <rect width="130" height="130"/>
</clipPath>
<g id="surface114" clip-path="url(#clip37)">
<path style=" stroke:none;fill-rule:nonzero;fill:rgb(45.882353%,21.176471%,84.313725%);fill-opacity:1;" d="M 27.605469 86.09375 L 37.359375 86.09375 C 37.921875 86.09375 38.378906 86.664062 38.378906 87.371094 L 38.378906 89.28125 C 38.378906 89.984375 37.921875 90.554688 37.359375 90.554688 L 27.605469 90.554688 C 27.042969 90.554688 26.585938 89.984375 26.585938 89.28125 L 26.585938 87.371094 C 26.585938 86.664062 27.042969 86.09375 27.605469 86.09375 Z M 27.605469 86.09375 "/>
</g>
<mask id="mask37">
  <g filter="url(#alpha)">
<rect x="0" y="0" width="130" height="130" style="fill:rgb(0%,0%,0%);fill-opacity:0.101961;stroke:none;"/>
  </g>
</mask>
<clipPath id="clip38">
  <rect width="130" height="130"/>
</clipPath>
<g id="surface117" clip-path="url(#clip38)">
<path style=" stroke:none;fill-rule:nonzero;fill:rgb(45.882353%,21.176471%,84.313725%);fill-opacity:1;" d="M 39.945312 90.554688 L 49.703125 90.554688 C 50.265625 90.554688 50.71875 91.125 50.71875 91.828125 L 50.71875 93.738281 C 50.71875 94.441406 50.265625 95.011719 49.703125 95.011719 L 39.945312 95.011719 C 39.382812 95.011719 38.925781 94.441406 38.925781 93.738281 L 38.925781 91.828125 C 38.925781 91.125 39.382812 90.554688 39.945312 90.554688 Z M 39.945312 90.554688 "/>
</g>
<mask id="mask38">
  <g filter="url(#alpha)">
<rect x="0" y="0" width="130" height="130" style="fill:rgb(0%,0%,0%);fill-opacity:0.101961;stroke:none;"/>
  </g>
</mask>
<clipPath id="clip39">
  <rect width="130" height="130"/>
</clipPath>
<g id="surface120" clip-path="url(#clip39)">
<path style=" stroke:none;fill-rule:nonzero;fill:rgb(45.882353%,21.176471%,84.313725%);fill-opacity:1;" d="M 52.289062 95.011719 L 62.042969 95.011719 C 62.605469 95.011719 63.0625 95.582031 63.0625 96.289062 L 63.0625 98.199219 C 63.0625 98.902344 62.605469 99.472656 62.042969 99.472656 L 52.289062 99.472656 C 51.726562 99.472656 51.269531 98.902344 51.269531 98.199219 L 51.269531 96.289062 C 51.269531 95.582031 51.726562 95.011719 52.289062 95.011719 Z M 52.289062 95.011719 "/>
</g>
<mask id="mask39">
  <g filter="url(#alpha)">
<rect x="0" y="0" width="130" height="130" style="fill:rgb(0%,0%,0%);fill-opacity:0.101961;stroke:none;"/>
  </g>
</mask>
<clipPath id="clip40">
  <rect width="130" height="130"/>
</clipPath>
<g id="surface123" clip-path="url(#clip40)">
<path style=" stroke:none;fill-rule:nonzero;fill:rgb(45.882353%,21.176471%,84.313725%);fill-opacity:1;" d="M 27.605469 79.40625 L 37.359375 79.40625 C 37.921875 79.40625 38.378906 79.976562 38.378906 80.679688 L 38.378906 82.589844 C 38.378906 83.296875 37.921875 83.867188 37.359375 83.867188 L 27.605469 83.867188 C 27.042969 83.867188 26.585938 83.296875 26.585938 82.589844 L 26.585938 80.679688 C 26.585938 79.976562 27.042969 79.40625 27.605469 79.40625 Z M 27.605469 79.40625 "/>
</g>
<mask id="mask40">
  <g filter="url(#alpha)">
<rect x="0" y="0" width="130" height="130" style="fill:rgb(0%,0%,0%);fill-opacity:0.101961;stroke:none;"/>
  </g>
</mask>
<clipPath id="clip41">
  <rect width="130" height="130"/>
</clipPath>
<g id="surface126" clip-path="url(#clip41)">
<path style=" stroke:none;fill-rule:nonzero;fill:rgb(45.882353%,21.176471%,84.313725%);fill-opacity:1;" d="M 39.945312 83.867188 L 49.703125 83.867188 C 50.265625 83.867188 50.71875 84.4375 50.71875 85.140625 L 50.71875 87.050781 C 50.71875 87.753906 50.265625 88.324219 49.703125 88.324219 L 39.945312 88.324219 C 39.382812 88.324219 38.925781 87.753906 38.925781 87.050781 L 38.925781 85.140625 C 38.925781 84.4375 39.382812 83.867188 39.945312 83.867188 Z M 39.945312 83.867188 "/>
</g>
<mask id="mask41">
  <g filter="url(#alpha)">
<rect x="0" y="0" width="130" height="130" style="fill:rgb(0%,0%,0%);fill-opacity:0.101961;stroke:none;"/>
  </g>
</mask>
<clipPath id="clip42">
  <rect width="130" height="130"/>
</clipPath>
<g id="surface129" clip-path="url(#clip42)">
<path style=" stroke:none;fill-rule:nonzero;fill:rgb(45.882353%,21.176471%,84.313725%);fill-opacity:1;" d="M 52.289062 88.324219 L 62.042969 88.324219 C 62.605469 88.324219 63.0625 88.894531 63.0625 89.597656 L 63.0625 91.507812 C 63.0625 92.214844 62.605469 92.785156 62.042969 92.785156 L 52.289062 92.785156 C 51.726562 92.785156 51.269531 92.214844 51.269531 91.507812 L 51.269531 89.597656 C 51.269531 88.894531 51.726562 88.324219 52.289062 88.324219 Z M 52.289062 88.324219 "/>
</g>
<mask id="mask42">
  <g filter="url(#alpha)">
<rect x="0" y="0" width="130" height="130" style="fill:rgb(0%,0%,0%);fill-opacity:0.101961;stroke:none;"/>
  </g>
</mask>
<clipPath id="clip43">
  <rect width="130" height="130"/>
</clipPath>
<g id="surface132" clip-path="url(#clip43)">
<path style=" stroke:none;fill-rule:nonzero;fill:rgb(45.882353%,21.176471%,84.313725%);fill-opacity:1;" d="M 66 86.09375 L 75.757812 86.09375 C 76.320312 86.09375 76.777344 86.664062 76.777344 87.371094 L 76.777344 89.28125 C 76.777344 89.984375 76.320312 90.554688 75.757812 90.554688 L 66 90.554688 C 65.4375 90.554688 64.980469 89.984375 64.980469 89.28125 L 64.980469 87.371094 C 64.980469 86.664062 65.4375 86.09375 66 86.09375 Z M 66 86.09375 "/>
</g>
<mask id="mask43">
  <g filter="url(#alpha)">
<rect x="0" y="0" width="130" height="130" style="fill:rgb(0%,0%,0%);fill-opacity:0.101961;stroke:none;"/>
  </g>
</mask>
<clipPath id="clip44">
  <rect width="130" height="130"/>
</clipPath>
<g id="surface135" clip-path="url(#clip44)">
<path style=" stroke:none;fill-rule:nonzero;fill:rgb(45.882353%,21.176471%,84.313725%);fill-opacity:1;" d="M 78.34375 90.554688 L 88.097656 90.554688 C 88.660156 90.554688 89.117188 91.125 89.117188 91.828125 L 89.117188 93.738281 C 89.117188 94.441406 88.660156 95.011719 88.097656 95.011719 L 78.34375 95.011719 C 77.78125 95.011719 77.324219 94.441406 77.324219 93.738281 L 77.324219 91.828125 C 77.324219 91.125 77.78125 90.554688 78.34375 90.554688 Z M 78.34375 90.554688 "/>
</g>
<mask id="mask44">
  <g filter="url(#alpha)">
<rect x="0" y="0" width="130" height="130" style="fill:rgb(0%,0%,0%);fill-opacity:0.101961;stroke:none;"/>
  </g>
</mask>
<clipPath id="clip45">
  <rect width="130" height="130"/>
</clipPath>
<g id="surface138" clip-path="url(#clip45)">
<path style=" stroke:none;fill-rule:nonzero;fill:rgb(45.882353%,21.176471%,84.313725%);fill-opacity:1;" d="M 90.683594 95.011719 L 100.441406 95.011719 C 101.003906 95.011719 101.457031 95.582031 101.457031 96.289062 L 101.457031 98.199219 C 101.457031 98.902344 101.003906 99.472656 100.441406 99.472656 L 90.683594 99.472656 C 90.121094 99.472656 89.664062 98.902344 89.664062 98.199219 L 89.664062 96.289062 C 89.664062 95.582031 90.121094 95.011719 90.683594 95.011719 Z M 90.683594 95.011719 "/>
</g>
<mask id="mask45">
  <g filter="url(#alpha)">
<rect x="0" y="0" width="130" height="130" style="fill:rgb(0%,0%,0%);fill-opacity:0.101961;stroke:none;"/>
  </g>
</mask>
<clipPath id="clip46">
  <rect width="130" height="130"/>
</clipPath>
<g id="surface141" clip-path="url(#clip46)">
<path style=" stroke:none;fill-rule:nonzero;fill:rgb(45.882353%,21.176471%,84.313725%);fill-opacity:1;" d="M 66 79.40625 L 75.757812 79.40625 C 76.320312 79.40625 76.777344 79.976562 76.777344 80.679688 L 76.777344 82.589844 C 76.777344 83.296875 76.320312 83.867188 75.757812 83.867188 L 66 83.867188 C 65.4375 83.867188 64.980469 83.296875 64.980469 82.589844 L 64.980469 80.679688 C 64.980469 79.976562 65.4375 79.40625 66 79.40625 Z M 66 79.40625 "/>
</g>
<mask id="mask46">
  <g filter="url(#alpha)">
<rect x="0" y="0" width="130" height="130" style="fill:rgb(0%,0%,0%);fill-opacity:0.101961;stroke:none;"/>
  </g>
</mask>
<clipPath id="clip47">
  <rect width="130" height="130"/>
</clipPath>
<g id="surface144" clip-path="url(#clip47)">
<path style=" stroke:none;fill-rule:nonzero;fill:rgb(45.882353%,21.176471%,84.313725%);fill-opacity:1;" d="M 78.34375 83.867188 L 88.097656 83.867188 C 88.660156 83.867188 89.117188 84.4375 89.117188 85.140625 L 89.117188 87.050781 C 89.117188 87.753906 88.660156 88.324219 88.097656 88.324219 L 78.34375 88.324219 C 77.78125 88.324219 77.324219 87.753906 77.324219 87.050781 L 77.324219 85.140625 C 77.324219 84.4375 77.78125 83.867188 78.34375 83.867188 Z M 78.34375 83.867188 "/>
</g>
<mask id="mask47">
  <g filter="url(#alpha)">
<rect x="0" y="0" width="130" height="130" style="fill:rgb(0%,0%,0%);fill-opacity:0.101961;stroke:none;"/>
  </g>
</mask>
<clipPath id="clip48">
  <rect width="130" height="130"/>
</clipPath>
<g id="surface147" clip-path="url(#clip48)">
<path style=" stroke:none;fill-rule:nonzero;fill:rgb(45.882353%,21.176471%,84.313725%);fill-opacity:1;" d="M 90.683594 88.324219 L 100.441406 88.324219 C 101.003906 88.324219 101.457031 88.894531 101.457031 89.597656 L 101.457031 91.507812 C 101.457031 92.214844 101.003906 92.785156 100.441406 92.785156 L 90.683594 92.785156 C 90.121094 92.785156 89.664062 92.214844 89.664062 91.507812 L 89.664062 89.597656 C 89.664062 88.894531 90.121094 88.324219 90.683594 88.324219 Z M 90.683594 88.324219 "/>
</g>
<mask id="mask48">
  <g filter="url(#alpha)">
<rect x="0" y="0" width="130" height="130" style="fill:rgb(0%,0%,0%);fill-opacity:0.101961;stroke:none;"/>
  </g>
</mask>
<clipPath id="clip49">
  <rect width="130" height="130"/>
</clipPath>
<g id="surface150" clip-path="url(#clip49)">
<path style=" stroke:none;fill-rule:nonzero;fill:rgb(45.882353%,21.176471%,84.313725%);fill-opacity:1;" d="M 126.28125 123.824219 C 126.28125 120.414062 99.359375 117.652344 66.148438 117.652344 C 32.9375 117.652344 6.015625 120.414062 6.015625 123.824219 C 6.015625 127.234375 32.9375 130 66.148438 130 C 99.359375 130 126.28125 127.234375 126.28125 123.824219 Z M 126.28125 123.824219 "/>
</g>
<mask id="mask49">
  <g filter="url(#alpha)">
<rect x="0" y="0" width="130" height="130" style="fill:rgb(0%,0%,0%);fill-opacity:0.101961;stroke:none;"/>
  </g>
</mask>
<clipPath id="clip50">
  <rect width="130" height="130"/>
</clipPath>
<g id="surface153" clip-path="url(#clip50)">
<path style=" stroke:none;fill-rule:nonzero;fill:rgb(0%,0%,0%);fill-opacity:1;" d="M 16.300781 82.664062 L 116.269531 82.664062 L 116.269531 85.203125 C 116.269531 85.882812 115.828125 86.4375 115.28125 86.4375 L 17.289062 86.4375 C 16.742188 86.4375 16.300781 85.882812 16.300781 85.203125 Z M 16.300781 82.664062 "/>
</g>
<mask id="mask50">
  <g filter="url(#alpha)">
<rect x="0" y="0" width="130" height="130" style="fill:rgb(0%,0%,0%);fill-opacity:0.101961;stroke:none;"/>
  </g>
</mask>
<clipPath id="clip51">
  <rect width="130" height="130"/>
</clipPath>
<g id="surface156" clip-path="url(#clip51)">
<path style=" stroke:none;fill-rule:nonzero;fill:rgb(0%,0%,0%);fill-opacity:1;" d="M 88.648438 60.359375 C 88.507812 60.625 88.507812 60.953125 88.507812 61.261719 C 88.507812 62.78125 88.523438 64.308594 88.703125 65.808594 C 88.746094 66.167969 88.796875 66.53125 88.824219 66.894531 C 88.855469 67.398438 88.863281 67.90625 88.84375 68.414062 L 88.707031 75.015625 C 88.691406 75.824219 88.65625 76.691406 88.257812 77.328125 C 88.136719 77.539062 88.082031 77.800781 88.097656 78.058594 C 88.203125 79.714844 88.421875 81.359375 88.640625 82.996094 C 89.351562 82.597656 90.175781 82.644531 90.851562 83.128906 C 91.546875 80.410156 91.929688 77.578125 91.988281 74.726562 C 92.023438 73.320312 91.972656 71.90625 92.144531 70.519531 C 92.4375 68.183594 92.316406 65.789062 92.105469 63.4375 C 92.039062 62.695312 91.894531 61.929688 91.515625 61.351562 C 91.152344 60.847656 90.671875 60.5 90.144531 60.363281 C 89.636719 60.199219 89.183594 60.371094 88.648438 60.359375 Z M 88.648438 60.359375 "/>
</g>
<mask id="mask51">
  <g filter="url(#alpha)">
<rect x="0" y="0" width="130" height="130" style="fill:rgb(0%,0%,0%);fill-opacity:0.101961;stroke:none;"/>
  </g>
</mask>
<clipPath id="clip52">
  <rect width="130" height="130"/>
</clipPath>
<g id="surface159" clip-path="url(#clip52)">
<path style=" stroke:none;fill-rule:nonzero;fill:rgb(0%,0%,0%);fill-opacity:1;" d="M 93.050781 49.066406 L 93.46875 51.109375 C 93.582031 51.578125 93.648438 52.0625 93.65625 52.550781 C 93.660156 52.730469 93.628906 52.90625 93.566406 53.066406 C 93.496094 53.195312 93.410156 53.308594 93.304688 53.398438 C 93.019531 53.671875 92.820312 54.308594 92.492188 54.496094 C 92.660156 54.863281 92.894531 54.625 93.199219 54.808594 C 93.734375 55.132812 94.226562 55.601562 94.808594 55.761719 C 95.355469 55.914062 95.929688 55.769531 96.476562 55.589844 C 97.246094 55.328125 98.015625 54.96875 98.636719 54.335938 C 99.257812 53.703125 99.613281 53.140625 99.609375 52.140625 C 98.921875 52.242188 98.3125 51.378906 98.011719 50.597656 C 97.90625 50.304688 97.828125 49.992188 97.78125 49.675781 L 97.414062 47.652344 C 97.011719 47.761719 96.683594 48.121094 96.304688 48.308594 C 95.921875 48.496094 95.46875 48.511719 95.042969 48.535156 C 94.289062 48.578125 93.539062 48.699219 92.800781 48.898438 C 92.699219 48.925781 92.570312 49.003906 92.59375 49.128906 "/>
</g>
<mask id="mask52">
  <g filter="url(#alpha)">
<rect x="0" y="0" width="130" height="130" style="fill:rgb(0%,0%,0%);fill-opacity:0.101961;stroke:none;"/>
  </g>
</mask>
<clipPath id="clip53">
  <rect width="130" height="130"/>
</clipPath>
<g id="surface162" clip-path="url(#clip53)">
<path style=" stroke:none;fill-rule:nonzero;fill:rgb(45.882353%,21.176471%,84.313725%);fill-opacity:1;" d="M 119.570312 122.851562 C 119.570312 122.570312 118.492188 122.34375 117.164062 122.34375 C 115.839844 122.34375 114.761719 122.570312 114.761719 122.851562 C 114.761719 123.128906 115.839844 123.359375 117.164062 123.359375 C 118.492188 123.359375 119.570312 123.128906 119.570312 122.851562 Z M 119.570312 122.851562 "/>
</g>
<mask id="mask53">
  <g filter="url(#alpha)">
<rect x="0" y="0" width="130" height="130" style="fill:rgb(0%,0%,0%);fill-opacity:0.2;stroke:none;"/>
  </g>
</mask>
<clipPath id="clip54">
  <rect width="130" height="130"/>
</clipPath>
<g id="surface165" clip-path="url(#clip54)">
<path style=" stroke:none;fill-rule:nonzero;fill:rgb(0%,0%,0%);fill-opacity:1;" d="M 120.085938 122.597656 C 118.539062 122.613281 116.492188 122.292969 116.078125 121.980469 C 115.765625 121.742188 115.640625 120.882812 115.597656 120.488281 L 115.550781 120.488281 C 115.550781 120.488281 115.636719 121.871094 116.050781 122.183594 C 116.464844 122.5 118.511719 122.816406 120.058594 122.800781 C 120.503906 122.800781 120.660156 122.597656 120.652344 122.304688 C 120.589844 122.480469 120.425781 122.59375 120.085938 122.597656 Z M 120.085938 122.597656 "/>
</g>
<mask id="mask54">
  <g filter="url(#alpha)">
<rect x="0" y="0" width="130" height="130" style="fill:rgb(0%,0%,0%);fill-opacity:0.101961;stroke:none;"/>
  </g>
</mask>
<clipPath id="clip55">
  <rect width="130" height="130"/>
</clipPath>
<g id="surface168" clip-path="url(#clip55)">
<path style=" stroke:none;fill-rule:nonzero;fill:rgb(45.882353%,21.176471%,84.313725%);fill-opacity:1;" d="M 12.351562 124.191406 C 12.351562 123.96875 11.496094 123.789062 10.4375 123.789062 C 9.382812 123.789062 8.527344 123.96875 8.527344 124.191406 C 8.527344 124.417969 9.382812 124.597656 10.4375 124.597656 C 11.496094 124.597656 12.351562 124.417969 12.351562 124.191406 Z M 12.351562 124.191406 "/>
</g>
<mask id="mask55">
  <g filter="url(#alpha)">
<rect x="0" y="0" width="130" height="130" style="fill:rgb(0%,0%,0%);fill-opacity:0.2;stroke:none;"/>
  </g>
</mask>
<clipPath id="clip56">
  <rect width="130" height="130"/>
</clipPath>
<g id="surface171" clip-path="url(#clip56)">
<path style=" stroke:none;fill-rule:nonzero;fill:rgb(0%,0%,0%);fill-opacity:1;" d="M 12.761719 123.996094 C 11.527344 124.007812 9.902344 123.757812 9.574219 123.507812 C 9.324219 123.316406 9.226562 122.632812 9.191406 122.320312 L 9.15625 122.320312 C 9.15625 122.320312 9.222656 123.417969 9.550781 123.667969 C 9.878906 123.921875 11.507812 124.171875 12.738281 124.160156 C 13.09375 124.160156 13.21875 123.996094 13.210938 123.761719 C 13.160156 123.898438 13.027344 123.988281 12.761719 123.996094 Z M 12.761719 123.996094 "/>
</g>
</defs>
<g id="surface1">
<use xlink:href="#surface6" mask="url(#mask0)"/>
<use xlink:href="#surface9" mask="url(#mask1)"/>
<use xlink:href="#surface12" mask="url(#mask2)"/>
<use xlink:href="#surface15" mask="url(#mask3)"/>
<use xlink:href="#surface18" mask="url(#mask4)"/>
<use xlink:href="#surface21" mask="url(#mask5)"/>
<use xlink:href="#surface24" mask="url(#mask6)"/>
<use xlink:href="#surface27" mask="url(#mask7)"/>
<use xlink:href="#surface30" mask="url(#mask8)"/>
<use xlink:href="#surface33" mask="url(#mask9)"/>
<use xlink:href="#surface36" mask="url(#mask10)"/>
<use xlink:href="#surface39" mask="url(#mask11)"/>
<use xlink:href="#surface42" mask="url(#mask12)"/>
<use xlink:href="#surface45" mask="url(#mask13)"/>
<use xlink:href="#surface48" mask="url(#mask14)"/>
<use xlink:href="#surface51" mask="url(#mask15)"/>
<use xlink:href="#surface54" mask="url(#mask16)"/>
<use xlink:href="#surface57" mask="url(#mask17)"/>
<use xlink:href="#surface60" mask="url(#mask18)"/>
<use xlink:href="#surface63" mask="url(#mask19)"/>
<use xlink:href="#surface66" mask="url(#mask20)"/>
<use xlink:href="#surface69" mask="url(#mask21)"/>
<use xlink:href="#surface72" mask="url(#mask22)"/>
<use xlink:href="#surface75" mask="url(#mask23)"/>
<use xlink:href="#surface78" mask="url(#mask24)"/>
<use xlink:href="#surface81" mask="url(#mask25)"/>
<use xlink:href="#surface84" mask="url(#mask26)"/>
<use xlink:href="#surface87" mask="url(#mask27)"/>
<use xlink:href="#surface90" mask="url(#mask28)"/>
<use xlink:href="#surface93" mask="url(#mask29)"/>
<use xlink:href="#surface96" mask="url(#mask30)"/>
<use xlink:href="#surface99" mask="url(#mask31)"/>
<use xlink:href="#surface102" mask="url(#mask32)"/>
<use xlink:href="#surface105" mask="url(#mask33)"/>
<use xlink:href="#surface108" mask="url(#mask34)"/>
<use xlink:href="#surface111" mask="url(#mask35)"/>
<use xlink:href="#surface114" mask="url(#mask36)"/>
<use xlink:href="#surface117" mask="url(#mask37)"/>
<use xlink:href="#surface120" mask="url(#mask38)"/>
<use xlink:href="#surface123" mask="url(#mask39)"/>
<use xlink:href="#surface126" mask="url(#mask40)"/>
<use xlink:href="#surface129" mask="url(#mask41)"/>
<use xlink:href="#surface132" mask="url(#mask42)"/>
<use xlink:href="#surface135" mask="url(#mask43)"/>
<use xlink:href="#surface138" mask="url(#mask44)"/>
<use xlink:href="#surface141" mask="url(#mask45)"/>
<use xlink:href="#surface144" mask="url(#mask46)"/>
<use xlink:href="#surface147" mask="url(#mask47)"/>
<use xlink:href="#surface150" mask="url(#mask48)"/>
<path style=" stroke:none;fill-rule:nonzero;fill:rgb(45.882353%,21.176471%,84.313725%);fill-opacity:1;" d="M 11.609375 32.035156 C 17.277344 35.109375 20.535156 41.46875 20.535156 41.46875 C 20.535156 41.46875 14.601562 42.839844 8.929688 39.769531 C 3.257812 36.699219 0 30.335938 0 30.335938 C 0 30.335938 5.9375 28.964844 11.609375 32.035156 Z M 11.609375 32.035156 "/>
<path style=" stroke:none;fill-rule:nonzero;fill:rgb(45.882353%,21.176471%,84.313725%);fill-opacity:1;" d="M 29.011719 20.238281 C 30.765625 16.636719 33.75 14.921875 33.75 14.921875 C 33.75 14.921875 33.886719 19.027344 32.140625 22.617188 C 30.390625 26.210938 27.398438 27.921875 27.398438 27.921875 C 27.398438 27.921875 27.253906 23.820312 29.011719 20.238281 Z M 29.011719 20.238281 "/>
<path style=" stroke:none;fill-rule:nonzero;fill:rgb(27.45098%,27.058824%,35.686275%);fill-opacity:1;" d="M 16.117188 24.089844 C 17.371094 29.691406 20.832031 33.378906 20.832031 33.378906 C 20.832031 33.378906 22.253906 27.984375 21 22.378906 C 19.746094 16.777344 16.285156 13.089844 16.285156 13.089844 C 16.285156 13.089844 14.859375 18.488281 16.117188 24.089844 Z M 16.117188 24.089844 "/>
<path style=" stroke:none;fill-rule:nonzero;fill:rgb(24.705882%,23.921569%,33.72549%);fill-opacity:1;" d="M 17.289062 23.839844 L 115.28125 23.839844 C 115.828125 23.839844 116.269531 24.394531 116.269531 25.074219 L 116.269531 85.203125 C 116.269531 85.882812 115.828125 86.4375 115.28125 86.4375 L 17.289062 86.4375 C 16.742188 86.4375 16.300781 85.882812 16.300781 85.203125 L 16.300781 25.074219 C 16.300781 24.394531 16.742188 23.839844 17.289062 23.839844 Z M 17.289062 23.839844 "/>
<use xlink:href="#surface153" mask="url(#mask49)"/>
<path style=" stroke:none;fill-rule:nonzero;fill:rgb(45.882353%,21.176471%,84.313725%);fill-opacity:1;" d="M 26.378906 78.035156 L 33.097656 78.035156 C 33.289062 78.035156 33.441406 78.226562 33.441406 78.464844 L 33.441406 82.234375 C 33.441406 82.472656 33.289062 82.664062 33.097656 82.664062 L 26.378906 82.664062 C 26.191406 82.664062 26.035156 82.472656 26.035156 82.234375 L 26.035156 78.464844 C 26.035156 78.226562 26.191406 78.035156 26.378906 78.035156 Z M 26.378906 78.035156 "/>
<path style=" stroke:none;fill-rule:nonzero;fill:rgb(45.882353%,21.176471%,84.313725%);fill-opacity:1;" d="M 35.773438 81.980469 L 40.296875 81.980469 C 40.449219 81.980469 40.574219 82.132812 40.574219 82.320312 C 40.574219 82.511719 40.449219 82.664062 40.296875 82.664062 L 35.773438 82.664062 C 35.621094 82.664062 35.5 82.511719 35.5 82.320312 C 35.5 82.132812 35.621094 81.980469 35.773438 81.980469 Z M 35.773438 81.980469 "/>
<path style=" stroke:none;fill-rule:nonzero;fill:rgb(45.882353%,21.176471%,84.313725%);fill-opacity:1;" d="M 30.996094 36.082031 C 34.613281 36.917969 38.304688 36.082031 41.910156 35.515625 L 52.859375 33.800781 C 53.304688 33.730469 53.949219 33.398438 54.210938 34.074219 C 54.355469 34.457031 54.257812 35.277344 54.269531 35.710938 C 54.296875 36.914062 54.292969 38.113281 54.269531 39.3125 C 54.21875 41.609375 54.085938 43.898438 53.914062 46.183594 C 53.578125 50.652344 53.109375 55.101562 52.871094 59.589844 C 52.75 61.875 52.691406 64.164062 52.746094 66.449219 C 52.757812 66.996094 52.773438 67.539062 52.800781 68.082031 C 52.828125 68.691406 53.046875 69.597656 52.515625 70.003906 C 52.214844 70.234375 51.617188 70.222656 51.269531 70.292969 C 50.722656 70.402344 50.171875 70.488281 49.613281 70.558594 C 45.925781 71.019531 42.191406 70.824219 38.488281 70.796875 L 27.3125 70.726562 L 24.585938 70.707031 C 24.339844 70.707031 23.449219 70.894531 23.296875 70.527344 C 23.234375 70.371094 23.40625 69.640625 23.4375 69.445312 C 23.476562 69.121094 23.523438 68.800781 23.574219 68.476562 C 23.890625 66.222656 24.265625 63.980469 24.644531 61.742188 C 25.457031 56.9375 26.289062 52.113281 26.625 47.207031 C 26.792969 44.746094 26.679688 42.265625 26.882812 39.808594 C 26.980469 38.667969 27.089844 36.121094 28.304688 36.019531 C 29.332031 35.933594 30.390625 36.019531 31.421875 36.019531 C 31.539062 36.019531 31.628906 35.90625 31.628906 35.765625 C 31.628906 35.621094 31.539062 35.507812 31.421875 35.507812 C 30.449219 35.507812 29.476562 35.472656 28.5 35.496094 C 27.855469 35.511719 27.402344 35.707031 27.09375 36.449219 C 26.308594 38.359375 26.386719 40.910156 26.363281 42.996094 C 26.304688 47.988281 25.691406 52.871094 24.894531 57.753906 C 24.492188 60.214844 24.058594 62.664062 23.660156 65.121094 C 23.472656 66.296875 23.292969 67.476562 23.128906 68.65625 C 23.050781 69.21875 22.664062 70.457031 23.003906 70.976562 C 23.34375 71.492188 24.394531 71.214844 24.867188 71.21875 L 28.136719 71.242188 L 34.40625 71.285156 C 38.457031 71.316406 42.523438 71.457031 46.574219 71.308594 C 48.507812 71.234375 50.550781 71.136719 52.433594 70.558594 C 52.992188 70.386719 53.261719 70.066406 53.285156 69.316406 C 53.316406 68.15625 53.167969 66.960938 53.148438 65.796875 C 53.011719 55.832031 54.882812 46.007812 54.691406 36.039062 C 54.679688 35.363281 54.882812 33.652344 54.289062 33.246094 C 54.023438 33.058594 53.679688 33.160156 53.398438 33.203125 C 52.863281 33.277344 52.332031 33.371094 51.796875 33.453125 L 44.851562 34.535156 C 42.628906 34.878906 40.410156 35.25 38.1875 35.566406 C 35.832031 35.90625 33.453125 36.113281 31.109375 35.566406 C 30.847656 35.503906 30.738281 36 31 36.058594 Z M 30.996094 36.082031 "/>
<path style=" stroke:none;fill-rule:nonzero;fill:rgb(45.882353%,21.176471%,84.313725%);fill-opacity:1;" d="M 26.628906 42.144531 L 54.03125 40.464844 C 54.292969 40.445312 54.296875 39.929688 54.03125 39.949219 L 26.628906 41.628906 C 26.363281 41.644531 26.363281 42.160156 26.628906 42.144531 Z M 26.628906 42.144531 "/>
<path style=" stroke:none;fill-rule:nonzero;fill:rgb(45.882353%,21.176471%,84.313725%);fill-opacity:1;" d="M 35.070312 37.902344 C 34.914062 38.109375 34.851562 38.398438 34.898438 38.675781 C 34.949219 38.953125 35.101562 39.179688 35.3125 39.285156 C 35.679688 39.496094 36.113281 39.320312 36.480469 39.207031 C 37.03125 39.035156 37.578125 38.882812 38.140625 38.757812 C 39.367188 38.484375 40.609375 38.339844 41.855469 38.324219 C 42.425781 38.316406 42.988281 38.347656 43.554688 38.378906 C 43.96875 38.398438 44.410156 38.441406 44.757812 38.121094 C 45.15625 37.757812 45.285156 37.046875 44.894531 36.605469 C 44.347656 35.980469 43.164062 36.34375 42.53125 36.410156 C 40.230469 36.648438 37.949219 37.074219 35.695312 37.683594 C 35.4375 37.753906 35.542969 38.25 35.804688 38.179688 C 37.289062 37.777344 38.789062 37.457031 40.300781 37.214844 C 41.042969 37.097656 41.785156 37.003906 42.53125 36.921875 C 42.882812 36.886719 43.234375 36.855469 43.585938 36.828125 C 43.722656 36.820312 43.867188 36.800781 44.007812 36.804688 C 44.441406 36.816406 44.492188 36.71875 44.230469 37.375 C 44 37.957031 44.074219 37.890625 43.671875 37.871094 C 43.503906 37.871094 43.332031 37.847656 43.160156 37.835938 C 42.8125 37.820312 42.464844 37.808594 42.117188 37.808594 C 41.375 37.808594 40.636719 37.851562 39.898438 37.941406 C 39.273438 38.015625 38.648438 38.125 38.03125 38.261719 C 37.644531 38.347656 37.261719 38.445312 36.878906 38.554688 C 36.707031 38.605469 36.539062 38.65625 36.371094 38.710938 C 36.289062 38.738281 36.207031 38.761719 36.125 38.789062 C 35.824219 38.917969 35.570312 38.746094 35.359375 38.273438 C 35.542969 38.035156 35.253906 37.667969 35.070312 37.910156 Z M 35.070312 37.902344 "/>
<path style=" stroke:none;fill-rule:nonzero;fill:rgb(45.882353%,21.176471%,84.313725%);fill-opacity:1;" d="M 40.035156 45.222656 C 38.050781 45.125 35.910156 45.796875 34.601562 47.792969 C 33.578125 49.355469 32.996094 52.039062 34.078125 53.796875 C 35.242188 55.683594 37.796875 55.351562 39.335938 54.546875 C 40.964844 53.6875 42.75 51.921875 43.238281 49.707031 C 43.847656 46.945312 41.867188 44.855469 39.804688 44.824219 C 39.539062 44.824219 39.539062 45.339844 39.804688 45.339844 C 40.980469 45.359375 42.136719 45.988281 42.683594 47.359375 C 43.257812 48.804688 42.761719 50.320312 41.996094 51.476562 C 40.773438 53.316406 38.855469 54.703125 36.902344 54.664062 C 35.730469 54.640625 34.433594 54.136719 34.070312 52.589844 C 33.769531 51.339844 34 49.96875 34.519531 48.855469 C 35.648438 46.457031 37.941406 45.640625 40.046875 45.746094 C 40.308594 45.757812 40.308594 45.242188 40.046875 45.230469 Z M 40.035156 45.222656 "/>
<path style=" stroke:none;fill-rule:nonzero;fill:rgb(45.882353%,21.176471%,84.313725%);fill-opacity:1;" d="M 38.066406 49.03125 C 37.894531 48.953125 37.703125 48.988281 37.554688 49.128906 C 37.410156 49.269531 37.332031 49.492188 37.347656 49.71875 C 37.390625 50.386719 37.976562 50.578125 38.421875 50.535156 C 38.804688 50.496094 39.25 50.320312 39.117188 49.722656 C 39.066406 49.507812 38.945312 49.328125 38.78125 49.238281 C 38.660156 49.175781 38.527344 49.15625 38.394531 49.175781 C 38.34375 49.175781 37.878906 49.390625 38.078125 49.132812 L 37.753906 49.082031 C 37.828125 49.171875 37.863281 49.296875 37.851562 49.425781 C 37.851562 49.515625 37.894531 49.597656 37.957031 49.644531 C 38.019531 49.691406 38.097656 49.691406 38.160156 49.644531 C 38.257812 49.59375 38.367188 49.617188 38.445312 49.703125 C 38.523438 49.785156 38.558594 49.921875 38.53125 50.046875 C 38.507812 50.167969 38.5625 50.292969 38.652344 50.34375 C 38.746094 50.394531 38.855469 50.351562 38.90625 50.246094 C 39.046875 49.9375 39.210938 49.324219 39.003906 49 C 38.867188 48.78125 38.605469 48.847656 38.4375 48.976562 C 38.335938 49.066406 38.242188 49.167969 38.15625 49.277344 C 37.992188 49.460938 37.882812 49.546875 37.945312 49.195312 C 38.046875 48.554688 38.535156 48.046875 38.980469 47.792969 L 38.679688 47.5 C 38.519531 48.246094 38.238281 48.9375 37.847656 49.535156 L 38.199219 49.714844 C 38.179688 49.234375 38.402344 48.785156 38.761719 48.597656 L 38.558594 48.597656 L 38.664062 48.820312 C 38.625 49.144531 39.023438 49.28125 39.0625 48.953125 C 39.113281 48.53125 38.898438 47.980469 38.503906 48.1875 C 38.03125 48.433594 37.785156 49.113281 37.792969 49.714844 C 37.792969 49.921875 38.027344 50.082031 38.148438 49.898438 C 38.582031 49.238281 38.902344 48.464844 39.082031 47.636719 C 39.101562 47.535156 39.070312 47.429688 39.003906 47.367188 C 38.9375 47.304688 38.851562 47.296875 38.777344 47.347656 C 38.367188 47.578125 38.019531 47.957031 37.78125 48.433594 C 37.613281 48.777344 37.402344 49.3125 37.574219 49.707031 C 37.628906 49.835938 37.722656 49.929688 37.835938 49.96875 C 37.949219 50.007812 38.066406 49.988281 38.167969 49.917969 C 38.296875 49.824219 38.410156 49.707031 38.511719 49.574219 C 38.5625 49.519531 38.621094 49.421875 38.6875 49.402344 C 38.746094 49.351562 38.746094 49.382812 38.679688 49.496094 C 38.675781 49.671875 38.636719 49.847656 38.558594 49.996094 L 38.933594 50.191406 C 39.003906 49.863281 38.914062 49.519531 38.703125 49.304688 C 38.492188 49.09375 38.199219 49.054688 37.960938 49.210938 L 38.269531 49.433594 C 38.277344 49.214844 38.222656 49 38.113281 48.828125 C 38.082031 48.757812 38.027344 48.714844 37.964844 48.703125 C 37.902344 48.695312 37.835938 48.71875 37.792969 48.773438 C 37.582031 49.046875 37.542969 49.519531 37.804688 49.769531 C 38 49.957031 38.097656 49.769531 38.3125 49.726562 C 39.042969 49.609375 38.617188 50.019531 38.359375 50.035156 C 38.246094 50.050781 38.128906 50.039062 38.015625 50.003906 C 37.730469 49.882812 37.710938 49.726562 37.960938 49.535156 C 38.207031 49.660156 38.3125 49.164062 38.070312 49.039062 Z M 38.066406 49.03125 "/>
<path style=" stroke:none;fill-rule:nonzero;fill:rgb(45.882353%,21.176471%,84.313725%);fill-opacity:1;" d="M 37.734375 49.972656 C 37.90625 50.660156 37.207031 50.886719 36.878906 51.121094 C 36.644531 51.285156 36.441406 51.507812 36.285156 51.773438 C 35.9375 52.351562 35.808594 53.089844 35.695312 53.785156 C 35.644531 54.109375 36.039062 54.246094 36.09375 53.921875 C 36.15625 53.410156 36.273438 52.914062 36.441406 52.441406 C 36.6875 51.828125 37.039062 51.621094 37.5 51.304688 C 37.960938 50.988281 38.296875 50.5 38.132812 49.835938 C 38.054688 49.519531 37.65625 49.65625 37.734375 49.972656 Z M 37.734375 49.972656 "/>
<path style=" stroke:none;fill-rule:nonzero;fill:rgb(45.882353%,21.176471%,84.313725%);fill-opacity:1;" d="M 38.421875 49.628906 C 38.21875 49.664062 38.070312 49.886719 38.078125 50.144531 C 38.078125 50.347656 38.1875 50.476562 38.261719 50.640625 C 38.4375 50.972656 38.570312 51.339844 38.660156 51.722656 C 38.722656 52.089844 38.789062 52.75 38.636719 53.09375 C 38.351562 53.730469 37.839844 53.609375 37.402344 53.609375 C 36.988281 53.609375 36.671875 53.78125 36.683594 53.0625 C 36.695312 52.660156 36.917969 52.253906 37.097656 51.933594 L 36.722656 51.875 C 36.800781 52.398438 36.84375 52.929688 36.84375 53.460938 C 36.84375 53.699219 37.136719 53.832031 37.226562 53.589844 C 37.449219 53.011719 37.625 52.40625 37.75 51.78125 L 37.347656 51.714844 L 37.417969 53.015625 C 37.421875 53.132812 37.480469 53.230469 37.570312 53.261719 C 37.660156 53.289062 37.75 53.246094 37.800781 53.148438 C 37.847656 53.082031 37.882812 53 37.902344 52.914062 C 37.917969 52.835938 37.789062 52.292969 37.738281 52.484375 L 38.144531 52.554688 L 38.171875 51.316406 L 37.761719 51.382812 C 37.847656 51.734375 37.875 52.101562 37.835938 52.464844 C 37.8125 52.75 38.195312 52.816406 38.25 52.535156 L 38.507812 50.871094 L 38.128906 50.929688 C 38.21875 51.160156 38.246094 51.421875 38.199219 51.671875 C 38.171875 52 38.582031 51.996094 38.613281 51.671875 C 38.648438 51.328125 38.601562 50.980469 38.484375 50.671875 C 38.441406 50.582031 38.363281 50.535156 38.28125 50.546875 C 38.199219 50.5625 38.132812 50.632812 38.109375 50.734375 L 37.851562 52.394531 L 38.253906 52.464844 C 38.296875 52.054688 38.265625 51.640625 38.164062 51.25 C 38.136719 51.125 38.039062 51.050781 37.9375 51.066406 C 37.839844 51.082031 37.761719 51.1875 37.761719 51.316406 L 37.730469 52.554688 C 37.730469 52.855469 38.066406 52.898438 38.136719 52.621094 L 38.15625 52.539062 C 38.175781 52.449219 38.15625 52.355469 38.105469 52.289062 C 37.679688 51.707031 37.59375 52.632812 37.445312 52.886719 L 37.828125 53.015625 L 37.757812 51.714844 C 37.742188 51.4375 37.414062 51.351562 37.351562 51.644531 C 37.238281 52.226562 37.078125 52.789062 36.875 53.332031 L 37.257812 53.460938 C 37.253906 52.882812 37.207031 52.304688 37.121094 51.734375 C 37.085938 51.5 36.835938 51.507812 36.746094 51.675781 C 36.46875 52.167969 35.996094 53.246094 36.363281 53.839844 C 36.679688 54.351562 37.6875 54.152344 38.117188 54.121094 C 38.792969 54.074219 39.039062 53.535156 39.113281 52.738281 C 39.148438 52.355469 39.128906 51.96875 39.0625 51.59375 C 39.023438 51.390625 38.648438 50.105469 38.539062 50.132812 C 38.796875 50.074219 38.6875 49.574219 38.429688 49.636719 Z M 38.421875 49.628906 "/>
<path style=" stroke:none;fill-rule:nonzero;fill:rgb(45.882353%,21.176471%,84.313725%);fill-opacity:1;" d="M 37.625 50.785156 L 36.5 52.636719 L 36.855469 52.898438 L 37.679688 51.410156 L 37.304688 51.210938 L 36.894531 53.167969 C 36.871094 53.289062 36.921875 53.414062 37.015625 53.464844 C 37.105469 53.511719 37.214844 53.472656 37.269531 53.363281 C 37.457031 52.980469 37.664062 52.609375 37.894531 52.261719 L 37.554688 52.011719 C 37.460938 52.453125 37.285156 52.863281 37.035156 53.199219 L 37.378906 53.449219 C 37.402344 53.214844 37.453125 52.984375 37.53125 52.765625 C 37.636719 52.46875 37.300781 52.207031 37.175781 52.503906 C 37.058594 52.777344 36.925781 53.035156 36.777344 53.28125 L 37.152344 53.34375 L 37.238281 52.855469 L 36.863281 52.792969 L 36.921875 53.222656 C 36.941406 53.3125 37 53.378906 37.070312 53.402344 C 37.140625 53.425781 37.214844 53.398438 37.265625 53.335938 C 37.613281 52.886719 37.894531 52.359375 38.089844 51.785156 L 37.734375 51.785156 C 37.828125 52 37.894531 52.230469 37.929688 52.46875 C 37.976562 52.777344 38.304688 52.664062 38.332031 52.402344 C 38.390625 51.828125 38.421875 51.25 38.421875 50.667969 L 38.011719 50.667969 L 38.011719 51.746094 C 38.011719 52.027344 38.378906 52.109375 38.414062 51.816406 C 38.441406 51.554688 38.511719 51.304688 38.617188 51.078125 L 38.257812 51.078125 C 38.34375 51.253906 38.390625 51.457031 38.394531 51.664062 C 38.394531 51.804688 38.484375 51.917969 38.597656 51.917969 C 38.714844 51.917969 38.804688 51.804688 38.804688 51.664062 L 38.855469 51.320312 L 38.460938 51.320312 C 38.5 51.621094 38.652344 53.332031 38.117188 53.132812 C 38.023438 53.105469 38 53.113281 38.039062 53.152344 L 38.160156 52.824219 L 38.445312 52.066406 L 38.0625 51.933594 C 38.085938 52.289062 38.113281 52.792969 37.941406 53.09375 C 37.804688 53.339844 37.382812 53.4375 37.167969 53.292969 C 37.027344 53.167969 36.90625 53.007812 36.808594 52.824219 L 36.527344 53.167969 C 36.757812 53.375 37.125 53.882812 37.417969 53.914062 C 37.640625 53.933594 37.832031 53.703125 37.976562 53.519531 C 38.433594 52.929688 38.675781 52.132812 38.648438 51.316406 C 38.648438 51.175781 38.554688 51.058594 38.441406 51.058594 C 38.328125 51.058594 38.234375 51.175781 38.234375 51.316406 L 38.234375 51.902344 C 38.234375 52.046875 38.328125 52.160156 38.441406 52.160156 C 38.554688 52.160156 38.648438 52.046875 38.648438 51.902344 L 38.648438 50.464844 C 38.648438 50.324219 38.554688 50.207031 38.441406 50.207031 C 38.328125 50.207031 38.234375 50.324219 38.234375 50.464844 C 38.234375 50.808594 38.210938 51.152344 38.164062 51.492188 L 38.570312 51.5625 C 38.539062 51.152344 38.523438 50.742188 38.523438 50.328125 C 38.523438 50.203125 38.445312 50.09375 38.347656 50.078125 C 38.246094 50.0625 38.148438 50.136719 38.121094 50.261719 C 38.058594 50.589844 37.984375 50.910156 37.910156 51.230469 L 38.285156 51.167969 L 38.257812 51.03125 C 38.238281 50.707031 37.828125 50.703125 37.847656 51.03125 C 37.851562 51.171875 37.878906 51.308594 37.933594 51.429688 C 38.011719 51.640625 38.257812 51.566406 38.308594 51.367188 C 38.386719 51.046875 38.457031 50.722656 38.515625 50.398438 L 38.113281 50.328125 C 38.109375 50.742188 38.125 51.152344 38.15625 51.5625 C 38.179688 51.828125 38.519531 51.941406 38.5625 51.632812 C 38.617188 51.242188 38.644531 50.851562 38.648438 50.457031 L 38.234375 50.457031 L 38.234375 51.898438 L 38.648438 51.898438 L 38.648438 51.3125 L 38.234375 51.3125 C 38.261719 51.957031 38.082031 52.589844 37.734375 53.074219 C 37.683594 53.148438 37.625 53.21875 37.5625 53.285156 C 37.464844 53.402344 37.375 53.386719 37.296875 53.234375 C 37.101562 53.132812 36.902344 52.871094 36.730469 52.71875 C 36.5625 52.566406 36.328125 52.867188 36.449219 53.070312 C 36.765625 53.59375 37.234375 54.179688 37.820312 53.925781 C 38.4375 53.65625 38.519531 52.613281 38.472656 51.925781 C 38.457031 51.699219 38.183594 51.542969 38.089844 51.796875 C 37.953125 52.160156 37.816406 52.519531 37.679688 52.882812 C 37.632812 53.011719 37.542969 53.183594 37.554688 53.335938 C 37.601562 53.722656 37.976562 53.660156 38.207031 53.636719 C 39.097656 53.550781 38.957031 51.96875 38.855469 51.171875 C 38.820312 50.910156 38.511719 50.949219 38.457031 51.171875 C 38.414062 51.328125 38.390625 51.496094 38.390625 51.660156 L 38.800781 51.660156 C 38.789062 51.367188 38.722656 51.078125 38.609375 50.816406 C 38.570312 50.742188 38.503906 50.691406 38.429688 50.691406 C 38.359375 50.691406 38.292969 50.742188 38.253906 50.816406 C 38.132812 51.082031 38.046875 51.375 38.011719 51.675781 L 38.421875 51.746094 L 38.421875 50.664062 C 38.421875 50.523438 38.328125 50.410156 38.214844 50.410156 C 38.101562 50.410156 38.011719 50.523438 38.011719 50.664062 C 38.007812 51.246094 37.976562 51.824219 37.917969 52.398438 L 38.324219 52.328125 C 38.277344 52.050781 38.199219 51.777344 38.089844 51.527344 C 38.050781 51.449219 37.984375 51.402344 37.910156 51.402344 C 37.839844 51.402344 37.773438 51.449219 37.734375 51.527344 C 37.554688 52.0625 37.296875 52.554688 36.976562 52.972656 L 37.320312 53.085938 L 37.261719 52.660156 C 37.226562 52.429688 36.96875 52.421875 36.882812 52.597656 C 36.746094 52.859375 36.699219 53.179688 36.757812 53.480469 C 36.792969 53.726562 37.039062 53.699219 37.136719 53.542969 C 37.28125 53.296875 37.414062 53.039062 37.53125 52.765625 L 37.175781 52.507812 C 37.082031 52.761719 37.015625 53.035156 36.984375 53.3125 C 36.960938 53.539062 37.175781 53.777344 37.328125 53.5625 C 37.625 53.160156 37.835938 52.675781 37.949219 52.148438 C 38 51.914062 37.742188 51.691406 37.605469 51.898438 C 37.355469 52.273438 37.125 52.675781 36.921875 53.097656 L 37.296875 53.296875 L 37.714844 51.347656 C 37.738281 51.222656 37.6875 51.097656 37.59375 51.050781 C 37.5 51 37.394531 51.042969 37.339844 51.148438 L 36.515625 52.636719 C 36.363281 52.914062 36.714844 53.152344 36.871094 52.898438 L 37.992188 51.042969 C 38.148438 50.78125 37.792969 50.53125 37.636719 50.785156 Z M 37.625 50.785156 "/>
<path style=" stroke:none;fill-rule:nonzero;fill:rgb(45.882353%,21.176471%,84.313725%);fill-opacity:1;" d="M 55.121094 56.972656 C 56.765625 55.714844 58.074219 53.835938 59.527344 52.265625 C 61.105469 50.5625 62.757812 48.976562 64.464844 47.472656 C 67.773438 44.558594 71.25 41.949219 74.722656 39.347656 C 74.816406 39.273438 74.847656 39.121094 74.792969 39 C 74.734375 38.882812 74.613281 38.839844 74.515625 38.902344 C 71.042969 41.503906 67.566406 44.109375 64.253906 47.03125 C 62.695312 48.402344 61.167969 49.855469 59.707031 51.398438 C 58.117188 53.082031 56.699219 55.171875 54.90625 56.53125 C 54.679688 56.699219 54.886719 57.148438 55.113281 56.972656 Z M 55.121094 56.972656 "/>
<path style=" stroke:none;fill-rule:nonzero;fill:rgb(45.882353%,21.176471%,84.313725%);fill-opacity:1;" d="M 80.035156 31.359375 C 78.253906 31.585938 76.332031 32.152344 75.234375 34.105469 C 74.289062 35.78125 74.308594 38.707031 75.199219 40.429688 C 76.210938 42.386719 78.273438 42.457031 79.878906 41.824219 C 81.484375 41.191406 83.144531 40.082031 83.128906 37.683594 C 83.121094 36.398438 82.75 35.058594 82.339844 33.890625 C 81.984375 32.882812 81.359375 32.003906 80.410156 32.117188 C 80.148438 32.148438 80.144531 32.660156 80.410156 32.628906 C 81.679688 32.484375 82.089844 34.371094 82.390625 35.5625 C 82.664062 36.675781 82.917969 37.992188 82.488281 39.097656 C 82.058594 40.207031 81.019531 40.769531 80.132812 41.175781 C 79.171875 41.609375 78.117188 41.875 77.117188 41.519531 C 75.128906 40.824219 74.582031 37.675781 75.152344 35.441406 C 75.8125 32.871094 78.144531 32.113281 80.042969 31.875 C 80.300781 31.839844 80.304688 31.328125 80.042969 31.359375 Z M 80.035156 31.359375 "/>
<path style=" stroke:none;fill-rule:nonzero;fill:rgb(45.882353%,21.176471%,84.313725%);fill-opacity:1;" d="M 82.777344 51.253906 C 80.996094 51.480469 79.074219 52.046875 77.976562 53.996094 C 77.03125 55.675781 77.050781 58.601562 77.941406 60.324219 C 78.953125 62.28125 81.015625 62.351562 82.621094 61.71875 C 84.226562 61.085938 85.886719 59.976562 85.871094 57.578125 C 85.863281 56.292969 85.492188 54.953125 85.082031 53.785156 C 84.726562 52.777344 84.101562 51.898438 83.152344 52.011719 C 82.890625 52.042969 82.886719 52.554688 83.152344 52.523438 C 84.421875 52.378906 84.832031 54.265625 85.132812 55.457031 C 85.40625 56.570312 85.660156 57.886719 85.230469 58.992188 C 84.800781 60.101562 83.761719 60.664062 82.875 61.070312 C 81.914062 61.503906 80.859375 61.769531 79.859375 61.414062 C 77.871094 60.71875 77.324219 57.570312 77.894531 55.335938 C 78.554688 52.765625 80.886719 52.007812 82.785156 51.769531 C 83.046875 51.734375 83.046875 51.222656 82.785156 51.253906 Z M 82.777344 51.253906 "/>
<path style=" stroke:none;fill-rule:nonzero;fill:rgb(45.882353%,21.176471%,84.313725%);fill-opacity:1;" d="M 77.347656 36.367188 L 78.644531 38.222656 C 78.695312 38.285156 78.773438 38.308594 78.84375 38.285156 C 78.910156 38.261719 78.96875 38.195312 78.988281 38.105469 C 79.261719 37.203125 79.210938 36.269531 79.273438 35.320312 C 79.34375 34.339844 79.542969 33.382812 79.855469 32.480469 C 80.488281 30.648438 81.5625 29.113281 82.925781 28.082031 C 83.152344 27.910156 82.945312 27.464844 82.71875 27.636719 C 81.375 28.648438 80.296875 30.128906 79.617188 31.898438 C 79.28125 32.761719 79.050781 33.675781 78.929688 34.621094 C 78.792969 35.734375 78.917969 36.902344 78.589844 37.96875 L 78.933594 37.855469 L 77.640625 36.003906 C 77.464844 35.757812 77.175781 36.121094 77.351562 36.367188 Z M 77.347656 36.367188 "/>
<path style=" stroke:none;fill-rule:nonzero;fill:rgb(45.882353%,21.176471%,84.313725%);fill-opacity:1;" d="M 55.78125 58.976562 C 62.855469 58.707031 69.929688 58.652344 77.007812 58.808594 C 77.273438 58.808594 77.273438 58.292969 77.007812 58.292969 C 69.933594 58.132812 62.855469 58.191406 55.78125 58.464844 C 55.515625 58.472656 55.515625 58.988281 55.78125 58.976562 Z M 55.78125 58.976562 "/>
<path style=" stroke:none;fill-rule:nonzero;fill:rgb(45.882353%,21.176471%,84.313725%);fill-opacity:1;" d="M 78.484375 53.90625 C 80.902344 55.09375 83.230469 56.554688 85.433594 58.273438 C 85.660156 58.445312 85.867188 58.003906 85.640625 57.828125 C 83.40625 56.089844 81.050781 54.609375 78.601562 53.410156 C 78.355469 53.289062 78.25 53.785156 78.492188 53.90625 Z M 78.484375 53.90625 "/>
<path style=" stroke:none;fill-rule:nonzero;fill:rgb(45.882353%,21.176471%,84.313725%);fill-opacity:1;" d="M 82.875 51.574219 C 80.425781 55.148438 79.003906 59.652344 78.84375 64.355469 C 78.832031 64.6875 79.242188 64.6875 79.253906 64.355469 C 79.410156 59.785156 80.789062 55.414062 83.167969 51.9375 C 83.339844 51.6875 83.050781 51.324219 82.875 51.574219 Z M 82.875 51.574219 "/>
<path style=" stroke:none;fill-rule:nonzero;fill:rgb(45.882353%,21.176471%,84.313725%);fill-opacity:1;" d="M 28.03125 57.109375 L 43.359375 56.859375 L 45.121094 56.832031 C 45.4375 56.832031 45.753906 56.816406 46.070312 56.816406 C 46.515625 56.816406 46.816406 57.277344 46.808594 57.84375 C 46.789062 59.046875 46.183594 59.003906 45.394531 59.046875 L 43.488281 59.152344 L 35.734375 59.582031 C 34.34375 59.65625 32.953125 59.753906 31.566406 59.8125 C 30.3125 59.859375 27.929688 59.347656 28.484375 57.066406 C 28.5625 56.75 28.164062 56.613281 28.085938 56.929688 C 27.8125 58.050781 28.296875 59.191406 29.078125 59.78125 C 30.1875 60.613281 31.652344 60.328125 32.875 60.261719 L 42.398438 59.722656 L 44.710938 59.59375 C 45.300781 59.558594 46.125 59.710938 46.671875 59.363281 C 47.308594 58.960938 47.421875 57.359375 47.019531 56.6875 C 46.8125 56.34375 46.523438 56.3125 46.195312 56.296875 C 45.34375 56.257812 44.476562 56.328125 43.621094 56.339844 L 38.875 56.417969 L 28.027344 56.589844 C 27.761719 56.589844 27.761719 57.105469 28.027344 57.105469 Z M 28.03125 57.109375 "/>
<path style=" stroke:none;fill-rule:nonzero;fill:rgb(19.607843%,20.392157%,26.666667%);fill-opacity:1;" d="M 89.957031 120.136719 C 89.609375 120.410156 89.214844 120.5625 88.859375 120.800781 C 88.503906 121.039062 88.15625 121.398438 88.054688 121.890625 C 88.015625 122.042969 88.023438 122.210938 88.070312 122.359375 C 88.160156 122.535156 88.296875 122.671875 88.457031 122.738281 C 89.921875 123.550781 91.585938 123.574219 93.066406 122.804688 C 93.324219 122.648438 93.589844 122.515625 93.859375 122.410156 C 94.195312 122.324219 94.539062 122.28125 94.878906 122.277344 C 95.238281 122.253906 95.597656 122.195312 95.949219 122.105469 C 96.128906 122.082031 96.296875 121.996094 96.4375 121.855469 C 96.5625 121.671875 96.640625 121.441406 96.652344 121.199219 C 96.816406 119.863281 96.570312 118.5 95.96875 117.378906 C 95.890625 117.222656 95.789062 117.085938 95.667969 116.984375 C 95.523438 116.886719 95.359375 116.832031 95.195312 116.824219 C 94.507812 116.71875 93.789062 116.527344 93.097656 116.507812 C 92.601562 116.492188 92.351562 116.789062 92 117.214844 C 91.273438 118.121094 90.851562 119.441406 89.957031 120.136719 Z M 89.957031 120.136719 "/>
<path style=" stroke:none;fill-rule:nonzero;fill:rgb(19.607843%,20.392157%,26.666667%);fill-opacity:1;" d="M 100.0625 120.011719 C 100.0625 120.851562 100.140625 121.742188 100.550781 122.414062 C 100.734375 122.703125 100.960938 122.949219 101.214844 123.140625 C 102.078125 123.828125 103.21875 124.078125 104.125 123.5 C 104.273438 123.414062 104.398438 123.285156 104.488281 123.117188 C 104.625 122.820312 104.550781 122.445312 104.476562 122.117188 L 103.164062 116.421875 C 102.3125 116.585938 101.066406 116.703125 100.3125 117.238281 C 99.765625 117.628906 100.0625 119.261719 100.0625 120.011719 Z M 100.0625 120.011719 "/>
<path style=" stroke:none;fill-rule:nonzero;fill:rgb(98.431373%,70.196078%,69.803922%);fill-opacity:1;" d="M 89.1875 84.949219 C 89.105469 85.265625 88.816406 85.410156 88.660156 85.675781 C 88.476562 85.984375 88.496094 86.414062 88.5625 86.792969 C 88.644531 87.347656 88.855469 87.863281 89.164062 88.277344 C 89.484375 88.691406 89.941406 88.886719 90.398438 88.800781 C 90.839844 88.695312 91.222656 88.207031 91.234375 87.648438 C 91.226562 87.390625 91.183594 87.140625 91.105469 86.90625 L 90.171875 83.523438 C 90.164062 83.472656 90.140625 83.433594 90.105469 83.40625 C 90.070312 83.398438 90.035156 83.40625 90.003906 83.429688 C 89.78125 83.558594 89.339844 83.699219 89.210938 83.984375 C 89.082031 84.269531 89.277344 84.640625 89.1875 84.949219 Z M 89.1875 84.949219 "/>
<path style=" stroke:none;fill-rule:nonzero;fill:rgb(19.607843%,20.392157%,26.666667%);fill-opacity:1;" d="M 88.75 84.78125 C 89.089844 84.714844 89.390625 84.464844 89.707031 84.300781 C 90.027344 84.132812 90.429688 84.070312 90.695312 84.34375 C 90.773438 84.425781 90.847656 84.53125 90.949219 84.53125 C 90.8125 83.691406 90.605469 82.875 90.332031 82.089844 C 90.324219 82.050781 90.304688 82.019531 90.28125 81.996094 C 90.242188 81.976562 90.199219 81.976562 90.164062 81.996094 L 89.242188 82.296875 C 88.898438 82.40625 88.859375 82.375 88.886719 82.792969 C 88.890625 82.980469 88.96875 84.78125 88.75 84.78125 Z M 88.75 84.78125 "/>
<path style=" stroke:none;fill-rule:nonzero;fill:rgb(35.686275%,33.333333%,51.372549%);fill-opacity:1;" d="M 88.648438 60.359375 C 88.507812 60.625 88.507812 60.953125 88.507812 61.261719 C 88.507812 62.78125 88.523438 64.308594 88.703125 65.808594 C 88.746094 66.167969 88.796875 66.53125 88.824219 66.894531 C 88.855469 67.398438 88.863281 67.90625 88.84375 68.414062 L 88.707031 75.015625 C 88.691406 75.824219 88.65625 76.691406 88.257812 77.328125 C 88.136719 77.539062 88.082031 77.800781 88.097656 78.058594 C 88.203125 79.714844 88.421875 81.359375 88.640625 82.996094 C 89.351562 82.597656 90.175781 82.644531 90.851562 83.128906 C 91.546875 80.410156 91.929688 77.578125 91.988281 74.726562 C 92.023438 73.320312 91.972656 71.90625 92.144531 70.519531 C 92.4375 68.183594 92.316406 65.789062 92.105469 63.4375 C 92.039062 62.695312 91.894531 61.929688 91.515625 61.351562 C 91.152344 60.847656 90.671875 60.5 90.144531 60.363281 C 89.636719 60.199219 89.183594 60.371094 88.648438 60.359375 Z M 88.648438 60.359375 "/>
<use xlink:href="#surface156" mask="url(#mask50)"/>
<path style=" stroke:none;fill-rule:nonzero;fill:rgb(23.529412%,20.784314%,29.803922%);fill-opacity:1;" d="M 90.324219 79.507812 C 89.402344 85.402344 89.90625 91.503906 91.765625 97.042969 C 91.925781 97.453125 92.039062 97.886719 92.101562 98.339844 C 92.175781 99.179688 91.867188 99.988281 91.6875 100.800781 C 91.277344 102.648438 91.515625 104.617188 91.777344 106.507812 C 91.886719 107.296875 92 108.085938 92.117188 108.875 C 92.230469 109.640625 92.339844 110.476562 92.054688 111.175781 C 92.300781 112.453125 92.445312 113.722656 92.691406 115 C 92.71875 115.101562 92.726562 115.207031 92.714844 115.3125 C 92.664062 115.480469 92.578125 115.628906 92.464844 115.734375 C 92.089844 116.207031 91.945312 116.890625 92.082031 117.53125 C 92.707031 116.96875 93.582031 117.164062 94.296875 117.53125 C 95.011719 117.894531 95.71875 118.386719 96.492188 118.386719 C 96.378906 117.253906 96.269531 116.058594 96.605469 114.996094 C 96.800781 114.378906 97.140625 113.792969 97.132812 113.132812 C 97.121094 112.542969 96.832031 112.015625 96.761719 111.429688 C 96.738281 111.066406 96.75 110.699219 96.796875 110.339844 C 96.980469 108.238281 96.773438 106.121094 96.5625 104.023438 C 96.539062 103.609375 96.460938 103.207031 96.332031 102.824219 C 96.234375 102.578125 96.089844 102.339844 96.09375 102.0625 C 96.09375 101.742188 96.300781 101.480469 96.375 101.175781 C 96.515625 100.613281 96.261719 99.847656 96.640625 99.5 C 97.644531 98.582031 97.257812 96.386719 97.238281 94.835938 C 97.21875 93.496094 97.171875 92.160156 97.097656 90.820312 C 97.730469 93.039062 97.988281 95.394531 97.855469 97.738281 C 97.8125 98.507812 97.730469 99.316406 97.972656 100.027344 C 98.15625 100.570312 98.519531 101.019531 98.617188 101.597656 C 98.679688 101.957031 98.636719 102.324219 98.652344 102.6875 C 98.664062 103.050781 98.761719 103.449219 99.015625 103.632812 C 99.03125 105.285156 99.152344 107.054688 99.171875 108.707031 C 99.160156 109.550781 99.214844 110.394531 99.335938 111.226562 C 99.398438 111.492188 99.433594 111.765625 99.4375 112.039062 C 99.40625 112.386719 99.332031 112.722656 99.222656 113.039062 C 98.734375 114.835938 98.992188 116.816406 99.90625 118.332031 C 100.230469 117.613281 100.90625 117.230469 101.5625 117.171875 C 102.222656 117.113281 102.871094 117.320312 103.507812 117.527344 C 103.410156 116.527344 103.570312 115.511719 103.964844 114.628906 C 104.070312 114.429688 104.152344 114.214844 104.203125 113.984375 C 104.277344 113.550781 104.105469 113.117188 104.011719 112.683594 C 103.859375 112 103.914062 111.257812 103.949219 110.542969 C 104.070312 108.140625 103.984375 105.730469 103.695312 103.351562 C 103.652344 102.886719 103.5625 102.425781 103.433594 101.980469 C 103.382812 101.824219 103.324219 101.671875 103.28125 101.511719 C 103.21875 101.226562 103.179688 100.933594 103.171875 100.636719 L 103.015625 97.890625 C 102.90625 95.96875 103.410156 94.070312 103.761719 92.195312 C 103.917969 91.351562 104.089844 90.515625 104.195312 89.660156 C 104.339844 88.496094 104.363281 87.308594 104.574219 86.160156 C 104.765625 85.132812 105.105469 84.128906 105.175781 83.074219 C 105.285156 81.441406 104.742188 79.859375 104.214844 78.363281 C 103.996094 77.746094 103.167969 77.804688 102.632812 77.695312 C 98.851562 76.917969 94.867188 76.914062 91.296875 78.664062 C 90.929688 78.855469 90.597656 79.144531 90.324219 79.507812 Z M 90.324219 79.507812 "/>
<path style=" stroke:none;fill-rule:nonzero;fill:rgb(98.431373%,70.196078%,69.803922%);fill-opacity:1;" d="M 93.050781 49.066406 L 93.46875 51.109375 C 93.582031 51.578125 93.648438 52.0625 93.65625 52.550781 C 93.660156 52.730469 93.628906 52.90625 93.566406 53.066406 C 93.496094 53.195312 93.410156 53.308594 93.304688 53.398438 C 93.019531 53.671875 92.820312 54.308594 92.492188 54.496094 C 92.660156 54.863281 92.894531 54.625 93.199219 54.808594 C 93.734375 55.132812 94.226562 55.601562 94.808594 55.761719 C 95.355469 55.914062 95.929688 55.769531 96.476562 55.589844 C 97.246094 55.328125 98.015625 54.96875 98.636719 54.335938 C 99.257812 53.703125 99.613281 53.140625 99.609375 52.140625 C 98.921875 52.242188 98.3125 51.378906 98.011719 50.597656 C 97.90625 50.304688 97.828125 49.992188 97.78125 49.675781 L 97.414062 47.652344 C 97.011719 47.761719 96.683594 48.121094 96.304688 48.308594 C 95.921875 48.496094 95.46875 48.511719 95.042969 48.535156 C 94.289062 48.578125 93.539062 48.699219 92.800781 48.898438 C 92.699219 48.925781 92.570312 49.003906 92.59375 49.128906 "/>
<use xlink:href="#surface159" mask="url(#mask51)"/>
<path style=" stroke:none;fill-rule:nonzero;fill:rgb(98.431373%,70.196078%,69.803922%);fill-opacity:1;" d="M 98.484375 45.652344 C 98.484375 48.160156 96.859375 50.191406 94.851562 50.191406 C 92.847656 50.191406 91.222656 48.160156 91.222656 45.652344 C 91.222656 43.144531 92.847656 41.109375 94.851562 41.109375 C 96.859375 41.109375 98.484375 43.144531 98.484375 45.652344 Z M 98.484375 45.652344 "/>
<path style=" stroke:none;fill-rule:nonzero;fill:rgb(19.607843%,20.392157%,26.666667%);fill-opacity:1;" d="M 95.851562 53.136719 C 96.046875 52.613281 96.328125 52.144531 96.675781 51.765625 C 97.1875 51.203125 97.886719 50.75 98.007812 49.914062 L 99.113281 51.527344 C 99.175781 51.601562 99.222656 51.691406 99.25 51.789062 C 99.28125 51.980469 99.242188 52.171875 99.148438 52.324219 C 98.871094 52.871094 98.441406 53.261719 98.03125 53.660156 C 97.09375 54.585938 96.199219 55.574219 95.34375 56.621094 C 95.308594 56.675781 95.257812 56.714844 95.203125 56.730469 C 95.148438 56.734375 95.097656 56.714844 95.050781 56.679688 C 94.316406 56.195312 93.664062 55.53125 93.136719 54.730469 C 93.097656 54.671875 93.046875 54.601562 92.984375 54.605469 C 92.945312 54.617188 92.910156 54.640625 92.878906 54.671875 C 92.511719 55.050781 92.109375 55.503906 91.636719 55.445312 C 92.246094 54.894531 92.59375 53.972656 92.722656 53.042969 C 92.75 52.722656 92.800781 52.410156 92.878906 52.105469 C 92.960938 51.792969 93.164062 51.558594 93.414062 51.46875 C 93.117188 52.042969 93.320312 52.851562 93.722656 53.3125 C 94.113281 53.726562 94.582031 54.011719 95.082031 54.136719 C 95.546875 54.246094 95.6875 53.585938 95.851562 53.136719 Z M 95.851562 53.136719 "/>
<path style=" stroke:none;fill-rule:nonzero;fill:rgb(19.607843%,20.392157%,26.666667%);fill-opacity:1;" d="M 91.128906 79.972656 C 91.644531 80.132812 92.132812 80.40625 92.636719 80.605469 C 93.550781 80.964844 94.511719 81.089844 95.46875 80.976562 C 95.761719 80.96875 96.046875 80.855469 96.289062 80.648438 C 96.355469 80.585938 96.414062 80.507812 96.484375 80.449219 C 96.597656 80.359375 96.722656 80.296875 96.851562 80.257812 C 98.109375 79.765625 99.160156 78.703125 100.183594 77.664062 C 100.214844 77.628906 100.253906 77.585938 100.25 77.53125 C 100.246094 77.496094 100.230469 77.460938 100.210938 77.433594 L 99.671875 76.664062 C 98.261719 76.960938 96.820312 76.847656 95.386719 76.804688 C 95.09375 76.789062 94.800781 76.796875 94.507812 76.832031 C 94.226562 76.875 93.945312 76.964844 93.667969 77.039062 C 92.609375 77.328125 91.53125 77.4375 90.460938 77.625 C 90.386719 77.632812 90.3125 77.660156 90.246094 77.707031 C 90.203125 77.753906 90.164062 77.804688 90.132812 77.867188 L 89.757812 78.527344 C 89.613281 78.75 89.503906 79.007812 89.441406 79.28125 C 89.355469 79.796875 89.539062 79.96875 89.886719 79.902344 C 90.300781 79.828125 90.722656 79.851562 91.128906 79.972656 Z M 91.128906 79.972656 "/>
<path style=" stroke:none;fill-rule:nonzero;fill:rgb(35.686275%,33.333333%,51.372549%);fill-opacity:1;" d="M 95.332031 55.835938 C 94.910156 55.300781 94.433594 54.835938 93.917969 54.457031 C 93.707031 54.289062 93.476562 54.171875 93.230469 54.113281 C 92.984375 54.050781 92.726562 54.128906 92.527344 54.328125 C 92.40625 54.464844 92.332031 54.652344 92.210938 54.796875 C 92.0625 54.953125 91.894531 55.070312 91.710938 55.152344 C 91.085938 55.484375 90.496094 55.90625 89.945312 56.40625 C 89.648438 56.667969 89.378906 56.980469 89.148438 57.332031 C 88.527344 58.324219 88.433594 59.679688 88.449219 60.941406 C 88.460938 61.820312 89.136719 62.46875 89.597656 63.128906 C 90.035156 63.773438 90.425781 64.460938 90.773438 65.183594 C 91.023438 65.679688 91.285156 66.214844 91.253906 66.800781 C 91.226562 67.285156 91.003906 67.738281 91.039062 68.21875 C 91.050781 68.390625 91.09375 68.546875 91.105469 68.714844 C 91.132812 69.054688 91.023438 69.398438 90.996094 69.742188 C 90.957031 70.226562 91.085938 70.710938 91.09375 71.199219 C 91.085938 71.53125 91.054688 71.867188 90.992188 72.191406 C 90.726562 73.757812 90.398438 75.335938 90.464844 76.933594 L 89.703125 77.105469 C 89.851562 77.285156 89.917969 77.539062 89.890625 77.792969 C 89.859375 78.046875 89.738281 78.265625 89.558594 78.386719 C 90.742188 78.882812 92.027344 78.632812 93.285156 78.632812 C 94.324219 78.632812 95.359375 78.800781 96.398438 78.777344 C 97.441406 78.753906 98.511719 78.519531 99.367188 77.785156 C 99.601562 77.585938 99.816406 77.351562 100.0625 77.179688 C 100.390625 76.964844 100.746094 76.820312 101.109375 76.75 C 101.789062 76.589844 102.476562 76.511719 103.167969 76.519531 C 103.503906 76.519531 103.871094 76.535156 104.140625 76.285156 C 104.4375 76.003906 104.511719 75.492188 104.550781 75.03125 C 104.59375 74.542969 104.617188 74.054688 104.625 73.566406 C 104.636719 73.1875 104.621094 72.804688 104.574219 72.429688 C 104.535156 72.152344 104.480469 71.878906 104.414062 71.613281 L 103.898438 69.332031 C 103.683594 68.394531 103.980469 67.363281 104.046875 66.390625 C 104.058594 66.160156 104.0625 65.890625 103.921875 65.746094 C 103.871094 65.691406 103.800781 65.65625 103.785156 65.574219 C 103.769531 65.492188 103.78125 65.410156 103.816406 65.34375 C 104.09375 64.65625 104.503906 64.050781 104.878906 63.433594 C 105.511719 62.347656 106.097656 61.21875 106.632812 60.058594 C 106.464844 57.628906 105.648438 55.339844 104.3125 53.5625 C 104.035156 53.191406 103.722656 52.832031 103.339844 52.664062 C 103.089844 52.570312 102.828125 52.515625 102.566406 52.507812 C 101.492188 52.417969 100.371094 52.335938 99.433594 51.664062 C 99.367188 51.605469 99.292969 51.5625 99.210938 51.542969 C 99.003906 51.515625 98.851562 51.769531 98.71875 51.972656 C 98.375 52.488281 97.863281 52.78125 97.417969 53.160156 C 96.582031 53.871094 95.933594 54.84375 95.332031 55.835938 Z M 95.332031 55.835938 "/>
<path style=" stroke:none;fill-rule:nonzero;fill:rgb(35.686275%,33.333333%,51.372549%);fill-opacity:1;" d="M 106.726562 60.761719 C 106.941406 61.609375 106.921875 62.511719 106.992188 63.394531 C 107.03125 63.929688 107.105469 64.457031 107.214844 64.976562 C 107.261719 65.261719 107.351562 65.53125 107.476562 65.78125 C 107.597656 66.007812 107.773438 66.191406 107.851562 66.445312 C 107.894531 66.617188 107.914062 66.800781 107.910156 66.980469 L 107.925781 68.164062 C 107.960938 68.792969 107.886719 69.421875 107.703125 70.007812 L 107.113281 72.253906 C 106.792969 73.472656 106.464844 74.707031 105.886719 75.769531 C 105.808594 75.949219 105.683594 76.09375 105.535156 76.183594 C 105.417969 76.21875 105.300781 76.242188 105.179688 76.25 C 104.75 76.347656 104.433594 76.8125 104.429688 77.359375 C 104.289062 77.109375 104.121094 76.890625 103.921875 76.714844 L 102.71875 75.511719 C 102.308594 75.09375 101.878906 74.667969 101.378906 74.425781 C 102.75 73.890625 103.742188 72.394531 103.90625 70.609375 C 103.90625 70.351562 103.953125 70.09375 104.042969 69.859375 C 104.144531 69.65625 104.328125 69.503906 104.339844 69.261719 C 104.359375 68.964844 104.085938 68.738281 104.085938 68.4375 C 104.085938 68.238281 104.203125 68.074219 104.257812 67.886719 C 104.304688 67.65625 104.304688 67.414062 104.257812 67.179688 L 104.089844 66.027344 C 104.082031 65.914062 104.054688 65.800781 104.007812 65.699219 C 103.945312 65.601562 103.878906 65.511719 103.800781 65.429688 C 103.515625 65.027344 103.644531 64.398438 103.800781 63.90625 C 104.167969 62.816406 104.636719 61.78125 105.203125 60.832031 C 105.40625 60.511719 105.589844 60.179688 105.761719 59.835938 C 105.90625 59.519531 105.941406 59.082031 106.09375 58.804688 C 106.292969 59.453125 106.558594 60.09375 106.726562 60.761719 Z M 106.726562 60.761719 "/>
<path style=" stroke:none;fill-rule:nonzero;fill:rgb(19.607843%,20.392157%,26.666667%);fill-opacity:1;" d="M 101.335938 74.496094 C 101.277344 74.554688 101.222656 74.625 101.179688 74.703125 C 101.019531 74.957031 100.804688 75.148438 100.558594 75.257812 C 100.695312 75.382812 100.820312 75.503906 100.949219 75.628906 C 101.902344 76.550781 102.777344 77.59375 103.554688 78.746094 C 103.640625 78.359375 104.160156 78.386719 104.285156 78.015625 C 104.316406 77.910156 104.324219 77.796875 104.3125 77.6875 C 104.285156 77.109375 104.21875 76.535156 104.113281 75.972656 C 104.074219 75.683594 103.980469 75.410156 103.839844 75.171875 C 103.648438 74.878906 103.351562 74.742188 103.066406 74.621094 C 102.632812 74.433594 101.777344 74.167969 101.335938 74.496094 Z M 101.335938 74.496094 "/>
<path style=" stroke:none;fill-rule:nonzero;fill:rgb(98.431373%,70.196078%,69.803922%);fill-opacity:1;" d="M 99.621094 75.847656 C 99.210938 76.226562 98.851562 76.703125 98.386719 76.964844 C 98.0625 77.148438 97.691406 77.230469 97.40625 77.507812 C 97.558594 77.933594 97.964844 78.15625 98.335938 78.136719 C 98.710938 78.089844 99.070312 77.925781 99.382812 77.660156 C 99.625 77.46875 99.914062 77.25 100.183594 77.382812 C 100.222656 77.644531 100.046875 77.886719 100.046875 78.152344 C 100.046875 78.417969 100.21875 78.609375 100.394531 78.746094 C 101.214844 79.410156 102.273438 79.355469 103.253906 79.28125 C 103.3125 79.28125 103.367188 79.261719 103.414062 79.222656 C 103.457031 79.160156 103.476562 79.078125 103.472656 78.996094 C 103.484375 78.722656 103.488281 78.453125 103.492188 78.183594 C 103.546875 77.738281 103.394531 77.289062 103.09375 77.039062 C 102.5625 76.464844 101.988281 75.957031 101.378906 75.519531 C 100.777344 75.082031 100.164062 75.339844 99.621094 75.847656 Z M 99.621094 75.847656 "/>
<path style=" stroke:none;fill-rule:nonzero;fill:rgb(23.529412%,20.784314%,29.803922%);fill-opacity:1;" d="M 96.128906 43.753906 C 95.519531 43.84375 95.074219 44.4375 95.136719 45.085938 C 95.199219 45.730469 95.742188 46.175781 96.351562 46.085938 C 96.960938 45.992188 97.402344 45.398438 97.339844 44.753906 C 97.277344 44.109375 96.734375 43.660156 96.128906 43.753906 Z M 96.335938 45.90625 C 95.820312 45.984375 95.359375 45.605469 95.304688 45.058594 C 95.253906 44.515625 95.628906 44.007812 96.144531 43.933594 C 96.65625 43.855469 97.117188 44.234375 97.171875 44.78125 C 97.226562 45.324219 96.847656 45.828125 96.335938 45.90625 Z M 96.335938 45.90625 "/>
<path style=" stroke:none;fill-rule:nonzero;fill:rgb(23.529412%,20.784314%,29.803922%);fill-opacity:1;" d="M 93.160156 44.199219 C 92.550781 44.289062 92.109375 44.882812 92.167969 45.527344 C 92.230469 46.175781 92.773438 46.621094 93.382812 46.53125 C 93.992188 46.441406 94.433594 45.84375 94.375 45.199219 C 94.3125 44.550781 93.769531 44.105469 93.160156 44.199219 Z M 93.367188 46.351562 C 92.851562 46.429688 92.390625 46.046875 92.339844 45.503906 C 92.289062 44.960938 92.660156 44.457031 93.175781 44.375 C 93.691406 44.296875 94.152344 44.679688 94.203125 45.222656 C 94.257812 45.769531 93.882812 46.273438 93.367188 46.351562 Z M 93.367188 46.351562 "/>
<path style=" stroke:none;fill-rule:nonzero;fill:rgb(23.529412%,20.784314%,29.803922%);fill-opacity:1;" d="M 90.957031 44.527344 L 92.28125 44.882812 L 92.148438 45.316406 L 90.902344 44.859375 Z M 90.957031 44.527344 "/>
<path style=" stroke:none;fill-rule:nonzero;fill:rgb(23.529412%,20.784314%,29.803922%);fill-opacity:1;" d="M 98.332031 43.421875 L 97.113281 44.15625 L 97.320312 44.542969 L 98.449219 43.726562 Z M 98.332031 43.421875 "/>
<path style=" stroke:none;fill-rule:nonzero;fill:rgb(23.529412%,20.784314%,29.803922%);fill-opacity:1;" d="M 94.25 44.773438 L 95.179688 44.632812 L 95.132812 44.921875 L 94.335938 44.988281 Z M 94.25 44.773438 "/>
<path style=" stroke:none;fill-rule:nonzero;fill:rgb(79.607843%,80.784314%,85.490196%);fill-opacity:1;" d="M 92.449219 44.382812 C 92.539062 44.148438 92.585938 43.894531 92.589844 43.632812 C 92.589844 43.480469 92.613281 43.324219 92.652344 43.179688 C 92.71875 42.992188 92.820312 42.828125 92.949219 42.699219 C 93.378906 42.246094 93.992188 42.011719 94.59375 41.980469 C 95.253906 41.941406 95.910156 42.121094 96.5 42.496094 C 96.679688 42.601562 96.839844 42.75 96.972656 42.933594 C 97.164062 43.226562 97.207031 43.605469 97.398438 43.894531 C 97.667969 44.253906 98.066406 44.410156 98.449219 44.308594 C 98.515625 44.007812 98.429688 43.695312 98.460938 43.390625 C 98.515625 43.128906 98.589844 42.871094 98.679688 42.628906 C 98.894531 41.84375 98.582031 40.933594 97.945312 40.464844 C 97.722656 40.292969 97.457031 40.183594 97.289062 39.953125 C 97.121094 39.71875 97.082031 39.480469 96.964844 39.25 C 96.660156 38.636719 95.871094 38.351562 95.265625 38.632812 C 95.078125 38.722656 94.910156 38.859375 94.71875 38.953125 C 94.363281 39.136719 93.957031 39.167969 93.5625 39.230469 C 93.179688 39.277344 92.800781 39.398438 92.445312 39.597656 C 92.105469 39.808594 91.824219 40.144531 91.746094 40.546875 C 91.707031 40.730469 91.714844 40.921875 91.679688 41.105469 C 91.488281 42.039062 90.269531 42.488281 90.199219 43.441406 C 90.175781 43.785156 90.324219 44.113281 90.511719 44.390625 C 90.640625 44.582031 90.949219 45.09375 91.164062 45.164062 C 91.382812 45.238281 91.550781 44.980469 91.757812 44.890625 C 92.085938 44.761719 92.285156 44.734375 92.449219 44.382812 Z M 92.449219 44.382812 "/>
<path style=" stroke:none;fill-rule:nonzero;fill:rgb(27.45098%,27.058824%,35.686275%);fill-opacity:1;" d="M 107.921875 104.789062 C 107.921875 113.40625 112.242188 120.378906 117.585938 120.378906 "/>
<path style=" stroke:none;fill-rule:nonzero;fill:rgb(45.882353%,21.176471%,84.313725%);fill-opacity:1;" d="M 117.585938 120.378906 C 117.585938 111.667969 122.410156 104.617188 128.371094 104.617188 "/>
<path style=" stroke:none;fill-rule:nonzero;fill:rgb(45.882353%,21.176471%,84.313725%);fill-opacity:1;" d="M 111.421875 105.570312 C 111.421875 113.757812 114.179688 120.378906 117.585938 120.378906 "/>
<path style=" stroke:none;fill-rule:nonzero;fill:rgb(27.45098%,27.058824%,35.686275%);fill-opacity:1;" d="M 117.585938 120.378906 C 117.585938 109.246094 123.160156 100.234375 130.050781 100.234375 "/>
<use xlink:href="#surface162" mask="url(#mask52)"/>
<path style=" stroke:none;fill-rule:nonzero;fill:rgb(65.882353%,65.882353%,65.882353%);fill-opacity:1;" d="M 115.550781 120.488281 C 115.550781 120.488281 116.921875 120.4375 117.335938 120.070312 C 117.746094 119.703125 119.441406 119.261719 119.546875 119.851562 C 119.648438 120.441406 121.601562 122.785156 120.058594 122.800781 C 118.511719 122.816406 116.460938 122.5 116.050781 122.1875 C 115.636719 121.871094 115.550781 120.488281 115.550781 120.488281 Z M 115.550781 120.488281 "/>
<use xlink:href="#surface165" mask="url(#mask53)"/>
<path style=" stroke:none;fill-rule:nonzero;fill:rgb(27.45098%,27.058824%,35.686275%);fill-opacity:1;" d="M 3.085938 109.824219 C 3.085938 116.683594 6.523438 122.226562 10.773438 122.226562 "/>
<path style=" stroke:none;fill-rule:nonzero;fill:rgb(45.882353%,21.176471%,84.313725%);fill-opacity:1;" d="M 10.773438 122.226562 C 10.773438 115.296875 14.609375 109.683594 19.351562 109.683594 "/>
<path style=" stroke:none;fill-rule:nonzero;fill:rgb(45.882353%,21.176471%,84.313725%);fill-opacity:1;" d="M 5.871094 110.449219 C 5.871094 116.964844 8.0625 122.230469 10.773438 122.230469 "/>
<path style=" stroke:none;fill-rule:nonzero;fill:rgb(27.45098%,27.058824%,35.686275%);fill-opacity:1;" d="M 10.773438 122.226562 C 10.773438 113.371094 15.207031 106.199219 20.6875 106.199219 "/>
<use xlink:href="#surface168" mask="url(#mask54)"/>
<path style=" stroke:none;fill-rule:nonzero;fill:rgb(65.882353%,65.882353%,65.882353%);fill-opacity:1;" d="M 9.15625 122.316406 C 9.15625 122.316406 10.246094 122.273438 10.574219 121.972656 C 10.902344 121.671875 12.25 121.328125 12.332031 121.800781 C 12.414062 122.273438 13.972656 124.132812 12.742188 124.148438 C 11.515625 124.160156 9.882812 123.90625 9.554688 123.65625 C 9.226562 123.410156 9.15625 122.316406 9.15625 122.316406 Z M 9.15625 122.316406 "/>
<use xlink:href="#surface171" mask="url(#mask55)"/>
</g>
</svg>
