<?xml version="1.0" encoding="UTF-8"?>
<svg xmlns="http://www.w3.org/2000/svg" xmlns:xlink="http://www.w3.org/1999/xlink" width="129pt" height="70pt" viewBox="0 0 129 70" version="1.1">
<defs>
<clipPath id="clip1">
  <path d="M 1 1 L 128 1 L 128 69 L 1 69 Z M 1 1 "/>
</clipPath>
<clipPath id="clip2">
  <path d="M 1.8125 34.964844 C 1.8125 53.265625 29.886719 68.105469 64.519531 68.105469 C 99.148438 68.105469 127.222656 53.265625 127.222656 34.964844 C 127.222656 16.660156 99.148438 1.824219 64.519531 1.824219 C 29.886719 1.824219 1.8125 16.660156 1.8125 34.964844 "/>
</clipPath>
<radialGradient id="radial0" gradientUnits="userSpaceOnUse" cx="0" cy="0" fx="0" fy="0" r="1" gradientTransform="matrix(82.339078,0,0,82.728035,39.46203,13.474059)">
<stop offset="0" style="stop-color:rgb(68.235294%,69.803922%,83.529412%);stop-opacity:1;"/>
<stop offset="0.3" style="stop-color:rgb(68.235294%,69.803922%,83.529412%);stop-opacity:1;"/>
<stop offset="0.75" style="stop-color:rgb(28.235294%,29.803922%,53.72549%);stop-opacity:1;"/>
<stop offset="1" style="stop-color:rgb(28.235294%,29.803922%,53.72549%);stop-opacity:1;"/>
</radialGradient>
</defs>
<g id="surface1">
<g clip-path="url(#clip1)" clip-rule="nonzero">
<g clip-path="url(#clip2)" clip-rule="nonzero">
<path style=" stroke:none;fill-rule:nonzero;fill:url(#radial0);" d="M 1.8125 34.964844 C 1.8125 53.265625 29.886719 68.105469 64.519531 68.105469 C 99.148438 68.105469 127.222656 53.265625 127.222656 34.964844 C 127.222656 16.660156 99.148438 1.824219 64.519531 1.824219 C 29.886719 1.824219 1.8125 16.660156 1.8125 34.964844 "/>
</g>
</g>
<path style=" stroke:none;fill-rule:nonzero;fill:rgb(46.666667%,48.235294%,70.196078%);fill-opacity:1;" d="M 64.519531 65.644531 C 97.796875 65.644531 124.773438 51.90625 124.773438 34.964844 C 124.773438 18.019531 97.796875 4.285156 64.519531 4.285156 C 31.242188 4.285156 4.265625 18.019531 4.265625 34.964844 C 4.265625 51.90625 31.242188 65.644531 64.519531 65.644531 "/>
<path style=" stroke:none;fill-rule:nonzero;fill:rgb(0%,0%,0%);fill-opacity:1;" d="M 35.882812 38.765625 C 38.617188 38.765625 40.660156 38.261719 41.953125 37.261719 C 43.230469 36.273438 44.113281 34.558594 44.578125 32.167969 C 45.007812 29.933594 44.84375 28.371094 44.089844 27.53125 C 43.316406 26.671875 41.644531 26.234375 39.125 26.234375 L 34.75 26.234375 L 32.328125 38.765625 Z M 21.578125 54.203125 C 21.375 54.203125 21.183594 54.113281 21.054688 53.957031 C 20.925781 53.796875 20.875 53.589844 20.910156 53.390625 L 27.335938 20.179688 C 27.398438 19.859375 27.679688 19.625 28.003906 19.625 L 41.851562 19.625 C 46.203125 19.625 49.441406 20.8125 51.476562 23.15625 C 53.523438 25.507812 54.15625 28.800781 53.355469 32.9375 C 53.03125 34.621094 52.46875 36.183594 51.691406 37.585938 C 50.910156 38.988281 49.878906 40.285156 48.628906 41.445312 C 47.125 42.855469 45.429688 43.878906 43.585938 44.480469 C 41.769531 45.074219 39.4375 45.375 36.65625 45.375 L 31.050781 45.375 L 29.449219 53.652344 C 29.386719 53.972656 29.105469 54.203125 28.78125 54.203125 Z M 21.578125 54.203125 "/>
<path style=" stroke:none;fill-rule:nonzero;fill:rgb(100%,100%,100%);fill-opacity:1;" d="M 35.3125 26.917969 L 39.125 26.917969 C 42.167969 26.917969 43.226562 27.589844 43.585938 27.988281 C 44.179688 28.652344 44.292969 30.054688 43.910156 32.039062 C 43.480469 34.257812 42.683594 35.835938 41.539062 36.71875 C 40.367188 37.625 38.464844 38.082031 35.882812 38.082031 L 33.152344 38.082031 Z M 41.851562 18.941406 L 28.003906 18.941406 C 27.351562 18.941406 26.792969 19.40625 26.667969 20.050781 L 20.246094 53.261719 C 20.167969 53.660156 20.269531 54.074219 20.53125 54.390625 C 20.789062 54.707031 21.171875 54.886719 21.578125 54.886719 L 28.78125 54.886719 C 29.433594 54.886719 29.992188 54.425781 30.117188 53.78125 L 31.609375 46.058594 L 36.65625 46.058594 C 39.511719 46.058594 41.910156 45.746094 43.796875 45.128906 C 45.734375 44.496094 47.515625 43.425781 49.09375 41.941406 C 50.398438 40.738281 51.472656 39.382812 52.285156 37.917969 C 53.101562 36.457031 53.683594 34.820312 54.023438 33.066406 C 54.867188 28.710938 54.183594 25.226562 51.988281 22.707031 C 49.820312 20.207031 46.40625 18.941406 41.851562 18.941406 M 31.5 39.449219 L 35.882812 39.449219 C 38.785156 39.449219 40.949219 38.902344 42.367188 37.800781 C 43.789062 36.703125 44.746094 34.867188 45.246094 32.296875 C 45.722656 29.828125 45.503906 28.085938 44.59375 27.074219 C 43.683594 26.058594 41.859375 25.550781 39.125 25.550781 L 34.191406 25.550781 L 31.5 39.449219 M 41.851562 20.308594 C 46.015625 20.308594 49.054688 21.410156 50.964844 23.605469 C 52.875 25.800781 53.449219 28.867188 52.6875 32.804688 C 52.375 34.425781 51.84375 35.910156 51.097656 37.253906 C 50.351562 38.597656 49.375 39.824219 48.167969 40.941406 C 46.730469 42.292969 45.132812 43.257812 43.375 43.828125 C 41.617188 44.40625 39.378906 44.691406 36.65625 44.691406 L 30.488281 44.691406 L 28.78125 53.519531 L 21.578125 53.519531 L 28.003906 20.308594 L 41.851562 20.308594 "/>
<path style=" stroke:none;fill-rule:nonzero;fill:rgb(0%,0%,0%);fill-opacity:1;" d="M 69.867188 45.375 C 69.664062 45.375 69.472656 45.285156 69.34375 45.125 C 69.210938 44.96875 69.160156 44.761719 69.199219 44.5625 L 72.039062 29.867188 C 72.3125 28.46875 72.246094 27.464844 71.851562 27.042969 C 71.613281 26.78125 70.894531 26.347656 68.765625 26.347656 L 63.617188 26.347656 L 60.046875 44.820312 C 59.984375 45.144531 59.703125 45.375 59.378906 45.375 L 52.234375 45.375 C 52.03125 45.375 51.835938 45.285156 51.707031 45.125 C 51.578125 44.96875 51.527344 44.761719 51.566406 44.5625 L 57.988281 11.351562 C 58.050781 11.027344 58.332031 10.796875 58.65625 10.796875 L 65.800781 10.796875 C 66.003906 10.796875 66.199219 10.886719 66.328125 11.046875 C 66.457031 11.203125 66.507812 11.410156 66.46875 11.609375 L 64.917969 19.625 L 70.457031 19.625 C 74.679688 19.625 77.539062 20.375 79.207031 21.910156 C 80.902344 23.480469 81.433594 25.988281 80.78125 29.367188 L 77.792969 44.820312 C 77.730469 45.144531 77.449219 45.375 77.125 45.375 Z M 69.867188 45.375 "/>
<path style=" stroke:none;fill-rule:nonzero;fill:rgb(100%,100%,100%);fill-opacity:1;" d="M 65.800781 10.113281 L 58.65625 10.113281 C 58.007812 10.113281 57.445312 10.578125 57.320312 11.21875 L 50.898438 44.429688 C 50.820312 44.832031 50.925781 45.246094 51.183594 45.5625 C 51.441406 45.875 51.828125 46.058594 52.234375 46.058594 L 59.378906 46.058594 C 60.027344 46.058594 60.589844 45.59375 60.714844 44.953125 L 64.179688 27.03125 L 68.765625 27.03125 C 70.890625 27.03125 71.335938 27.488281 71.355469 27.507812 C 71.484375 27.648438 71.652344 28.292969 71.371094 29.734375 L 68.53125 44.429688 C 68.453125 44.832031 68.558594 45.246094 68.816406 45.5625 C 69.074219 45.875 69.460938 46.058594 69.867188 46.058594 L 77.125 46.058594 C 77.773438 46.058594 78.335938 45.59375 78.460938 44.953125 L 81.449219 29.496094 C 82.148438 25.871094 81.550781 23.148438 79.664062 21.410156 C 77.867188 19.75 74.855469 18.941406 70.457031 18.941406 L 65.746094 18.941406 L 67.136719 11.742188 C 67.214844 11.339844 67.109375 10.925781 66.851562 10.609375 C 66.59375 10.296875 66.207031 10.113281 65.800781 10.113281 M 65.800781 11.480469 L 64.09375 20.308594 L 70.457031 20.308594 C 74.460938 20.308594 77.226562 21.011719 78.746094 22.414062 C 80.265625 23.820312 80.722656 26.09375 80.113281 29.238281 L 77.125 44.691406 L 69.867188 44.691406 L 72.707031 29.996094 C 73.03125 28.324219 72.914062 27.183594 72.351562 26.578125 C 71.789062 25.96875 70.59375 25.664062 68.765625 25.664062 L 63.058594 25.664062 L 59.378906 44.691406 L 52.234375 44.691406 L 58.65625 11.480469 L 65.800781 11.480469 "/>
<path style=" stroke:none;fill-rule:nonzero;fill:rgb(0%,0%,0%);fill-opacity:1;" d="M 92.085938 38.765625 C 94.820312 38.765625 96.863281 38.261719 98.15625 37.261719 C 99.433594 36.273438 100.316406 34.558594 100.78125 32.167969 C 101.210938 29.933594 101.046875 28.371094 100.292969 27.53125 C 99.519531 26.671875 97.847656 26.234375 95.328125 26.234375 L 90.953125 26.234375 L 88.53125 38.765625 Z M 77.78125 54.203125 C 77.578125 54.203125 77.386719 54.113281 77.257812 53.957031 C 77.128906 53.796875 77.074219 53.589844 77.113281 53.390625 L 83.539062 20.179688 C 83.601562 19.859375 83.882812 19.625 84.207031 19.625 L 98.054688 19.625 C 102.40625 19.625 105.644531 20.8125 107.679688 23.15625 C 109.726562 25.507812 110.359375 28.800781 109.558594 32.9375 C 109.234375 34.621094 108.671875 36.183594 107.894531 37.585938 C 107.113281 38.988281 106.082031 40.285156 104.832031 41.445312 C 103.328125 42.855469 101.632812 43.878906 99.789062 44.480469 C 97.972656 45.074219 95.640625 45.375 92.859375 45.375 L 87.253906 45.375 L 85.652344 53.652344 C 85.589844 53.972656 85.308594 54.203125 84.984375 54.203125 Z M 77.78125 54.203125 "/>
<path style=" stroke:none;fill-rule:nonzero;fill:rgb(100%,100%,100%);fill-opacity:1;" d="M 91.515625 26.917969 L 95.328125 26.917969 C 98.371094 26.917969 99.429688 27.589844 99.789062 27.988281 C 100.382812 28.652344 100.496094 30.054688 100.113281 32.039062 C 99.683594 34.257812 98.882812 35.835938 97.742188 36.71875 C 96.570312 37.625 94.667969 38.082031 92.085938 38.082031 L 89.355469 38.082031 Z M 98.054688 18.941406 L 84.207031 18.941406 C 83.554688 18.941406 82.996094 19.40625 82.871094 20.050781 L 76.445312 53.261719 C 76.371094 53.660156 76.472656 54.074219 76.734375 54.390625 C 76.992188 54.707031 77.375 54.886719 77.78125 54.886719 L 84.984375 54.886719 C 85.636719 54.886719 86.195312 54.425781 86.320312 53.78125 L 87.8125 46.058594 L 92.859375 46.058594 C 95.710938 46.058594 98.113281 45.746094 100 45.128906 C 101.933594 44.496094 103.71875 43.425781 105.296875 41.941406 C 106.601562 40.738281 107.675781 39.382812 108.488281 37.917969 C 109.300781 36.457031 109.886719 34.820312 110.226562 33.066406 C 111.070312 28.710938 110.386719 25.226562 108.191406 22.707031 C 106.023438 20.207031 102.609375 18.941406 98.054688 18.941406 M 87.703125 39.449219 L 92.085938 39.449219 C 94.988281 39.449219 97.152344 38.902344 98.570312 37.800781 C 99.992188 36.703125 100.949219 34.867188 101.449219 32.296875 C 101.925781 29.828125 101.707031 28.085938 100.796875 27.074219 C 99.886719 26.058594 98.0625 25.550781 95.328125 25.550781 L 90.394531 25.550781 L 87.703125 39.449219 M 98.054688 20.308594 C 102.21875 20.308594 105.257812 21.410156 107.167969 23.605469 C 109.078125 25.800781 109.652344 28.867188 108.890625 32.804688 C 108.578125 34.425781 108.046875 35.910156 107.300781 37.253906 C 106.550781 38.597656 105.578125 39.824219 104.371094 40.941406 C 102.933594 42.292969 101.335938 43.257812 99.578125 43.828125 C 97.820312 44.40625 95.582031 44.691406 92.859375 44.691406 L 86.691406 44.691406 L 84.984375 53.519531 L 77.78125 53.519531 L 84.207031 20.308594 L 98.054688 20.308594 "/>
</g>
</svg>
