<?xml version="1.0" encoding="UTF-8"?>
<svg xmlns="http://www.w3.org/2000/svg" xmlns:xlink="http://www.w3.org/1999/xlink" width="149pt" height="146pt" viewBox="0 0 149 146" version="1.1">
<defs>
<radialGradient id="radial0" gradientUnits="userSpaceOnUse" cx="-183.69" cy="328.972" fx="-183.69" fy="328.972" r="0.76" gradientTransform="matrix(136.58363,0,0,132.870479,25140.23919,-43674.498235)">
<stop offset="0" style="stop-color:rgb(25.882353%,20%,14.509804%);stop-opacity:0.980392;"/>
<stop offset="1" style="stop-color:rgb(10.980392%,3.921569%,0%);stop-opacity:1;"/>
</radialGradient>
</defs>
<g id="surface1">
<path style=" stroke:none;fill-rule:nonzero;fill:url(#radial0);" d="M 6.207031 6.253906 L 142.792969 6.253906 L 142.792969 139.746094 L 6.207031 139.746094 Z M 6.207031 6.253906 "/>
<path style=" stroke:none;fill-rule:nonzero;fill:rgb(100%,49.803922%,9.411765%);fill-opacity:1;" d="M 6.207031 6.253906 L 142.792969 6.253906 L 142.792969 139.746094 L 6.207031 139.746094 Z M 0 145.984375 L 149 145.984375 L 149 0.015625 L 0 0.015625 Z M 97.59375 52.039062 C 97.59375 51.542969 97.78125 51.292969 98.339844 51.292969 L 108.085938 51.292969 C 108.582031 51.292969 108.832031 51.480469 108.832031 52.039062 L 108.832031 101.257812 C 108.832031 101.757812 108.707031 102.007812 108.085938 102.007812 L 98.464844 102.007812 C 97.84375 102.007812 97.65625 101.695312 97.65625 101.195312 L 97.65625 52.039062 Z M 96.914062 37.878906 C 96.914062 33.886719 99.707031 31.515625 103.246094 31.515625 C 107.03125 31.515625 109.578125 34.074219 109.578125 37.878906 C 109.578125 41.996094 106.90625 44.242188 103.121094 44.242188 C 99.519531 44.242188 96.914062 41.996094 96.914062 37.878906 Z M 68.976562 72.5625 C 67.238281 65.640625 63.140625 50.542969 61.585938 43.246094 L 61.460938 43.246094 C 60.160156 50.542969 56.867188 62.894531 54.261719 72.5625 Z M 51.714844 82.667969 L 46.8125 101.382812 C 46.6875 101.882812 46.5 102.007812 45.878906 102.007812 L 36.753906 102.007812 C 36.132812 102.007812 36.007812 101.820312 36.132812 101.070312 L 53.765625 39.066406 C 54.074219 37.941406 54.261719 36.945312 54.386719 33.886719 C 54.386719 33.449219 54.570312 33.265625 54.882812 33.265625 L 67.917969 33.265625 C 68.355469 33.265625 68.539062 33.386719 68.664062 33.886719 L 88.40625 101.195312 C 88.53125 101.695312 88.40625 102.007812 87.910156 102.007812 L 77.605469 102.007812 C 77.109375 102.007812 76.796875 101.882812 76.671875 101.445312 L 71.582031 82.667969 Z M 51.714844 82.667969 "/>
</g>
</svg>
