<?xml version="1.0" encoding="UTF-8"?>
<svg xmlns="http://www.w3.org/2000/svg" xmlns:xlink="http://www.w3.org/1999/xlink" width="149pt" height="146pt" viewBox="0 0 149 146" version="1.1">
<defs>
<radialGradient id="radial0" gradientUnits="userSpaceOnUse" cx="-183.69" cy="328.972" fx="-183.69" fy="328.972" r="0.76" gradientTransform="matrix(136.58363,0,0,132.870479,25140.23919,-43674.498235)">
<stop offset="0" style="stop-color:rgb(29.411765%,16.862745%,21.176471%);stop-opacity:0.980392;"/>
<stop offset="1" style="stop-color:rgb(14.509804%,0%,7.058824%);stop-opacity:1;"/>
</radialGradient>
</defs>
<g id="surface1">
<path style=" stroke:none;fill-rule:nonzero;fill:url(#radial0);" d="M 6.207031 6.253906 L 142.792969 6.253906 L 142.792969 139.746094 L 6.207031 139.746094 Z M 6.207031 6.253906 "/>
<path style=" stroke:none;fill-rule:nonzero;fill:rgb(100%,25.098039%,54.901961%);fill-opacity:1;" d="M 6.207031 6.253906 L 142.792969 6.253906 L 142.792969 139.746094 L 6.207031 139.746094 Z M 0 145.984375 L 149 145.984375 L 149 0.015625 L 0 0.015625 Z M 94.242188 60.648438 C 93.3125 60.210938 92.070312 60.023438 90.578125 60.023438 C 82.570312 60.023438 76.984375 66.199219 76.984375 76.492188 C 76.984375 88.222656 82.695312 92.960938 89.835938 92.960938 C 91.386719 92.960938 93 92.773438 94.242188 92.214844 Z M 90.953125 50.480469 C 92.253906 50.480469 93 50.480469 94.242188 50.605469 L 94.242188 34.011719 C 94.242188 33.574219 94.554688 33.386719 94.863281 33.386719 L 104.921875 33.386719 C 105.417969 33.386719 105.542969 33.574219 105.542969 33.886719 L 105.542969 92.214844 C 105.542969 93.960938 105.542969 96.144531 105.851562 98.515625 C 105.851562 98.949219 105.726562 99.011719 105.292969 99.261719 C 99.953125 101.820312 94.304688 102.941406 89.027344 102.941406 C 75.308594 102.941406 65.496094 94.398438 65.496094 76.992188 C 65.4375 62.082031 75.246094 50.480469 90.953125 50.480469 Z M 54.507812 101.195312 C 54.507812 101.820312 54.386719 102.007812 53.703125 102.007812 L 44.140625 102.007812 C 43.519531 102.007812 43.335938 101.695312 43.335938 101.195312 L 43.335938 34.199219 C 43.335938 33.574219 43.644531 33.386719 44.140625 33.386719 L 53.765625 33.386719 C 54.261719 33.386719 54.507812 33.574219 54.507812 34.136719 Z M 54.507812 101.195312 "/>
</g>
</svg>
