<?xml version="1.0" encoding="UTF-8"?>
<svg xmlns="http://www.w3.org/2000/svg" xmlns:xlink="http://www.w3.org/1999/xlink" width="149pt" height="146pt" viewBox="0 0 149 146" version="1.1">
<defs>
<radialGradient id="radial0" gradientUnits="userSpaceOnUse" cx="-183.69" cy="328.972" fx="-183.69" fy="328.972" r="0.76" gradientTransform="matrix(136.5834,0,0,132.870256,25140.196958,-43674.42487)">
<stop offset="0" style="stop-color:rgb(20.392157%,21.176471%,30.588235%);stop-opacity:0.980392;"/>
<stop offset="1" style="stop-color:rgb(4.705882%,3.137255%,14.117647%);stop-opacity:1;"/>
</radialGradient>
</defs>
<g id="surface1">
<path style=" stroke:none;fill-rule:nonzero;fill:url(#radial0);" d="M 6.207031 6.253906 L 142.792969 6.253906 L 142.792969 139.746094 L 6.207031 139.746094 Z M 6.207031 6.253906 "/>
<path style=" stroke:none;fill-rule:nonzero;fill:rgb(19.215686%,77.254902%,94.117647%);fill-opacity:1;" d="M 6.207031 6.253906 L 142.792969 6.253906 L 142.792969 139.746094 L 6.207031 139.746094 Z M 0 145.984375 L 149 145.984375 L 149 0.015625 L 0 0.015625 Z M 100.449219 59.898438 C 95.546875 59.898438 93.871094 62.394531 93.871094 64.453125 C 93.871094 66.699219 94.988281 68.257812 101.570312 71.691406 C 111.316406 76.429688 114.359375 80.984375 114.359375 87.660156 C 114.359375 97.640625 106.785156 103.003906 96.539062 103.003906 C 91.136719 103.003906 86.480469 101.882812 83.8125 100.324219 C 83.378906 100.136719 83.316406 99.824219 83.316406 99.324219 L 83.316406 90.15625 C 83.316406 89.53125 83.625 89.34375 84.0625 89.65625 C 87.972656 92.214844 92.441406 93.335938 96.539062 93.335938 C 101.445312 93.335938 103.492188 91.277344 103.492188 88.46875 C 103.492188 86.222656 102.066406 84.226562 95.792969 80.984375 C 86.980469 76.742188 83.316406 72.4375 83.316406 65.265625 C 83.316406 57.21875 89.585938 50.542969 100.449219 50.542969 C 105.789062 50.542969 109.515625 51.355469 111.5625 52.289062 C 112.058594 52.601562 112.183594 53.101562 112.183594 53.535156 L 112.183594 62.082031 C 112.183594 62.582031 111.875 62.894531 111.253906 62.707031 C 108.523438 60.960938 104.484375 59.898438 100.449219 59.898438 Z M 47.058594 67.324219 C 48.488281 67.449219 49.605469 67.449219 52.089844 67.449219 C 59.351562 67.449219 66.179688 64.890625 66.179688 54.972656 C 66.179688 47.050781 61.277344 43.058594 53.019531 43.058594 C 50.535156 43.058594 48.175781 43.183594 47.058594 43.246094 Z M 36.007812 34.199219 C 36.007812 33.761719 36.878906 33.449219 37.375 33.449219 C 41.347656 33.261719 47.246094 33.136719 53.390625 33.136719 C 70.589844 33.136719 77.292969 42.621094 77.292969 54.722656 C 77.292969 70.566406 65.871094 77.367188 51.839844 77.367188 C 49.480469 77.367188 48.671875 77.242188 46.996094 77.242188 L 46.996094 101.195312 C 46.996094 101.695312 46.8125 101.945312 46.253906 101.945312 L 36.753906 101.945312 C 36.257812 101.945312 36.007812 101.757812 36.007812 101.195312 Z M 36.007812 34.199219 "/>
</g>
</svg>
